<?xml version="1.0" encoding="utf-8"?>
<svg version="1.1" xmlns:xlink="http://www.w3.org/1999/xlink" width="26px" height="32px" xmlns="http://www.w3.org/2000/svg">
  <defs>
    <filter x="435px" y="-2px" width="26px" height="32px" filterUnits="userSpaceOnUse" id="filter51">
      <feOffset dx="0" dy="1" in="SourceAlpha" result="shadowOffsetInner" />
      <feGaussianBlur stdDeviation="1.5" in="shadowOffsetInner" result="shadowGaussian" />
      <feComposite in2="shadowGaussian" operator="atop" in="SourceAlpha" result="shadowComposite" />
      <feColorMatrix type="matrix" values="0 0 0 0 0  0 0 0 0 0  0 0 0 0 0  0 0 0 0.2 0  " in="shadowComposite" />
    </filter>
    <g id="widget52">
      <path d="M 448 25.053196568550327  C 444.2 18.917351734492506  438.5 15.235844834057817  438.5 9.1  C 438.5 5.905714285714284  440.4 0.5000000000000011  448 0.5000000000000011  C 455.6 0.5000000000000011  457.5 5.905714285714284  457.5 9.1  C 457.5 15.235844834057817  451.8 18.917351734492506  448 25.053196568550327  Z " fill-rule="nonzero" fill="#ffdf25" stroke="none" />
      <path d="M 448 26  C 444 19.5  438 15.6  438 9.1  C 438 5.719999999999999  440 0  448 0  C 456 0  458 5.719999999999999  458 9.1  C 458 15.6  452 19.5  448 26  Z M 448 24.106393137100653  C 451.6 18.334703468985015  457 14.871689668115637  457 9.1  C 457 6.091428571428569  455.2 0.9999999999999993  448 0.9999999999999993  C 440.8 0.9999999999999993  439 6.091428571428569  439 9.1  C 439 14.871689668115637  444.4 18.334703468985015  448 24.106393137100653  Z " fill-rule="nonzero" fill="#ffffff" stroke="none" />
    </g>
  </defs>
  <g transform="matrix(1 0 0 1 -435 2 )">
    <use xlink:href="#widget52" filter="url(#filter51)" />
    <use xlink:href="#widget52" />
  </g>
</svg>