<?xml version="1.0" encoding="utf-8"?>
<svg version="1.1" xmlns:xlink="http://www.w3.org/1999/xlink" width="17px" height="20px" xmlns="http://www.w3.org/2000/svg">
  <g transform="matrix(1 0 0 1 -15 -478 )">
    <path d="M 13.4499999953125 5.021176458333333  C 13.4499999953125 7.620163518475657  11.300966792751419 9.727058815104165  8.649999991406249 9.727058815104165  C 5.9990331900610805 9.727058815104165  3.8499999875 7.620163518475657  3.8499999875 5.021176458333333  C 3.8499999874999986 2.4221893981910094  5.999033190061079 0.31529410156249915  8.649999991406249 0.31529410156249915  C 11.300966792751419 0.31529410156249915  13.4499999953125 2.4221893981910094  13.4499999953125 5.021176458333333  Z M 0.6499999937500005 18.354509791666665  L 0.6499999937499998 16.001568619791662  C 0.6499999937499995 13.402581566840547  2.799033190364861 11.295686276041666  5.449999984375 11.295686276041666  L 11.8499999984375 11.295686276041668  C 14.500966792447635 11.295686276041668  16.6499999890625 13.402581566840547  16.6499999890625 16.001568619791666  L 16.6499999890625 18.354509791666665  C 16.649999989062504 19.220838835358705  15.933655590190885 19.923137265625  15.049999992187505 19.923137265625  C 15.049999992187505 19.923137265625  15.049999992187505 19.923137265625  15.049999992187502 20  L 2.249999990625001 20  C 2.249999990625001 19.923137265625  2.249999990625001 19.923137265625  2.249999990625001 19.923137265625  C 1.3663443926216208 19.923137265625  0.6499999937500008 19.220838835358705  0.6499999937500008 18.354509817708337  Z " fill-rule="nonzero" fill="#000000" stroke="none" transform="matrix(1 0 0 1 15 478 )" />
  </g>
</svg>