<?xml version="1.0" encoding="utf-8"?>
<svg version="1.1" xmlns:xlink="http://www.w3.org/1999/xlink" width="235px" height="60px" xmlns="http://www.w3.org/2000/svg">
  <defs>
    <mask fill="white" id="clip10">
      <path d="M 230 60  C 232.7614237491539 60  235 57.761423749154005  235 55  L 235 5  C 235 2.2385762508460516  235 4  230 0  L 12 0  C 9.238576250846108 0  7 2.2385762508460516  7 5  L 7 17.00004012844198  L 0 24.000079795944373  L 7 31.000206916697266  L 7 55  C 7 57.761423749154005  9.238576250846108 60  12 60  L 230 60  Z " fill-rule="evenodd" />
    </mask>
  </defs>
  <g transform="matrix(1 0 0 1 -65 -154 )">
    <path d="M 230 60  C 232.7614237491539 60  235 57.761423749154005  235 55  L 235 5  C 235 2.2385762508460516  235 4  230 0  L 12 0  C 9.238576250846108 0  7 2.2385762508460516  7 5  L 7 17.00004012844198  L 0 24.000079795944373  L 7 31.000206916697266  L 7 55  C 7 57.761423749154005  9.238576250846108 60  12 60  L 230 60  Z " fill-rule="nonzero" fill="#ffffff" stroke="none" transform="matrix(1 0 0 1 65 154 )" />
    <path d="M 230 60  C 232.7614237491539 60  235 57.761423749154005  235 55  L 235 5  C 235 2.2385762508460516  235 4  230 0  L 12 0  C 9.238576250846108 0  7 2.2385762508460516  7 5  L 7 17.00004012844198  L 0 24.000079795944373  L 7 31.000206916697266  L 7 55  C 7 57.761423749154005  9.238576250846108 60  12 60  L 230 60  Z " stroke-width="2" stroke="#d7d7d7" fill="none" transform="matrix(1 0 0 1 65 154 )" mask="url(#clip10)" />
  </g>
</svg>