<?xml version="1.0" encoding="utf-8"?>
<svg version="1.1" xmlns:xlink="http://www.w3.org/1999/xlink" width="16px" height="20px" xmlns="http://www.w3.org/2000/svg">
  <g transform="matrix(1 0 0 1 -465 -357 )">
    <path d="M 0 1.5384615384615385  C 0 0.6887926925680105  0.6512221820643006 0  1.4545454545454568 0  L 13.21018181818182 0  L 9.425454545454548 5.215384615384615  C 9.229580330095136 5.4842939951647605  9.123675337869635 5.8143861996580295  9.124363636363636 6.153846153846154  L 3.6363636363636385 6.153846153846154  L 3.6363636363636385 7.6923076923076925  L 10.087272727272726 7.6923076923076925  L 10.847999999999999 8.30923076923077  C 11.48506577292707 8.826559203916688  12.397990217275426 8.699833710434774  12.887272727272725 8.026153846153845  L 16 3.7338461538461534  L 16 18.461538461538463  C 15.999999999999998 19.31120730743199  15.348777817935696 20  14.545454545454543 20  L 1.4545454545454544 20  C 0.6512221820643006 20  0 19.31120730743199  0 18.461538461538463  L 0 1.5384615384615385  Z M 3.6363636363636385 10.769230769230768  L 3.6363636363636385 12.307692307692308  L 12.363636363636365 12.307692307692308  L 12.363636363636365 10.769230769230768  L 3.6363636363636385 10.769230769230768  Z " fill-rule="nonzero" fill="#000000" stroke="none" transform="matrix(1 0 0 1 465 357 )" />
  </g>
</svg>