<?xml version="1.0" encoding="utf-8"?>
<svg version="1.1" xmlns:xlink="http://www.w3.org/1999/xlink" width="9px" height="20px" xmlns="http://www.w3.org/2000/svg">
  <g transform="matrix(1 0 0 1 -476 -478 )">
    <path d="M 0.1594010710227258 0.34352940104166674  C 1.4682640269705602 1.5326676971843836  2.2158618352300925 3.234782154275997  2.213903735795453 5.021176458333333  C 2.2154221827207263 6.807024137060731  1.4678628102409024 8.50848032027314  0.15940107102272869 9.697254895833332  C 0.3295149493032131 9.7165863575255  0.5005521233067217 9.7262744921875  0.6717215459443047 9.7262744921875  C 3.2234542888417637 9.7262744921875  5.292042392535213 7.619379201388616  5.292042392535213 5.020392148437499  C 5.292042392535213 2.421405095486383  3.2234542888417637 0.31450980468749945  0.6717215459443047 0.31450980468749945  C 0.5005521233067217 0.31450980468749945  0.3295149493032131 0.3241979393494976  0.1594010710227258 0.34352940104166674  Z M 5.294117659090908 18.354509791666665  L 5.294117659090905 16.001568619791662  C 5.296215788145195 14.200404067680461  4.536351797988547 12.485628136893634  3.208812826704545 11.295686276041668  L 3.754010684659091 11.295686276041668  C 6.305743453124725 11.295686276041666  8.374331556818175 13.402581566840547  8.374331556818175 16.001568619791662  L 8.374331556818184 18.354509791666665  C 8.374331556818184 19.220838835358705  7.684802188920367 19.923137265625  6.834224607954546 19.923137265625  L 4.881368991477269 19.923137265624995  C 5.152420115762121 19.446508543214154  5.29482217564277 18.905317738726488  5.294117659090908 18.354509791666665  Z " fill-rule="nonzero" fill="#000000" stroke="none" transform="matrix(1 0 0 1 476 478 )" />
  </g>
</svg>