<?xml version="1.0" encoding="utf-8"?>
<svg version="1.1" xmlns:xlink="http://www.w3.org/1999/xlink" width="16px" height="17px" xmlns="http://www.w3.org/2000/svg">
  <g transform="matrix(1 0 0 1 -466 -418 )">
    <path d="M 16 11.333333333333332  L 16 1.619047619047619  C 16 0.7248723097977633  15.283655599729268 0  14.4 0  L 1.6 0  C 0.7163444002707309 0  0 0.7248723097977633  0 1.619047619047619  L 0 11.333333333333332  C 0 12.227508642583189  0.7163444002707309 12.952380952380953  1.6 12.952380952380953  L 9.3536 12.952380952380953  L 13.096 16.02857142857143  C 13.238526222816589 16.145569984908306  13.416473045973802 16.209423104125907  13.600000141604786 16.209423104125907  C 14.041642066776603 16.209423104125907  14.399737227903335 15.847280440415204  14.4 15.400380952380953  L 14.4 12.952380952380953  C 15.283655599729268 12.952380952380953  16 12.227508642583189  16 11.333333333333332  Z " fill-rule="nonzero" fill="#000000" stroke="none" transform="matrix(1 0 0 1 466 418 )" />
  </g>
</svg>