<?xml version="1.0" encoding="utf-8"?>
<svg version="1.1" xmlns:xlink="http://www.w3.org/1999/xlink" width="20px" height="16px" xmlns="http://www.w3.org/2000/svg">
  <g transform="matrix(1 0 0 1 -463 -227 )">
    <path d="M 17.142857142857142 0  L 2.8571428571428568 0  C 1.2791864290548758 0  0 1.3024443641286008  0 2.909090909090909  L 0 5.454545454545454  C 1.3807118745769835 5.454545454545454  2.5 6.594184273157979  2.5 8  C 2.5 9.405815726842018  1.3807118745769835 10.545454545454545  0 10.545454545454545  L 0 13.090909090909092  C 0 14.697555635871398  1.2791864290548758 16  2.8571428571428568 16  L 17.142857142857142 16  C 18.720813570945122 16  20 14.697555635871398  20 13.090909090909092  L 20 10.545454545454545  C 18.619288125423015 10.545454545454545  17.5 9.405815726842018  17.5 8  C 17.5 6.594184273157979  18.619288125423015 5.454545454545454  20 5.454545454545454  L 20 2.909090909090909  C 20 1.3024443641286008  18.720813570945122 0  17.142857142857142 0  Z M 6.428571428571429 6.545454545454546  L 6.428571428571429 5.090909090909091  L 13.571428571428573 5.090909090909091  L 13.571428571428573 6.545454545454546  L 6.428571428571429 6.545454545454546  Z M 6.428571428571429 10.909090909090908  L 6.428571428571429 9.454545454545455  L 13.571428571428573 9.454545454545455  L 13.571428571428573 10.909090909090908  L 6.428571428571429 10.909090909090908  Z " fill-rule="nonzero" fill="#000000" stroke="none" transform="matrix(1 0 0 1 463 227 )" />
  </g>
</svg>