<?xml version="1.0" encoding="utf-8"?>
<svg version="1.1" xmlns:xlink="http://www.w3.org/1999/xlink" width="10px" height="10px" xmlns="http://www.w3.org/2000/svg">
  <g transform="matrix(1 0 0 1 -26 -241 )">
    <path d="M 8.801531363224639 6.769899230072463  C 10.337593410326086 5.233851336050723  10.337593410326086 2.734544836956521  8.801531363224639 1.1984827898550725  C 7.265441009963768 -0.33760756340579734  4.766162817028986 -0.33760756340579734  3.230086616847826 1.1984827898550725  C 1.7948794157608692 2.6336899909420297  1.7010586503623184 4.909618432971015  2.947831748188406 6.4552196557971016  L 1.837239583333334 7.565840126811594  L 0.6433565443840581 6.37195708786232  L 0.04642210144927536 6.9688915307971016  L 1.2402909873188404 8.162746263586957  L 0.04642210144927536 9.35662930253623  L 0.6433565443840581 9.953577898550725  L 1.837239583333333 8.75969485960145  L 3.0311226222826084 9.953577898550725  L 3.6280429121376807 9.35662930253623  L 2.434174026268116 8.162746263586957  L 3.5447661911231876 7.052154098731883  C 5.090381567028985 8.29894134963768  7.366295855978261 8.20513473731884  8.801531363224639 6.769899230072463  Z M 8.204596920289854 1.7954313858695645  C 9.411486639492754 3.002306951992754  9.411486639492754 4.966046761775362  8.204596920289854 6.17296478713768  C 6.997693048007246 7.379868659420289  5.033939085144926 7.379868659420289  3.827035212862318 6.17296478713768  C 2.6201454936594204 4.966060914855072  2.6201454936594204 3.0023069519927525  3.827035212862318 1.7954313858695645  C 5.033939085144929 0.5885275135869559  6.997693048007246 0.5885275135869559  8.204596920289854 1.7954313858695645  Z " fill-rule="nonzero" fill="#ec808d" stroke="none" transform="matrix(1 0 0 1 26 241 )" />
  </g>
</svg>