<?xml version="1.0" encoding="utf-8"?>
<svg version="1.1" xmlns:xlink="http://www.w3.org/1999/xlink" width="29px" height="17px" xmlns="http://www.w3.org/2000/svg">
  <g transform="matrix(1 0 0 1 -184 -367 )">
    <path d="M 27.57362398407804 10.168270203114615  C 25.555102746646213 13.577231398495663  21.32966496680206 16.986192561131816  15.274101254506595 16.986192561131816  C 14.68200170203973 16.986192561131816  14.062988512047504 16.95825026725607  13.44397532205528 16.87442335288396  L 13.201752773563461 16.87442335288396  C 6.150385261314755 16.09203882965916  2.11334278645111 11.397731624820624  0.7138347390115118 7.2622704939662714  C -0.012832906463945604 5.11071301416698  -0.12048736194717714 2.316482546011386  1.3328478974643407 0.947309622181772  C 2.086429148925755 0.24875201332909774  3.5397644398766674 -0.3100940933999775  6.177298867300714 0.9752519160575154  C 11.021749837137092 3.2944632246010404  14.5743472150171 3.5738862615931355  14.601260852542456 3.5738862615931355  L 14.628174458528413 3.5738862615931355  C 14.68200170203973 3.5738862615931355  19.364970972881554 4.1886169560736946  23.455840659717122 2.847386358864715  L 23.48275429724247 2.847386358864715  C 26.335597635632983 2.148828750012041  27.62745122758935 3.015040187608948  28.219550780056224 3.8533093313301157  C 29.376836279004003 5.501905324896709  28.73090948302582 8.212308878680188  27.57362398407804 10.168270203114615  Z M 5.85433546931162 1.7296941454065673  C 4.885445275344343 1.2546749530496102  4.051123174385657 1.03113653655389  3.3513691348961645 1.03113653655389  C 2.7323559449039414 1.03113653655389  2.2479108479203016 1.1987903652981207  1.8442066319733312 1.562040316662331  C 0.8484028004807035 2.512078701376248  0.6869211014861563 4.74746306280277  1.4674159904729265 6.982847456974179  C 2.786183188415253 10.894770138587926  6.607916752312431 15.309654273689478  13.309407260586086 16.036154209162788  L 13.551629809077903 16.064096503038535  C 20.253120317351556 16.790596438511848  24.85534873869611 13.269866034882936  26.927697188099856 9.72119333737829  C 28.111896324572992 7.681405098571748  28.407946085036727 5.473962998276078  27.600537621603387 4.328328490942187  C 26.954610825625203 3.406232432848902  25.608929990157527 3.154751689732553  23.698063208208936 3.62977088208951  C 19.499539034350743 5.026886132539753  14.843483369494875 4.440097731934936  14.547433609031136 4.412155405314302  C 14.278297454553357 4.38421311143856  10.75261368265931 4.076847747825836  5.85433546931162 1.7296941454065673  Z " fill-rule="nonzero" fill="#545971" stroke="none" transform="matrix(1 0 0 1 184 367 )" />
  </g>
</svg>