<?xml version="1.0" encoding="utf-8"?>
<svg version="1.1" xmlns:xlink="http://www.w3.org/1999/xlink" width="18px" height="5px" xmlns="http://www.w3.org/2000/svg">
  <g transform="matrix(1 0 0 1 -189 -370 )">
    <path d="M 0.8625029896083163 0.3522120673831326  C 0.7806484732214272 -0.05200775675755383  0.09852751398881025 -0.05200775675755383  0.15309720223820875 0.35221206738313  C 0.2622365467625883 1.185915475027386  1.2172059152677832 1.969091393551826  1.8720420463629095 2.449102436569264  C 3.8092656115107926 3.914399324984456  6.3740404476418835 4.545992835361343  8.829675939248599 4.823893981111408  C 11.476305291766584 5.127058856618411  16.6604246842526 5.177586345738226  17.97009691446842 2.2722562690588273  C 18.1338059472422 1.8933001746750742  17.47896981614708 1.7417177369215733  17.315260783373297 2.095410101548391  C 16.30572175859312 4.369146667850903  11.585444636290964 4.4449378867276526  9.320803037569945 4.242827959854338  C 6.94702206235012 4.015454303224089  4.436816882494005 3.459652041329899  2.5268781774580336 2.0954101015483935  C 2.0084662509992 1.7417177369215757  0.9443575379696227 0.8574868697634512  0.8625029896083163 0.3522120673831326  Z " fill-rule="nonzero" fill="#545971" stroke="none" transform="matrix(1 0 0 1 189 370 )" />
  </g>
</svg>