<?xml version="1.0" encoding="utf-8"?>
<svg version="1.1" xmlns:xlink="http://www.w3.org/1999/xlink" width="31px" height="18px" xmlns="http://www.w3.org/2000/svg">
  <g transform="matrix(1 0 0 1 -173 -371 )">
    <path d="M 29.604516707652976 10.612001308044473  C 27.476473080898337 14.26754960758666  22.924075911754667 17.92309787442773  16.35138418182651 17.92309787442773  C 15.704889912274 17.92309787442773  15.058395642721491 17.89519293655984  14.38496409089289 17.81147809025507  L 14.142528739810695 17.783573152387177  C 6.519283821859708 16.97432962720732  2.1823847530892473 11.92353391105298  0.6738981451781232 7.458742086330934  C -0.1072824410535283 5.198441236102027  -0.2150314754565791 2.296326553302812  1.2665178817455571 0.9010791366906468  C 2.0207611857011183 0.20345542838456704  3.475373292194268 -0.35464355788096663  6.222973937792439 0.9847939829954225  C 11.610426194585731 3.5520492805755404  15.570203595594862 3.88690866579464  15.624078128579933 3.88690866579464  C 15.677952661565008 3.88690866579464  20.903781319403073 4.5566274362328345  25.456178456979636 3.0776651406147826  C 28.419277202951008 2.352136461739703  29.73920299276502 3.217189895356443  30.331822760899556 4.0543383584041885  C 31.517062265601528 5.728635284499675  30.816693463063938 8.547035120994115  29.604516707652976 10.612001308044473  Z M 6.061350370404312 1.1522236756049742  C 5.037734433090468 0.6499345977763252  4.067993028761702 0.39879005886200375  3.2598752233881667 0.39879005886200086  C 2.5056319194326053 0.39879005886200086  1.8860749005890813 0.6220296599084373  1.4012041984246983 1.0685088293001954  C 0.3775882611108551 2.0172770765206027  -0.1611569424715018 4.333387835186398  0.8624589632752382 7.375027240026163  C 2.370945602753465 11.756104185742313  6.627032856262759 16.723185088293  14.142528739810695 17.532428613472856  L 14.38496409089289 17.560333551340747  C 21.900459974440825 18.369577076520606  27.072414130860917 14.407074329627212  29.41595585798877 10.444571615434922  C 31.032191531870044 7.681981687377371  30.95137974817598 5.282156082406802  30.14326191123534 4.138053204708962  C 29.335144074294696 2.9939503270111176  27.745845651122412 2.6869958796599085  25.483115739255723 3.2450948332243312  C 20.930718601679164 4.724057128842383  15.704889912274 4.082243296272077  15.543266344885874 4.0543383584041885  C 15.408580028206732 4.0543383584041885  11.448802627197601 3.6915740353172035  6.061350370404312 1.1522236756049742  Z " fill-rule="nonzero" fill="#ba7106" stroke="none" transform="matrix(1 0 0 1 173 371 )" />
  </g>
</svg>