<?xml version="1.0" encoding="utf-8"?>
<svg version="1.1" xmlns:xlink="http://www.w3.org/1999/xlink" width="375px" height="374px" xmlns="http://www.w3.org/2000/svg">
  <defs>
    <mask fill="white" id="clip174">
      <path d="M 0 242.8062827225131  L 23.498694516971277 193.85340314136127  L 94.97389033942558 162  L 135.11749347258487 162  L 194 127.27748691099477  L 194 116.50785340314137  L 242.81984334203656 93.98952879581151  L 290.79634464751956 68.53403141361257  L 344.6475195822454 0  L 375 22.518324607329845  L 369.1253263707572 167.41884816753927  L 361.2924281984334 167.41884816753927  L 375 186.02094240837698  L 339.75195822454305 193.85340314136127  L 328.9817232375979 213.43455497382197  L 339.75195822454305 236.93193717277484  L 321.14882506527414 247.70157068062827  L 316.2532637075718 276  L 339.75195822454305 276  L 316.2532637075718 345.6073298429319  L 321.14882506527414 359.31413612565444  L 308.42036553524804 374  L 290.79634464751956 374  L 274.15143603133157 345.6073298429319  L 257.5065274151436 359.31413612565444  L 230.09138381201043 333.8586387434555  L 211.48825065274153 345.6073298429319  L 171.34464751958225 306.44502617801044  L 152.74151436031332 328.9633507853403  L 135.11749347258487 322.10994764397907  L 122 345.6073298429319  L 122 328.9633507853403  L 75.39164490861619 368.1256544502618  L 15.66579634464752 314.27748691099475  L 0 242.8062827225131  Z " fill-rule="evenodd" />
    </mask>
  </defs>
  <g transform="matrix(1 0 0 1 0 -44 )">
    <path d="M 0 242.8062827225131  L 23.498694516971277 193.85340314136127  L 94.97389033942558 162  L 135.11749347258487 162  L 194 127.27748691099477  L 194 116.50785340314137  L 242.81984334203656 93.98952879581151  L 290.79634464751956 68.53403141361257  L 344.6475195822454 0  L 375 22.518324607329845  L 369.1253263707572 167.41884816753927  L 361.2924281984334 167.41884816753927  L 375 186.02094240837698  L 339.75195822454305 193.85340314136127  L 328.9817232375979 213.43455497382197  L 339.75195822454305 236.93193717277484  L 321.14882506527414 247.70157068062827  L 316.2532637075718 276  L 339.75195822454305 276  L 316.2532637075718 345.6073298429319  L 321.14882506527414 359.31413612565444  L 308.42036553524804 374  L 290.79634464751956 374  L 274.15143603133157 345.6073298429319  L 257.5065274151436 359.31413612565444  L 230.09138381201043 333.8586387434555  L 211.48825065274153 345.6073298429319  L 171.34464751958225 306.44502617801044  L 152.74151436031332 328.9633507853403  L 135.11749347258487 322.10994764397907  L 122 345.6073298429319  L 122 328.9633507853403  L 75.39164490861619 368.1256544502618  L 15.66579634464752 314.27748691099475  L 0 242.8062827225131  Z " fill-rule="nonzero" fill="#ffffff" stroke="none" transform="matrix(1 0 0 1 0 44 )" />
    <path d="M 0 242.8062827225131  L 23.498694516971277 193.85340314136127  L 94.97389033942558 162  L 135.11749347258487 162  L 194 127.27748691099477  L 194 116.50785340314137  L 242.81984334203656 93.98952879581151  L 290.79634464751956 68.53403141361257  L 344.6475195822454 0  L 375 22.518324607329845  L 369.1253263707572 167.41884816753927  L 361.2924281984334 167.41884816753927  L 375 186.02094240837698  L 339.75195822454305 193.85340314136127  L 328.9817232375979 213.43455497382197  L 339.75195822454305 236.93193717277484  L 321.14882506527414 247.70157068062827  L 316.2532637075718 276  L 339.75195822454305 276  L 316.2532637075718 345.6073298429319  L 321.14882506527414 359.31413612565444  L 308.42036553524804 374  L 290.79634464751956 374  L 274.15143603133157 345.6073298429319  L 257.5065274151436 359.31413612565444  L 230.09138381201043 333.8586387434555  L 211.48825065274153 345.6073298429319  L 171.34464751958225 306.44502617801044  L 152.74151436031332 328.9633507853403  L 135.11749347258487 322.10994764397907  L 122 345.6073298429319  L 122 328.9633507853403  L 75.39164490861619 368.1256544502618  L 15.66579634464752 314.27748691099475  L 0 242.8062827225131  Z " stroke-width="2" stroke="#d7d7d7" fill="none" transform="matrix(1 0 0 1 0 44 )" mask="url(#clip174)" />
  </g>
</svg>