<?xml version="1.0" encoding="utf-8"?>
<svg version="1.1" xmlns:xlink="http://www.w3.org/1999/xlink" width="83px" height="90px" xmlns="http://www.w3.org/2000/svg">
  <g transform="matrix(1 0 0 1 -41 -387 )">
    <path d="M 25.05897961819556 37  L 0.3969577494959676 0  L 29.1689890656502 0  L 49.72051019090221 37  L 25.05897961819556 37  Z M 66.18674886487734 65.39337747070311  C 66.18674895203294 51.80357223632812  55.14129804477486 40.78675494140626  41.51596611748151 40.78675494140626  C 27.890716116431456 40.78675494140626  16.845265209173384 51.80348970703125  16.845265209173384 65.39337747070311  C 16.845265209173384 78.98318270507812  27.89071611643145 90  41.51596611748151 90  C 55.14121611853158 90  66.18674886487734 78.983265234375  66.18674886487734 65.39337747070311  Z M 46.79191238239248 68.69990074218751  L 49.50173330498152 78.71244178710937  L 41.36850454469086 72.7010694140625  L 33.08732300277218 78.48661798828125  L 36.04842609417003 68.55210369140624  L 28.22027331989248 62.115257724609364  L 38.18330241200437 61.98603864257812  L 41.62723764385921 52.223018378906254  L 44.823165664902554 62.07752416992188  L 54.77923520980344 62.48062177734376  L 46.79191238239248 68.69990074218751  Z M 41.5 13.176881982421873  L 49.72051019090222 0  L 82.60304225050403 0  L 53.83101093434979 36.895401738281244  L 41.5 13.176881982421873  Z " fill-rule="nonzero" fill="#7f7f7f" stroke="none" transform="matrix(1 0 0 1 41 387 )" />
  </g>
</svg>