<?xml version="1.0" encoding="utf-8"?>
<svg version="1.1" xmlns:xlink="http://www.w3.org/1999/xlink" width="30px" height="8px" xmlns="http://www.w3.org/2000/svg">
  <g transform="matrix(1 0 0 1 -782 -695 )">
    <path d="M 7.016528906250053 4  C 7.016528906250053 2.3264098542275256  5.628981647664918 0.9696969791666561  3.917355362215951 0.9696969791666561  C 2.205729076766829 0.9696969791666561  0.8181818181818492 2.3264098542275256  0.8181818181818492 4  C 0.8181818181818492 5.673590145772475  2.205729076766829 7.030303020833344  3.917355362215951 7.030303020833344  C 5.628981647664918 7.030303020833344  7.016528906250053 5.673590145772475  7.016528906250053 4  Z M 18.0991735440341 4  C 18.0991735440341 2.3264098542275256  16.71162628544912 0.9696969791666561  15 0.9696969791666561  C 13.288373714550879 0.9696969791666561  11.900826455965898 2.3264098542275256  11.900826455965898 4  C 11.900826455965898 5.673590145772475  13.288373714550879 7.030303020833344  15 7.030303020833344  C 16.71162628544912 7.030303020833344  18.0991735440341 5.673590145772475  18.0991735440341 4  Z M 29.18181818181815 4  C 29.18181818181815 2.3264098542275256  27.79427092323317 0.9696969791666561  26.08264463778405 0.9696969791666561  C 24.37101835233493 0.9696969791666561  22.983471093749948 2.3264098542275256  22.983471093749948 4  C 22.983471093749948 5.673590145772475  24.37101835233493 7.030303020833344  26.08264463778405 7.030303020833344  C 27.79427092323317 7.030303020833344  29.18181818181815 5.673590145772475  29.18181818181815 4  Z " fill-rule="nonzero" fill="#aaaaaa" stroke="none" transform="matrix(1 0 0 1 782 695 )" />
  </g>
</svg>