<?xml version="1.0" encoding="utf-8"?>
<svg version="1.1" xmlns:xlink="http://www.w3.org/1999/xlink" width="58px" height="28px" xmlns="http://www.w3.org/2000/svg">
  <defs>
    <mask fill="white" id="clip713">
      <path d="M 0.5 15.5  C 0.5 15.5  7.75000000000017 13.25  10.000000000000085 10  C 12.25 6.75  11.5 2  11.5 2  C 11.5 2  38.64000000000004 -3.1100000000000136  49 7.250000000000001  C 55.160000000000025 13.410000000000082  58 27.75  58 27.75  L 0.5 15.5  Z " fill-rule="evenodd" />
    </mask>
  </defs>
  <g transform="matrix(1 0 0 1 -219 -522 )">
    <path d="M 0.5 15.5  C 0.5 15.5  7.75000000000017 13.25  10.000000000000085 10  C 12.25 6.75  11.5 2  11.5 2  C 11.5 2  38.64000000000004 -3.1100000000000136  49 7.250000000000001  C 55.160000000000025 13.410000000000082  58 27.75  58 27.75  L 0.5 15.5  Z " fill-rule="nonzero" fill="#f59a23" stroke="none" fill-opacity="0.2" transform="matrix(1 0 0 1 219 522 )" />
    <path d="M 0.5 15.5  C 0.5 15.5  7.75000000000017 13.25  10.000000000000085 10  C 12.25 6.75  11.5 2  11.5 2  C 11.5 2  38.64000000000004 -3.1100000000000136  49 7.250000000000001  C 55.160000000000025 13.410000000000082  58 27.75  58 27.75  L 0.5 15.5  Z " stroke-width="2" stroke="#f59a23" fill="none" stroke-opacity="0.2980392156862745" transform="matrix(1 0 0 1 219 522 )" mask="url(#clip713)" />
  </g>
</svg>