<?xml version="1.0" encoding="utf-8"?>
<svg version="1.1" xmlns:xlink="http://www.w3.org/1999/xlink" width="44px" height="44px" xmlns="http://www.w3.org/2000/svg">
  <g transform="matrix(1 0 0 1 -364 -20 )">
    <path d="M 365 42  A 21 21 0 0 1 386 21 A 21 21 0 0 1 407 42 A 21 21 0 0 1 386 63 A 21 21 0 0 1 365 42 Z " fill-rule="nonzero" fill="#333333" stroke="none" fill-opacity="0.2980392156862745" />
    <path d="M 364.5 42  A 21.5 21.5 0 0 1 386 20.5 A 21.5 21.5 0 0 1 407.5 42 A 21.5 21.5 0 0 1 386 63.5 A 21.5 21.5 0 0 1 364.5 42 Z " stroke-width="1" stroke="#333333" fill="none" stroke-opacity="0.4980392156862745" />
  </g>
</svg>