<?xml version="1.0" encoding="utf-8"?>
<svg version="1.1" xmlns:xlink="http://www.w3.org/1999/xlink" width="55px" height="25px" xmlns="http://www.w3.org/2000/svg">
  <defs>
    <mask fill="white" id="clip7287">
      <path d="M 54.5 12  C 54.5 12  48.24999999999983 10.25  45.999999999999915 7.000000000000001  C 43.75 3.75  43.5 1  43.5 1  C 43.5 1  19.25 -2.5  9 9.25  C -1.25 21  0.5 25  0.5 25  L 54.5 12  Z " fill-rule="evenodd" />
    </mask>
  </defs>
  <g transform="matrix(1 0 0 1 -158 -525 )">
    <path d="M 54.5 12  C 54.5 12  48.24999999999983 10.25  45.999999999999915 7.000000000000001  C 43.75 3.75  43.5 1  43.5 1  C 43.5 1  19.25 -2.5  9 9.25  C -1.25 21  0.5 25  0.5 25  L 54.5 12  Z " fill-rule="nonzero" fill="#f59a23" stroke="none" fill-opacity="0.2" transform="matrix(1 0 0 1 158 525 )" />
    <path d="M 54.5 12  C 54.5 12  48.24999999999983 10.25  45.999999999999915 7.000000000000001  C 43.75 3.75  43.5 1  43.5 1  C 43.5 1  19.25 -2.5  9 9.25  C -1.25 21  0.5 25  0.5 25  L 54.5 12  Z " stroke-width="2" stroke="#f59a23" fill="none" stroke-opacity="0.2980392156862745" transform="matrix(1 0 0 1 158 525 )" mask="url(#clip7287)" />
  </g>
</svg>