<?xml version="1.0" encoding="utf-8"?>
<svg version="1.1" xmlns:xlink="http://www.w3.org/1999/xlink" width="44px" height="44px" xmlns="http://www.w3.org/2000/svg">
  <g transform="matrix(1 0 0 1 -20 -20 )">
    <path d="M 21 42  A 21 21 0 0 1 42 21 A 21 21 0 0 1 63 42 A 21 21 0 0 1 42 63 A 21 21 0 0 1 21 42 Z " fill-rule="nonzero" fill="#333333" stroke="none" fill-opacity="0.8" />
    <path d="M 20.5 42  A 21.5 21.5 0 0 1 42 20.5 A 21.5 21.5 0 0 1 63.5 42 A 21.5 21.5 0 0 1 42 63.5 A 21.5 21.5 0 0 1 20.5 42 Z " stroke-width="1" stroke="#333333" fill="none" stroke-opacity="0.8" />
  </g>
</svg>