<?xml version="1.0" encoding="utf-8"?>
<svg version="1.1" xmlns:xlink="http://www.w3.org/1999/xlink" width="38px" height="34px" xmlns="http://www.w3.org/2000/svg">
  <g transform="matrix(1 0 0 1 -195 -732 )">
    <path d="M 37.331599999999995 1.6975999999999978  C 37.331599999999995 0.9248000000000012  36.70439999999999 0.2975999999999992  35.9316 0.29760000000000275  C 35.1588 0.29760000000000275  34.5316 0.9248000000000012  34.5316 1.6976000000000013  L 34.5316 5.819200000000002  C 34.5316 14.331200000000003  27.607199999999995 21.2556  19.095200000000002 21.2556  C 10.583200000000005 21.2556  3.658800000000001 14.331199999999995  3.658800000000001 5.819199999999999  L 3.658800000000001 1.6975999999999978  C 3.658800000000001 0.9248000000000012  3.0316000000000027 0.2975999999999992  2.2588000000000026 0.2975999999999992  C 1.4860000000000007 0.2975999999999992  0.8588000000000022 0.9247999999999976  0.8588000000000022 1.6975999999999978  L 0.8588000000000022 5.819199999999999  C 0.8588000000000022 15.403599999999997  8.292800000000003 23.2772  17.6952 23.9968  L 17.6952 30.8932  L 10.488 30.8932  C 9.7152 30.8932  9.087999999999997 31.520400000000002  9.087999999999997 32.2932  C 9.087999999999997 33.066  9.715199999999998 33.693200000000004  10.488 33.693200000000004  L 27.702399999999997 33.693200000000004  C 28.4752 33.693200000000004  29.102400000000003 33.066  29.102400000000003 32.2932  C 29.102400000000003 31.520400000000002  28.4752 30.8932  27.702399999999997 30.8932  L 20.495199999999997 30.8932  L 20.495199999999997 23.9968  C 29.897599999999997 23.28  37.331599999999995 15.403600000000004  37.331599999999995 5.819200000000002  L 37.331599999999995 1.6975999999999978  Z " fill-rule="nonzero" fill="#44454a" stroke="none" transform="matrix(1 0 0 1 195 732 )" />
  </g>
</svg>