<?xml version="1.0" encoding="utf-8"?>
<svg version="1.1" xmlns:xlink="http://www.w3.org/1999/xlink" width="13px" height="7px" xmlns="http://www.w3.org/2000/svg">
  <g transform="matrix(1 0 0 1 -192 -367 )">
    <path d="M 12.811133359580989 6.151915494271249  C 12.705251905937933 6.258023190336617  12.017022379708168 6.815088649080737  9.396456146127873 6.81508868016698  C 8.655285908586563 6.81508868016698  7.728823088394955 6.7620348165911714  6.643538072228781 6.655927120525803  C 1.6406388990300271 6.125388578026467  0.3435909755777442 4.560299928945735  0.2906502332462355 4.507246065369927  L 0.15829842394740629 4.348084505728751  L 0.2377095219346867 4.162395998756551  C 1.296524151425123 1.4831764011013409  4.10238296765572 -0.18801997513100432  7.0405935621651885 0.10377622790656224  C 10.137626383669177 0.42209934718891395  12.599370421274916 2.862576605382362  12.917014813224043 5.886646238564703  L 12.943485199899778 6.04580779820588  L 12.811133359580989 6.151915494271249  Z M 6.987652850853644 0.7404224664712684  C 4.393556972929116 0.5016801270095033  1.9582833219991171 1.9076072475353065  0.952409403820224 4.188922946087576  C 1.375935249412406 4.5602999289457316  2.8847461111707613 5.568323119282352  6.722949170216061 5.96622701838529  C 10.428800419962531 6.364130917488229  11.831729797057871 5.913173154809483  12.255255673670018 5.727484678923528  C 11.88467053938938 3.101318944844124  9.714100538077 1.032218669508838  6.987652850853644 0.7404224664712684  Z " fill-rule="nonzero" fill="#545971" stroke="none" transform="matrix(1 0 0 1 192 367 )" />
  </g>
</svg>