<?xml version="1.0" encoding="utf-8"?>
<svg version="1.1" xmlns:xlink="http://www.w3.org/1999/xlink" width="23px" height="33px" xmlns="http://www.w3.org/2000/svg">
  <g transform="matrix(1 0 0 1 -203 -716 )">
    <path d="M 0 22.172  C 0.06320000000000903 27.9512  4.764400000000009 32.6524  10.543600000000001 32.6524  L 11.646800000000004 32.6524  C 17.426000000000002 32.6524  22.127200000000002 27.951200000000004  22.127200000000002 22.174800000000005  L 22.127200000000002 21.799600000000005  C 22.127200000000002 21.026800000000005  21.500000000000007 20.399600000000003  20.727200000000003 20.399600000000003  C 19.9544 20.399600000000003  19.327200000000005 21.0268  19.327200000000005 21.799600000000005  L 19.327200000000005 22.174800000000005  C 19.327200000000005 26.4084  15.883200000000002 29.852400000000003  11.646800000000004 29.852400000000003  L 10.543600000000005 29.852400000000003  C 6.310000000000002 29.852400000000003  2.8632000000000026 26.408400000000007  2.8632000000000026 22.174800000000005  L 2.8632000000000026 17  L 19.372000000000007 17  C 19.526000000000003 17.885199999999998  20.069200000000002 18.336  20.724400000000003 18.336  C 21.497200000000007 18.336  22.12440000000001 17.7088  22.12440000000001 16.936  L 22.12440000000001 15.255999999999997  C 22.12440000000001 14.4832  21.497200000000007 13.855999999999995  20.724400000000003 13.855999999999995  C 20.240000000000002 13.855999999999995  19.814400000000006 14.102399999999996  19.562400000000004 15  L 2.863199999999999 15  L 2.863199999999999 11.1736  C 2.863199999999999 6.724399999999999  6.480800000000003 3.106799999999999  10.93 3.106799999999999  L 11.257600000000004 3.106799999999999  C 15.611600000000003 3.106799999999999  19.153600000000004 6.511599999999998  19.318800000000003 10.859999999999998  C 19.34960000000001 11.6328  19.999200000000002 12.240399999999998  20.772000000000006 12.203999999999997  C 21.52313374198239 12.174948219874095  22.11708478389164 11.55758070263053  22.11708478389164 10.805885349263932  C 22.11708478389164 10.787518225917335  22.11672311916044 10.76915288311707  22.116000000000014 10.7508  C 21.907974095362462 4.909229580172244  17.102846318965703 0.2862456364547845  11.25760000000001 0.3039999999999985  L 10.930000000000007 0.3039999999999985  C 4.9380000000000095 0.3039999999999985  0.06320000000000903 5.178799999999997  0 11.1708  L 0 22.172  Z " fill-rule="nonzero" fill="#44454a" stroke="none" transform="matrix(1 0 0 1 203 716 )" />
  </g>
</svg>