<?xml version="1.0" encoding="utf-8"?>
<svg version="1.1" xmlns:xlink="http://www.w3.org/1999/xlink" width="5px" height="6px" xmlns="http://www.w3.org/2000/svg">
  <g transform="matrix(1 0 0 1 -186 -369 )">
    <path d="M 1.8596337699071506 0.10926258992805771  C 2.7516381049006955 0.21158072541966622  3.381288230953699 1.0045463729016806  3.3025819651970725 1.848671073141487  C 3.197640287769782 2.718375299760191  2.41057763020353 3.3322841726618693  1.5185732952099849 3.255545563549161  C 0.6265689602164425 3.1532274280575523  -0.003081165836562423 2.385841336930457  0.07562506917542815 1.5161370803357315  C 0.18056674660271754 0.6464328537170276  0.9676294041689705 0.032523980815346576  1.8596337699071506 0.10926258992805771  Z M 2.594225573387442 3.9461930455635477  C 3.1451694336838214 4.022931654676256  3.5387007624669478 4.483363309352515  3.459994496710323 4.9949540467625875  C 3.4075236426243602 5.506544784172663  2.935286048084608 5.89023782973621  2.384342218532866 5.839078747002397  C 1.8596337699071506 5.787919664268583  1.466102441124022 5.327488009592321  1.5185732952099849 4.790317745803354  C 1.5710441492959448 4.278727008393282  2.0432817438356974 3.895033962829734  2.594225573387442 3.9461930455635477  Z M 4.37823427411917 3.0253297362110354  C 4.693059337145672 3.050909262589933  4.902942722744886 3.3067046462829772  4.876707280329583 3.6136590827338138  C 4.85047186865892 3.920613519184653  4.561882217303079 4.125249820143886  4.273292596691877 4.09967026378897  C 3.9584675336653747 4.0740907374100725  3.7485841480661635 3.7927158273381307  3.774819559736828 3.511340917266189  C 3.8010549714074915 3.2043864808153497  4.089644622763327 2.9997501798561164  4.37823427411917 3.0253297362110354  Z " fill-rule="nonzero" fill="#fff9bb" stroke="none" transform="matrix(1 0 0 1 186 369 )" />
  </g>
</svg>