<?xml version="1.0" encoding="utf-8"?>
<svg version="1.1" xmlns:xlink="http://www.w3.org/1999/xlink" width="28px" height="16px" xmlns="http://www.w3.org/2000/svg">
  <g transform="matrix(1 0 0 1 -184 -367 )">
    <path d="M 26.68205823592873 9.356301614708233  C 24.785475724595138 12.630482270183853  20.67176157815006 15.877378097521984  14.76831462829736 15.877378097521978  C 14.180641187749103 15.877378097521978  13.592967715897212 15.850093269384491  12.978581856193367 15.768238752997599  L 12.738169989882222 15.768238752997599  C 5.846363155629339 15.031548105515588  1.9463484250361944 10.5568345323741  0.5840145159396948 6.573248057553959  C -0.1105086638381618 4.554169976019187  -0.2173583717641292 1.962110311750601  1.1182631181767855 0.7342925659472428  C 1.7860738474954272 0.1067412629896097  3.1216953374363423 -0.384385835331733  5.6059512893181935 0.8161470823341347  C 10.467613485155928 3.1080735411670672  14.047079029363918 3.3809219184652277  14.0737914485195 3.3809219184652277  C 14.127216318134302 3.3809219184652277  18.855316355586858 3.98118836131095  22.94231808287635 2.6442312709832123  C 25.61356103145455 1.9893951398880887  26.815620363010282 2.7533706155075945  27.349868965247378 3.517346123101518  C 28.41836613841793 5.018012246203037  27.77726782825487 7.528217426059152  26.68205823592873 9.356301614708233  Z M 5.4991015500886 1.0071409432454062  C 4.537454084844012 0.5432986730615539  3.6826563275253936 0.29773512390088397  2.934708309436367 0.2977351558753014  C 2.266897580117724 0.2977351558753014  1.7059365587250463 0.4887290167865729  1.251825245258338 0.8980015987210237  C -0.003658955912194407 2.0712496562749805  0.10319078331740263 4.554170007993605  0.7710015126360444 6.518678401278976  C 2.1066230025769594 10.42041035971223  5.979925282710893 14.840554244604316  12.764882409037803 15.549960031974422  L 12.978581856193367 15.57724486011191  C 19.763538982520274 16.286650679456436  24.41150173120245 12.794191302957637  26.521783658387974 9.247162270183855  C 27.56356841240294 7.473647737809753  28.177954303410413 5.0725819344524385  27.189594387706613 3.6537703277378113  C 26.46835878877318 2.6442313029576354  25.025887590906294 2.371382893685052  22.995742952491153 2.862509992006397  C 18.882028806046073 4.1721822541966445  14.180641187749103 3.59920063948841  14.047079029363925 3.59920063948841  C 13.913516870978743 3.59920063948841  10.334051326770751 3.271782573940848  5.4991015500886 1.0071409432454062  Z " fill-rule="nonzero" fill="#ba7106" stroke="none" transform="matrix(1 0 0 1 184 367 )" />
  </g>
</svg>