<?xml version="1.0" encoding="utf-8"?>
<svg version="1.1" xmlns:xlink="http://www.w3.org/1999/xlink" width="13px" height="7px" xmlns="http://www.w3.org/2000/svg">
  <g transform="matrix(1 0 0 1 -192 -368 )">
    <path d="M 12.839138249400474 6.223648521183054  C 12.811427095823337 6.251735844265765  12.146359150179851 6.813482536323884  9.430665027977618 6.813482536323884  C 8.65475243555156 6.813482536323884  7.7125728242406035 6.757307857243614  6.5764151054156645 6.64495853199793  C 1.449849680255792 6.111299195937367  0.14742497501998164 4.510321154840834  0.09200263539168341 4.4541464757605675  L 0.064291449340524 4.397971829595149  L 0.09200263539168341 4.341797150514882  C 1.172738047062345 1.5892384022194017  3.999276816047156 -0.12408896412281849  6.964371385391681 0.21295904452908337  C 10.095732973621097 0.5500070531809853  12.589737769784168 3.021692438989986  12.894560589028774 6.139386519020077  L 12.894560589028774 6.195561198100343  L 12.839138249400474 6.223648521183054  Z M 6.908949078237409 0.4095703719377422  C 4.054699155675457 0.12869704236610643  1.3667161870503608 1.7296750834626418  0.28598077537969346 4.341797150514882  C 0.5353812549959989 4.594583157003807  2.0594952862709817 5.942775191611415  6.5764151054156645 6.420259881506556  C 11.037912584932052 6.897744571401699  12.395759629796164 6.223648554097895  12.645160109412469 6.0551245168570995  C 12.312626136590726 3.105954441152957  9.901754833633092 0.7185310575069332  6.908949078237409 0.4095703719377422  Z " fill-rule="nonzero" fill="#ba7106" stroke="none" transform="matrix(1 0 0 1 192 368 )" />
  </g>
</svg>