<?xml version="1.0" encoding="utf-8"?>
<svg version="1.1" xmlns:xlink="http://www.w3.org/1999/xlink" width="4px" height="3px" xmlns="http://www.w3.org/2000/svg">
  <g transform="matrix(1 0 0 1 -195 -369 )">
    <path d="M 1.419870439648281 0.18305354573484017  C 2.129276258992806 0.24152106885919875  2.620403357314146 0.9138974306269267  2.565833669064747 1.6739750942103466  C 2.4839791526778585 2.434052757793766  1.8564278497202253 2.9602603631380617  1.174306890487611 2.9017928400137034  C 0.464901071143089 2.814091572456322  -0.02622602717825657 2.141715176430287  0.028343661071141925 1.4108712915382  C 0.11019817745803095 0.6507936279547804  0.7377494804156697 0.12458602261048465  1.419870439648281 0.18305354573484017  Z M 3.3298091446842504 1.2647025351147647  C 3.6572272102318153 1.2939362795477902  3.8755059312549975 1.5862738609112697  3.820936243005593 1.90784515244947  C 3.7936514148681058 2.229416478245975  3.520803005595525 2.4632865022267882  3.220669800159871 2.434052757793766  C 2.9205365627498 2.4048190133607403  2.7022578737010376 2.112481431997261  2.729542701838528 1.7909101404590633  C 2.756827529976019 1.4693388146625557  3.0296759392485995 1.2354687906817423  3.3298091446842504 1.2647025351147647  Z " fill-rule="nonzero" fill="#fff9bb" stroke="none" transform="matrix(1 0 0 1 195 369 )" />
  </g>
</svg>