<?xml version="1.0" encoding="utf-8"?>
<svg version="1.1" xmlns:xlink="http://www.w3.org/1999/xlink" width="6px" height="7px" xmlns="http://www.w3.org/2000/svg">
  <g transform="matrix(1 0 0 1 -175 -372 )">
    <path d="M 2.1839596094552913 0.1724486970423669  C 3.265608564576908 0.2815880415667493  4.0549199725933525 1.181987721822543  3.937984960602946 2.191526778577136  C 3.821049948612538 3.201065803357315  2.8563360054813285 3.937756450839328  1.7746870503597112 3.8286171063149483  C 0.6930380952380939 3.7194777617905688  -0.0962733127783493 2.819078081534772  0.020661699212058134 1.809539024780176  C 0.13759671120246597 0.7999999999999999  1.1023106543336754 0.06330935251798736  2.1839596094552913 0.1724486970423669  Z M 3.1194398081534773 4.674447098321346  C 3.7625824254881817 4.729016786570748  4.230322541966427 5.274713541167069  4.171855018842068 5.8749800159872105  C 4.113387495717711 6.47524645883293  3.5287124015073648 6.939088729016782  2.8563360054813285 6.857234212629896  C 2.2131933881466255 6.802664524380498  1.7454532716683793 6.256967769784175  1.803920794792737 5.656701294964032  C 1.8623883179170946 5.05643485211831  2.447063412127441 4.592592581934458  3.1194398081534773 4.674447098321346  Z M 5.282737752655018 3.555768729016785  C 5.662776567317574 3.583053557154275  5.925880369989722 3.9104716227018375  5.896646625556697 4.2378896882494  C 5.8674128811236725 4.592592581934451  5.516607810894142 4.838156131095121  5.136568961973278 4.810871302957631  C 4.756530147310722 4.78358647482014  4.493426344638575 4.456168409272578  4.522660089071599 4.128750343725017  C 4.551893833504624 3.774047450039964  4.902698903734155 3.5284839008792943  5.282737752655018 3.555768729016785  Z " fill-rule="nonzero" fill="#fff9bb" stroke="none" transform="matrix(1 0 0 1 175 372 )" />
  </g>
</svg>