<?xml version="1.0" encoding="utf-8"?>
<svg version="1.1" xmlns:xlink="http://www.w3.org/1999/xlink" width="7px" height="4px" xmlns="http://www.w3.org/2000/svg">
  <g transform="matrix(1 0 0 1 -178 -359 )">
    <path d="M 6.787256530775381 3.6120997938491333  C 6.650832326139091 3.6982624426774375  6.241559744204638 3.9854712608860288  4.9591723421262985 3.9854712608860288  C 4.577184588329336 3.9854712608860288  4.113342350119904 3.956750389162356  3.54036070343725 3.899308612057723  C 1.0028706954436444 3.6120997938491333  0.32074973621103164 2.7791941772897486  0.23889521982414053 2.693031528461443  L 0.12975587529976024 2.5207062308048314  L 0.2116103916866514 2.3483809331482197  C 0.7845920063948839 0.8548950313433465  2.2579733013589136 -0.06417323404434234  3.7859242525979213 0.10815206361226914  C 5.423014580335731 0.2804773612688806  6.732686842525981 1.6303588707980996  6.896395875299761 3.3248909756405416  L 6.923680735411672 3.4972162732971532  L 6.787256530775381 3.6120997938491333  Z M 3.7313545963229404 0.7974532542387158  C 2.5581065387689836 0.6825697336867366  1.4394281374900069 1.314429147208551  0.9210161790567539 2.3771018385291787  C 1.221149416466826 2.5781480079094643  1.9578400639488407 3.0089612520509914  3.62221521982414 3.1812865497076044  C 5.1774510311750594 3.353611847364216  5.886856850519584 3.210007421431277  6.186990087929655 3.1238447726029714  C 5.968711366906474 1.8888468172830184  4.9591723421262985 0.9410576801716538  3.7313545963229404 0.7974532542387158  Z " fill-rule="nonzero" fill="#545971" stroke="none" transform="matrix(1 0 0 1 178 359 )" />
  </g>
</svg>