<?xml version="1.0" encoding="utf-8"?>
<svg version="1.1" xmlns:xlink="http://www.w3.org/1999/xlink" width="14px" height="8px" xmlns="http://www.w3.org/2000/svg">
  <g transform="matrix(1 0 0 1 -174 -359 )">
    <path d="M 13.271839479402393 4.7684518944844125  C 12.303419848909606 6.3782573940847325  10.285878952049629 7.988062861710631  7.3537195257878185 7.9880628936850515  C 7.057813517073663 7.9880628936850515  6.788808074667026 7.960778065547561  6.466001531169429 7.93349320543565  L 6.358399328987514 7.93349320543565  C 2.9689306222627536 7.5787903117506  1.0589918960606166 5.368718369304557  0.3595777394985424 3.4314948041566753  C 0.009870661217505192 2.421955779376499  -0.04393043987345299 1.139568345323741  0.6285831819051803 0.539301902478018  C 1.0051908264937348 0.21188383693045623  1.677704448272368 -0.060964540367704954  2.915129552695871 0.539301902478018  C 5.282377527836886 1.6306954436450838  7.030912982290225 1.7944044764188647  7.030912982290225 1.7944044764188647  C 7.057813517073667 1.7944044764188647  9.344359887864357 2.094537713828937  11.361900753200256 1.4397015827338122  C 12.706928028281602 1.112283517186252  13.325640548969275 1.4942712709832136  13.594646022899989 1.8762589928057565  C 14.132656939237343 2.6129496402877708  13.809850395739746 3.868052214228618  13.271839479402393 4.7684518944844125  Z M 2.8075273505139537 0.7575805915267779  C 2.350218070051 0.5120170423661066  1.919809355895564 0.4028776978417262  1.5701022776145275 0.40287769784172694  C 1.2472957341169315 0.40287769784172694  0.9782902917102931 0.4847322142286174  0.7899864536539778 0.6757260751398888  C 0.27887610362414245 1.139568345323741  0.1981744677497434 2.2309618864908076  0.5747821123382976 3.349640287769785  C 1.2203951993334903 5.232294164668265  3.1034333592281107 7.360511590727418  6.385299895295031 7.715214484412468  L 6.49290206595287 7.715214484412468  C 9.77476860201979 8.06991737809752  12.061314941286405 6.378257394084732  13.08353567287015 4.659312549960032  C 13.675347658774383 3.6497735251798558  13.809850395739744 2.5856648121502785  13.406342216367747 2.0126831974420467  C 13.08353567287015 1.5488409272581933  12.384121484783998 1.412416754596323  11.415701854291212 1.6579802717825742  C 9.398160957431237 2.312816402877698  7.111614618164621 2.0126831654676267  7.0040124159827055 2.0126831974420467  C 6.923310780108306 2.0126831974420467  5.1747753256549665 1.848974164668266  2.8075273505139537 0.7575805915267779  Z " fill-rule="nonzero" fill="#ba7106" stroke="none" transform="matrix(1 0 0 1 174 359 )" />
  </g>
</svg>