<?xml version="1.0" encoding="utf-8"?>
<svg version="1.1" xmlns:xlink="http://www.w3.org/1999/xlink" width="15px" height="8px" xmlns="http://www.w3.org/2000/svg">
  <g transform="matrix(1 0 0 1 -174 -359 )">
    <path d="M 14.288014454190073 4.809815629401243  C 13.250816825991262 6.394934855924784  11.036259682664827 7.980054051996498  7.868602049866954 7.980054051996498  C 7.560245984034689 7.980054051996498  7.2518899510528545 7.954068501389364  6.915501494694655 7.928082920330401  L 6.803372031142209 7.928082920330401  C 3.1311317302322528 7.564285059571391  1.0567364738346312 5.381497955920978  0.2998625209421507 3.4585664801492157  C -0.09259065076705711 2.419144059990105  -0.12062300844256071 1.0678948802862491  0.6642833021254234 0.39227032088614944  C 1.1128011891856382 0.028472460127138294  1.9257398902795573 -0.2573686879068157  3.3553906901875754 0.3662847398271868  C 5.766174402943398 1.405707159986299  7.5322136263591855 1.5356349739256232  7.560245984034689 1.5356349739256232  L 7.588278341710192 1.5356349739256232  C 7.616310699385696 1.5356349739256232  9.942997306264578 1.7954905713524427  11.96132784731119 1.2238082448327072  L 11.98936023783713 1.2238082448327072  C 13.531140501297592 0.8859959651326573  14.25998209651457 1.3277504777130686  14.596370520022338 1.7435194701381764  C 15.241114976511941 2.549071843477599  14.90472655300417 3.874335442122493  14.288014454190073 4.809815629401243  Z M 2.990969909004303 1.0678948802862478  C 2.654581485496534 0.9119815157397898  2.234095956111823 0.7820537018004656  1.8416427844026142 0.7820537322522945  C 1.6173838244472911 0.7820537322522945  1.3931248973423993 0.8340248639183896  1.224930685588515 0.9639526474058849  C 0.7764127985282997 1.3277505081648975  0.720348050326861 2.2632306954436454  1.0847688315101336 3.198710882722395  C 1.7295133208501683 4.913757892733433  3.607682007818402 6.836689398957025  6.887469137019151 7.1745016786570766  L 6.999598600571596 7.1745016786570766  C 10.279385729772345 7.486328407749992  12.550007588449786 5.953180312892544  13.559172858973096 4.394046667427964  C 14.119820242436186 3.5625087130295774  14.259982063664134 2.6270285257508292  13.923593673006799 2.185274013170418  C 13.587205282349467 1.7435195005900066  12.77426654840511 1.8214761524114054  12.185586807266516 1.9514039663507294  C 10.055126802667454 2.5750574245365616  7.7004078381130725 2.315201827109742  7.476148878157747 2.2892162460507794  C 7.307954666403862 2.2632306954436454  5.4858506947866355 2.1073173308971875  2.990969909004303 1.0678948802862478  Z " fill-rule="nonzero" fill="#545971" stroke="none" transform="matrix(1 0 0 1 174 359 )" />
  </g>
</svg>