<?xml version="1.0" encoding="utf-8"?>
<svg version="1.1" xmlns:xlink="http://www.w3.org/1999/xlink" width="20px" height="6px" xmlns="http://www.w3.org/2000/svg">
  <g transform="matrix(1 0 0 1 -178 -373 )">
    <path d="M 0.7930554465518482 0.43629096722621913  C 0.7379345493302308 0.027018385291765416  0.04892347939829876 0.027018385291765416  0.10404437661991556 0.46357579536370963  C 0.21428613876575422 1.4185451638689046  1.3167038894137206 2.373514500399682  2.0057149593456542 2.919211286970423  C 4.2381108608063025 4.692725819344525  7.187078296958392 5.456701294964029  9.97068304144563 5.7568345323741  C 12.864529580376104 6.084252597921662  18.431739101647974 6.084252597921662  19.809761273809233 2.7282174260591514  C 19.97512393317669 2.318944844124701  19.313673295706867 2.15523581135092  19.14831063633941 2.5372235651478805  C 18.04589291798884 5.211137777777776  12.94721091005983 5.347561950439646  10.439210587085885 5.129283229416467  C 7.793408037206595 4.911004508393282  4.954682395497742 4.22888354916067  2.777407358961314 2.6463629096722627  C 2.1710776187131082 2.2098054996003214  0.8757367762355761 1.1184119264588332  0.7930554465518482 0.43629096722621913  Z " fill-rule="nonzero" fill="#545971" stroke="none" transform="matrix(1 0 0 1 178 373 )" />
  </g>
</svg>