<?xml version="1.0" encoding="utf-8"?>
<svg version="1.1" xmlns:xlink="http://www.w3.org/1999/xlink" width="7px" height="3px" xmlns="http://www.w3.org/2000/svg">
  <g transform="matrix(1 0 0 1 -178 -359 )">
    <path d="M 6.783914952886173 2.706869798279023  C 6.754976498800956 2.7550195232049655  6.407714914129301 2.9716932430526164  5.047607029527892 2.9716932430526177  C 4.642468502773538 2.9716932430526177  4.179453067848751 2.9476183946960086  3.5717452946733523 2.8994686697700662  C 0.9383449555507108 2.682794949922416  0.2727602402926143 1.9846240654535192  0.2438217522951324 1.960549217096911  L 0.18594484412469867 1.936474340527579  L 0.21488329820991517 1.8883246438143608  C 0.7647141293026171 0.7327314712935542  2.2405758641571576 0.010485738468049611  3.7743145410943946 0.13086000846381798  C 5.394868614199547 0.2753091550289188  6.668161068720778 1.3346029059105669  6.841791861056606 2.634645224996474  L 6.841791861056606 2.682794949922416  L 6.783914952886173 2.706869798279023  Z M 3.7453760870091806 0.29938403159825056  C 2.3563297483225547 0.20308460995909217  0.9962218637211452 0.8290308929327126  0.47532948671365977 1.8883246438143608  C 0.648960279049488 2.032773790379461  1.4592372986459314 2.538345803357314  3.600683748758569 2.706869798279023  C 5.68425325678851 2.8994686697700662  6.43665336821452 2.658720073353082  6.610284160550349 2.5864955000705314  C 6.43665336821452 1.3827526026237829  5.250176275948937 0.4438331499506276  3.7453760870091806 0.29938403159825056  Z " fill-rule="nonzero" fill="#ba7106" stroke="none" transform="matrix(1 0 0 1 178 359 )" />
  </g>
</svg>