<?xml version="1.0" encoding="utf-8"?>
<svg version="1.1" xmlns:xlink="http://www.w3.org/1999/xlink" width="32px" height="18px" xmlns="http://www.w3.org/2000/svg">
  <g transform="matrix(1 0 0 1 -173 -371 )">
    <path d="M 30.459358881782933 10.549819495612304  C 28.222002158922496 14.192795224918967  23.52900996485994 17.80878595936438  16.762370109193217 17.808785927741326  C 16.107533992065832 17.808785927741326  15.425413047382943 17.781800932880067  14.716007243170132 17.700845916673256  L 14.470443699247364 17.673860921812  C 6.6124102937187175 16.864310759743855  2.1376968160234315 11.899069776266897  0.5824610378458852 7.500513874614597  C -0.23608410856334888 5.2067884259625306  -0.3452234507597734 2.265422816032893  1.2645819825287736 0.8352175507945353  C 2.083127128938008 0.10662240493320121  3.6929325942009745 -0.4870477033757549  6.612410293718716 0.8622025456557896  C 12.042093087575163 3.3448230532057934  15.998394649869406 3.6416580915487446  16.025679477424905 3.6416580915487446  L 16.05296430498041 3.6416580915487446  C 16.10753399206583 3.6416580915487446  21.346222929084927 4.289298221203262  25.902790889446717 2.8590929559649023  L 25.930075748976638 2.8590929559649023  C 29.067832132887226 2.130497810103571  30.51392856886835 3.0210029883785317  31.16876468599574 3.911508166653495  C 32.42386723316508 5.638548501857858  31.714461460926703 8.49895909558068  30.459358881782933 10.549819495612304  Z M 6.284992235155022 1.6177826863783724  C 5.220883544823017 1.1050675942762296  4.293199056217359 0.862202545655784  3.5019387373636266 0.862202545655784  C 2.8198177926807384 0.862202545655784  2.2468361901942746 1.0510975729306677  1.8102787574597365 1.4558726539647429  C 0.6916003800423102 2.4543178433077713  0.500606523204962 4.855983334650961  1.3464364971696974 7.257648825994152  C 2.8198177607063184 11.413339647402957  7.076252522034336 16.13571561388252  14.579583041443788 16.891295754605107  L 14.825146585366557 16.918280749466366  C 22.30119224524609 17.67386089018895  27.458026667624264 13.94993014467547  29.77723793710004 10.172029409439485  C 31.114194998910317 7.986243971855483  31.441613057474004 5.6115635069966  30.54121339642385 4.397238263894381  C 29.804522764655538 3.3987930745513464  28.303856673563416 3.1289429994465965  26.14835443336949 3.6416580915487393  C 21.482647098836857 5.098848383271408  16.32581267645868 4.478193248478144  15.971109790339483 4.4512082536168895  C 15.670976559331292 4.424223258755635  11.741959856566966 4.100403193928373  6.284992235155022 1.6177826863783724  Z " fill-rule="nonzero" fill="#545971" stroke="none" transform="matrix(1 0 0 1 173 371 )" />
  </g>
</svg>