<?xml version="1.0" encoding="utf-8"?>
<svg version="1.1" xmlns:xlink="http://www.w3.org/1999/xlink" width="14px" height="7px" xmlns="http://www.w3.org/2000/svg">
  <g transform="matrix(1 0 0 1 -182 -371 )">
    <path d="M 13.810331414868102 6.2770894395594645  C 13.810331414868102 6.356670219380048  13.07364076738609 6.940262594368951  10.154163005595521 6.940262594368951  C 9.308333013589124 6.940262594368951  8.29879395683453 6.887208730793144  7.043691382893685 6.754574118482992  C 1.5048690967226193 6.197508659738878  0.08605749000799108 4.552839199751309  0.03148780175859116 4.473258419930723  L 0.004202973621100625 4.420204587441159  L 0.03148780175859116 4.36715072386535  C 1.2047358912869697 1.5022426503241855  4.260637825739408 -0.24853450572874933  7.452963964828134 0.06978861355360244  C 10.836283964828135 0.4146386490807339  13.537483005595522 2.987750550670575  13.864901071143084 6.197508659738872  L 13.864901071143084 6.250562523314683  L 13.810331414868102 6.2770894395594645  Z M 7.425679136690646 0.2820040367705824  C 4.342492342126297 -0.009792166266986868  1.3957297521982397 1.6879311262101435  0.24976652278177197 4.393677640110136  C 0.5226149000799353 4.6589468958166815  2.132420399680254 6.0383471000977025  7.070976211031174 6.542358695266012  C 11.927677505995202 7.0463702904343215  13.37377397282174 6.33014327204903  13.646622382094321 6.170981743494096  C 13.291919456434849 3.0938582467359446  10.672574932054355 0.6268540722977167  7.425679136690646 0.2820040367705824  Z " fill-rule="nonzero" fill="#ba7106" stroke="none" transform="matrix(1 0 0 1 182 371 )" />
  </g>
</svg>