<?xml version="1.0" encoding="utf-8"?>
<svg version="1.1" xmlns:xlink="http://www.w3.org/1999/xlink" width="6px" height="4px" xmlns="http://www.w3.org/2000/svg">
  <g transform="matrix(1 0 0 1 -183 -372 )">
    <path d="M 3.314141904540882 0.1317249327810466  C 4.079877713313218 0.20613812949640026  4.607971346793532 0.8262480924351404  4.528757329620174 1.5207712520892367  C 4.449543281503828 2.2152944117433306  3.789426224181943 2.736186788750814  3.0500950878007247 2.6617736211031153  C 2.3107639514195064 2.587360453455419  1.7562656455480763 1.9672504614490214  1.8354796936644218 1.27272727272727  C 1.9146937417807672 0.5782041130731763  2.5748107991026505 0.05731173606569035  3.314141904540882 0.1317249327810466  Z M 5.373707155565867 1.148705268512466  C 5.69056334803125 1.1735096577283664  5.928205492380289 1.446358055373883  5.901800819989169 1.744010842235303  C 5.875396147598048 2.041663629096723  5.584944627523786 2.2649032192427865  5.268088435058404 2.240098830026891  C 4.951232242593021 2.215294440810993  4.713590098243984 1.9424460431654686  4.7399947706351035 1.6447932563040488  C 4.766399443026223 1.347140469442629  5.056850963100485 1.1239008792965655  5.373707155565867 1.148705268512466  Z M 0.6472689719192377 1.9176416539495655  C 0.9905298367757386 1.9176416539495655  1.2281719811247753 2.1904900515950847  1.1753626053995496 2.5129472276724054  C 1.1489579330084296 2.8106000145338275  0.8585064129341673 3.033839604679891  0.5416502204687849 3.0090351863963387  C 0.22479402800340242 2.984230797180438  -0.012848116345635718 2.711382399534919  0.013556586988472886 2.4137296126734964  C 0.03996129032258011 2.1160768258120766  0.3304127794538553 1.8928372356660128  0.6472689719192377 1.9176416539495655  Z M 2.5220014233774264 3.058643993895794  C 2.7596435367834773 3.0834483831116923  2.9180716639591555 3.2818835840418576  2.891666991568036 3.4803187849720234  C 2.8652623191769155 3.703558375118087  2.6540248472189973 3.852384768548797  2.4427873752610822 3.827580350265244  C 2.231549903303164 3.802775931981692  2.0467171346793522 3.6043407601191806  2.07312183801346 3.40590558825667  C 2.09952651040458 3.1826659981106062  2.284359309971377 3.0338396046798963  2.5220014233774264 3.058643993895794  Z " fill-rule="nonzero" fill="#fff9bb" stroke="none" transform="matrix(1 0 0 1 183 372 )" />
  </g>
</svg>