<?xml version="1.0" encoding="utf-8"?>
<svg version="1.1" xmlns:xlink="http://www.w3.org/1999/xlink" width="15px" height="8px" xmlns="http://www.w3.org/2000/svg">
  <g transform="matrix(1 0 0 1 -181 -371 )">
    <path d="M 14.823914490325546 7.200147574248289  C 14.683752636247165 7.284100924388688  13.870813968003679 7.927743286396522  10.843318156433755 7.927743286396522  C 9.974314739988825 7.927743286396522  8.909084721264081 7.871774375371495  7.647628133109949 7.731852114206069  C 1.844927827600931 7.1441786632232676  0.33117992181596934 5.32518939924983  0.2751151736145311 5.241236081903705  L 0.16298571006208487 5.101313820738278  L 0.24708281593902712 4.9054226813421  C 1.4805070464176582 1.7991487261472814  4.732261785092473 -0.13177832708192794  8.124178410696098 0.23201951259504883  C 11.712321605729112 0.5958173522720227  14.571623205545148 3.4222468179302665  14.936043986728421 6.920303084711714  L 14.964076344403926 7.0882097849925145  L 14.823914490325546 7.200147574248289  Z M 8.040081304819154 0.9036463137182525  C 5.012585493249234 0.5958173522720256  2.1532838934331946 2.24689991596466  0.9759244111560048 4.933407120457478  C 1.4524746887421545 5.353173871159479  3.1904815216320057 6.55650521224046  7.73172523898689 7.0322408739674875  C 12.104774744587885 7.479992063784864  13.758684504451232 6.948287523827089  14.207202391511444 6.752396384430913  C 13.786716862126735 3.6741068683514695  11.23577132814296 1.2394597142798545  8.040081304819154 0.9036463137182525  Z " fill-rule="nonzero" fill="#545971" stroke="none" transform="matrix(1 0 0 1 181 371 )" />
  </g>
</svg>