<?xml version="1.0" encoding="utf-8"?>
<svg version="1.1" xmlns:xlink="http://www.w3.org/1999/xlink" width="21px" height="32px" xmlns="http://www.w3.org/2000/svg">
  <defs>
    <mask fill="white" id="clip7292">
      <path d="M 20.605139719489216 0.6495342683692797  L 11.39486028085554 31.350465731777263  C 4.741665509781569 29.41358282284523  0 23.353382162756475  0 16  C 0 7.039999999999964  7.0400000000000205 0  16 0  C 17.60661783724356 0  19.151503670143654 0.22635068259285163  20.605139719489216 0.6495342683692797  Z " fill-rule="evenodd" />
    </mask>
  </defs>
  <g transform="matrix(1 0 0 1 -396 -798 )">
    <path d="M 20.605139719489216 0.6495342683692797  L 11.39486028085554 31.350465731777263  C 4.741665509781569 29.41358282284523  0 23.353382162756475  0 16  C 0 7.039999999999964  7.0400000000000205 0  16 0  C 17.60661783724356 0  19.151503670143654 0.22635068259285163  20.605139719489216 0.6495342683692797  Z " fill-rule="nonzero" fill="#333333" stroke="none" transform="matrix(1 0 0 1 396 798 )" />
    <path d="M 20.605139719489216 0.6495342683692797  L 11.39486028085554 31.350465731777263  C 4.741665509781569 29.41358282284523  0 23.353382162756475  0 16  C 0 7.039999999999964  7.0400000000000205 0  16 0  C 17.60661783724356 0  19.151503670143654 0.22635068259285163  20.605139719489216 0.6495342683692797  Z " stroke-width="2" stroke="#555555" fill="none" transform="matrix(1 0 0 1 396 798 )" mask="url(#clip7292)" />
  </g>
</svg>