<?xml version="1.0" encoding="utf-8"?>
<svg version="1.1" xmlns:xlink="http://www.w3.org/1999/xlink" width="180px" height="83px" xmlns="http://www.w3.org/2000/svg">
  <defs>
    <filter x="164px" y="671px" width="180px" height="83px" filterUnits="userSpaceOnUse" id="filter9645">
      <feOffset dx="0" dy="5" in="SourceAlpha" result="shadowOffsetInner" />
      <feGaussianBlur stdDeviation="2.5" in="shadowOffsetInner" result="shadowGaussian" />
      <feComposite in2="shadowGaussian" operator="atop" in="SourceAlpha" result="shadowComposite" />
      <feColorMatrix type="matrix" values="0 0 0 0 0  0 0 0 0 0  0 0 0 0 0  0 0 0 0.34901960784313724 0  " in="shadowComposite" />
    </filter>
    <g id="widget9646">
      <path d="M 254 671  C 301.6 671  339 687.06  339 707.5  C 339 727.94  301.6 744  254 744  C 206.4 744  169 727.94  169 707.5  C 169 687.06  206.4 671  254 671  Z " fill-rule="nonzero" fill="#00c3f9" stroke="none" fill-opacity="0.2" />
      <path d="M 254 671.5  C 301.32 671.5  338.5 687.34  338.5 707.5  C 338.5 727.66  301.32 743.5  254 743.5  C 206.68 743.5  169.5 727.66  169.5 707.5  C 169.5 687.34  206.68 671.5  254 671.5  Z " stroke-width="1" stroke="#ffffff" fill="none" />
    </g>
  </defs>
  <g transform="matrix(1 0 0 1 -164 -671 )">
    <use xlink:href="#widget9646" filter="url(#filter9645)" />
    <use xlink:href="#widget9646" />
  </g>
</svg>