<?xml version="1.0" encoding="utf-8"?>
<svg version="1.1" xmlns:xlink="http://www.w3.org/1999/xlink" width="29px" height="25px" xmlns="http://www.w3.org/2000/svg">
  <g transform="matrix(1 0 0 1 -20 -84 )">
    <path d="M 22.71633033650099 11.460900115889528  L 22.716330336500985 14.577171394764521  L 28.87235454997761 12.499657200732345  L 28.87235454997761 22.88722814654669  L 22.716330336500985 20.80971395251451  L 22.716330336500985 23.925985231389504  C 22.72649174281735 24.20472082925884  22.622543542877164 24.475338647052787  22.429049209745095 24.673890357796736  C 22.232935169373597 24.869789786628203  21.965639798152854 24.975030044677656  21.690326308937426 25  L 1.1702455652851718 25  C 0.8949320760697407 24.975030044677656  0.6276367048490031 24.869789786628203  0.431522664477503 24.673890357796736  C 0.2380283313454316 24.475338647052787  0.13408013140525027 24.20472082925884  0.14424153772161125 23.925985231389504  L 0.14424153772161125 11.460900115889523  C 0.14424153772161125 11.157583046044174  0.24068590808829618 10.90828135347279  0.431522664477503 10.71299501382883  C 0.627636704849002 10.517095584997366  0.8949320760697421 10.411855326947917  1.1702455652851718 10.422143031046707  L 21.69032630893743 10.422143031046707  C 21.98991948604408 10.422143031046707  22.2361604449641 10.519786188695415  22.429049209745095 10.712995013828836  C 22.619885966134305 10.908281353472791  22.71633033650099 11.157583046044177  22.71633033650099 11.460900115889528  Z M 16.56030612302436 20.80971395251451  L 4.248257672023483 20.80971395251451  L 4.248257672023483 22.88722814654669  L 16.56030612302436 22.88722814654669  L 16.56030612302436 20.80971395251451  Z M 11.910455828648194 8.897247599431264  C 10.950116045574408 7.920815949904561  10.447374061727784 6.699237588134471  10.40428190954774 5.228357558139536  C 10.447374085775413 3.7574775037980617  10.950116045574408 2.5338216518639722  11.910455828648194 1.561545007011804  C 12.874899628505565 0.58511333313856  14.081480370499362 0.07612237544310597  15.534302071413174 0.03457208523236241  C 16.987123796374618 0.07819988995364333  18.195756546760208 0.5871908476490971  19.15609632983399 1.5615450070118024  C 20.12054012969136 2.5338216518639705  20.621230105146196 3.7574775037980594  20.664322257326234 5.2283575581395345  C 20.621230081098567 6.699237612481008  20.11848812129957 7.9228934644150995  19.15609632983399 8.897247599431264  C 18.195756546760208 9.869524244283435  16.987123796374618 10.378515226325428  15.534302071413174 10.422143031046707  C 14.08148034645173 10.378515226325428  12.872847596066139 9.869524268629972  11.910455828648194 8.897247599431264  Z M 12.454237956283066 5.228357558139536  L 12.456289964674859 5.228357558139536  C 12.456289964674859 5.791363893108956  12.595826511269216 6.310742447703635  12.872847620113768 6.786493197577034  C 13.14986870491069 7.262243947450433  13.529490209297311 7.64035153967512  14.009660076786572 7.9228934644150995  C 14.491881976715257 8.205435389155081  14.998727977345474 8.34462883701453  15.532250063021376 8.34462883701453  C 16.06577214869728 8.34462883701453  16.57877417450288 8.203357874644542  17.071256140438166 7.9228934644150995  C 17.56373810637345 7.642429054185658  17.943359562664806 7.26432146196097  18.21012060550276 6.786493197577033  C 18.476000674037135 6.311564391159792  18.61398606715943 5.774254686221044  18.61026219380732 5.228357558139536  C 18.58974210988938 4.341259008219392  18.290148932782724 3.605818968875385  17.713534646831516 3.0199599742900562  C 17.13692038492794 2.438256008725801  16.410509510423406 2.1432489969225985  15.532250063021376 2.1432489969225985  C 14.65809463240294 2.1432489969225985  13.931683757898403 2.4361784942152633  13.353017511650663 3.0220374888005925  C 12.776403249747085 3.6037414543648483  12.476810072640431 4.341259008219392  12.454237956283066 5.228357558139536  Z M 3.3987263421065723 9.204719698297689  C 2.6189632734630246 8.415264306026254  2.2188217092060962 7.434677627478477  2.196249616896363 6.267114642982354  C 2.196249616896363 5.508821968368975  2.3768263313266 4.81700973374625  2.7400317445312368 4.189600448950177  C 3.103237181783505 3.5621911641541035  3.6059791415825004 3.059432725643722  4.248257672023485 2.6792476432550343  C 4.869312332874447 2.306509560774673  5.578289451688226 2.110553007861788  6.300265751198236 2.1120862792645387  C 7.026676601655142 2.1120862792645387  7.709995299932004 2.301140075376883  8.352273830372987 2.6792476432550343  C 8.994552360813971 3.0594327499902603  9.497294344660597 3.5621911641541035  9.85844774947344 4.189600448950176  C 10.223705195117503 4.81700973374625  10.404281885500108 5.508821968368975  10.40428190954774 6.267114642982352  C 10.3837618256298 7.436755141989012  9.981568252981077 8.415264306026254  9.201805160289897 9.204719698297689  C 8.42204209164635 9.994175090569126  7.453494275005391 10.399290347084259  6.300265751198236 10.422143031046707  C 5.144985194951655 10.401367885941335  4.178489410750121 9.994175114915663  3.3987263421065723 9.204719698297689  Z M 4.857704092243396 4.806622185540102  C 4.473342787660286 5.193770195122274  4.254491254480416 5.718231415837193  4.248257672023485 6.267114642982354  C 4.268777755941423 6.8508961230571455  4.4739785710731885 7.339111959993767  4.857704092243396 7.727607124771139  C 5.238511713052434 8.115441451440281  5.760292440621649 8.32734915781117  6.300265751198235 8.313466119356471  C 6.840503900395113 8.328844945660345  7.362849397087927 8.116707876497594  7.742827434200707 7.7276071247711435  C 8.125563017610494 7.341992909072081  8.334184017390845 6.81358176517045  8.319441696104283 6.267114642982354  C 8.33418401070938 5.720647529171372  8.125563011443052 5.192236395380364  7.742827434200705 4.806622185540102  C 7.362849401181621 4.417521424884105  6.840503903967712 4.205384346693948  6.300265751198235 4.220763166608233  C 5.760292437071967 4.206880134559605  5.238511708989352 4.418787849945245  4.857704092243396 4.806622185540102  Z " fill-rule="nonzero" fill="#d3d3d3" stroke="none" transform="matrix(1 0 0 1 20 84 )" />
  </g>
</svg>