<?xml version="1.0" encoding="utf-8"?>
<svg version="1.1" xmlns:xlink="http://www.w3.org/1999/xlink" width="25px" height="28px" xmlns="http://www.w3.org/2000/svg">
  <g transform="matrix(1 0 0 1 -31 -358 )">
    <path d="M 19.39794146825396 25.891015625000023  C 21.52932787698414 24.751692708333337  23.27964823082013 23.205468749999966  24.648902529761898 21.252343749999966  C 24.364717675264558 19.234114583333337  23.79957733961642 17.55768229166665  22.95348152281747 16.223046874999966  C 22.10738570601852 14.888411458333337  20.91574694113755 14.116927083333339  19.378565228174594 13.908593749999966  C 18.51309317129629 14.872135416666652  17.48292307374338 15.624088541666652  16.28805493551586 16.164453124999966  C 15.093186797288356 16.704817708333337  13.830501818783079 16.974999999999966  12.5 16.974999999999966  C 11.169498181216916 16.974999999999966  9.906813202711646 16.704817708333337  8.711945064484134 16.164453124999966  C 7.517076926256629 15.624088541666652  6.486906828703716 14.872135416666652  5.621434771825399 13.908593749999966  C 4.084253058862451 14.116927083333339  2.892614293981474 14.888411458333337  2.0465184771825307 16.223046874999966  C 1.2004226603835875 17.55768229166665  0.6352823247354422 19.234114583333337  0.351097470238102 21.252343749999966  C 1.720351769179871 23.205468749999966  3.4706721230158664 24.751692708333337  5.602058531746032 25.891015625000023  C 7.733444940476204 27.03033854166665  10.032758763227513 27.600000000000023  12.5 27.600000000000023  C 14.967241236772495 27.600000000000023  17.266555059523796 27.03033854166665  19.39794146825396 25.891015625000023  Z M 17.760649181547592 12.902734375000023  C 19.2138671875 11.437890624999966  19.940476190476204 9.670312500000023  19.940476190476204 7.599999999999965  C 19.940476190476204 5.529687499999966  19.2138671875 3.762109374999966  17.760649181547592 2.2972656250000227  C 16.307431175595227 0.8324218749999659  14.553881448412703 0.10000000000002274  12.5 0.10000000000002274  C 10.446118551587297 0.10000000000002274  8.692568824404766 0.8324218749999659  7.239350818452409 2.2972656250000227  C 5.7861328125 3.762109374999966  5.059523809523796 5.529687499999966  5.059523809523796 7.599999999999965  C 5.059523809523796 9.670312500000023  5.7861328125 11.437890624999966  7.239350818452409 12.902734375000023  C 8.692568824404766 14.367578125000023  10.446118551587297 15.099999999999966  12.5 15.099999999999966  C 14.553881448412703 15.099999999999966  16.307431175595227 14.367578125000023  17.760649181547592 12.902734375000023  Z " fill-rule="nonzero" fill="#ffffff" stroke="none" transform="matrix(1 0 0 1 31 358 )" />
  </g>
</svg>