<?xml version="1.0" encoding="utf-8"?>
<svg version="1.1" xmlns:xlink="http://www.w3.org/1999/xlink" width="14px" height="3px" xmlns="http://www.w3.org/2000/svg">
  <g transform="matrix(1 0 0 1 -294 -808 )">
    <path d="M 3.34375 1.5937499999999982  C 3.34375 2.2668470388562785  2.7980970388562785 2.8125  2.125 2.8125  C 1.4519029611437198 2.8125  0.9062500000000001 2.2668470388562785  0.9062500000000001 1.5937499999999982  C 0.9062500000000001 0.9206529611437198  1.4519029611437198 0.3749999999999982  2.125 0.3749999999999982  C 2.7980970388562785 0.3749999999999982  3.34375 0.9206529611437198  3.34375 1.5937499999999982  Z M 8.21875 1.5937499999999982  C 8.21875 2.2668470388562785  7.673097038856278 2.8125  7 2.8125  C 6.32690296114372 2.8125  5.78125 2.2668470388562785  5.78125 1.5937499999999982  C 5.78125 0.9206529611437198  6.32690296114372 0.3749999999999982  7 0.3749999999999982  C 7.673097038856278 0.3749999999999982  8.21875 0.9206529611437198  8.21875 1.5937499999999982  Z M 13.09375 1.5937499999999982  C 13.09375 2.2668470388562785  12.548097038856277 2.8125  11.875 2.8125  C 11.20190296114372 2.8125  10.65625 2.2668470388562785  10.65625 1.5937499999999982  C 10.65625 0.9206529611437198  11.20190296114372 0.3749999999999982  11.875 0.3749999999999982  C 12.548097038856277 0.3749999999999982  13.09375 0.9206529611437198  13.09375 1.5937499999999982  Z " fill-rule="nonzero" fill="#aaaaaa" stroke="none" transform="matrix(1 0 0 1 294 808 )" />
  </g>
</svg>