<?xml version="1.0" encoding="utf-8"?>
<svg version="1.1" xmlns:xlink="http://www.w3.org/1999/xlink" width="16px" height="20px" xmlns="http://www.w3.org/2000/svg">
  <g transform="matrix(1 0 0 1 -207 -385 )">
    <path d="M 5.637818181818181 1.8714285714285723  L 13.783272727272726 7.688571428571428  C 14.53660133478399 8.22615571760995  14.98237485867101 9.085443373363951  14.98237485867101 10  C 14.98237485867101 10.914556626636045  14.53660133478399 11.773844282390048  13.783272727272726 12.311428571428568  L 5.637818181818181 18.128571428571426  C 5.140689393919083 18.483504980776242  4.54187624262955 18.67468308443736  3.9272726991372777 18.67468308443736  C 2.32062615417497 18.67468308443736  1.0181817900463686 17.395496655382484  1.0181817900463686 15.817540227294502  C 1.0181817900463686 15.81740777058551  1.0181817994248505 15.817275313850562  1 15.817142857142857  L 1 4.182857142857144  C 1.018181799424848 4.182724686131189  1.0181817900463686 4.182592229432733  1.0181817900463686 4.182459772705496  C 1.0181817900463686 2.604503344617515  2.32062615417497 1.3253169155626385  3.9272726991372777 1.3253169155626385  C 4.54187624262955 1.3253169155626385  5.1406893939190805 1.5164950192237545  5.637818181818181 1.8714285714285723  Z M 4 15.81714285714286  L 12.072727272727274 10  L 4 4.182857142857144  L 4 15.81714285714286  Z " fill-rule="nonzero" fill="#000000" stroke="none" transform="matrix(1 0 0 1 207 385 )" />
  </g>
</svg>