<?xml version="1.0" encoding="utf-8"?>
<svg version="1.1" xmlns:xlink="http://www.w3.org/1999/xlink" width="20px" height="20px" xmlns="http://www.w3.org/2000/svg">
  <g transform="matrix(1 0 0 1 -376 -801 )">
    <path d="M 10.000000000384407 0.2500637206499605  C 12.91672895099768 0.2500637206499605  15.28121480835702 2.6145210495990296  15.28125 5.53125  C 15.281274344217579 7.54894218038096  14.131669476441271 9.39032792580434  12.318875000000002 10.276250000000003  C 16.682169314124724 11.345852713612196  19.7504453283103 15.257518832724795  19.75 19.75  L 18.124999999999996 19.749999999999996  C 18.124999999999996 15.262686407624798  14.487313592375195 11.625  9.999999999999998 11.625  C 5.512686407624802 11.625  1.875 15.262686407624798  1.875 19.749999999999996  L 0.25 19.75  C 0.24955467168970102 15.257518832724795  3.3178306858752773 11.345852713612196  7.6811250000000015 10.276250000000001  C 5.868351173893986 9.390338017366542  4.718750000384407 7.548982916922876  4.718750000384407 5.53131372064996  C 4.718750000384407 2.6145598856060825  7.08324616534053 0.2500637206499605  10.000000000384407 0.2500637206499605  Z M 10.00000005448237 9.187499999999998  C 12.019291171051208 9.187499999999998  13.65625005448237 7.550541116568837  13.65625005448237 5.531249999999998  C 13.65625005448237 3.511958883431161  12.019291171051208 1.8749999999999982  10.00000005448237 1.8749999999999982  C 7.980708937913532 1.8749999999999982  6.343750054482371 3.511958883431161  6.343750054482371 5.531249999999998  C 6.343750054482371 7.550541116568837  7.980708937913532 9.187499999999998  10.00000005448237 9.187499999999998  Z " fill-rule="nonzero" fill="#aaaaaa" stroke="none" transform="matrix(1 0 0 1 376 801 )" />
  </g>
</svg>