<?xml version="1.0" encoding="utf-8"?>
<svg version="1.1" xmlns:xlink="http://www.w3.org/1999/xlink" width="40px" height="40px" xmlns="http://www.w3.org/2000/svg">
  <g transform="matrix(1 0 0 1 -194 -383 )">
    <path d="M 40 20  C 40 31.045694996615868  31.045694996615868 40  20 40  C 8.954305003384132 40  0 31.045694996615868  0 20  C 0 8.954305003384132  8.954305003384132 0  20 0  C 31.045694996615868 0  40 8.954305003384132  40 20  Z M 37.14285714285714 19.999999744551523  C 37.14285714285714 10.53226117602364  29.467738568527885 2.8571426016943797  20 2.8571426016943797  C 10.532261431472111 2.8571426016943797  2.8571428571428568 10.532261176023635  2.8571428571428568 19.999999744551523  C 2.857142998223155 29.467738468769053  10.532261531230947 37.14285688740866  20 37.14285688740866  C 29.467738568527885 37.14285688740866  37.14285714285714 29.467738313079405  37.14285714285714 19.999999744551523  Z " fill-rule="nonzero" fill="#000000" stroke="none" transform="matrix(1 0 0 1 194 383 )" />
  </g>
</svg>