<?xml version="1.0" encoding="utf-8"?>
<svg version="1.1" xmlns:xlink="http://www.w3.org/1999/xlink" width="29px" height="29px" xmlns="http://www.w3.org/2000/svg">
  <g transform="matrix(1 0 0 1 -20 -212 )">
    <path d="M 28.870833333333337 4.25  C 28.870833333333337 1.9488135423716957  27.00535312429497 0.08333333333333333  24.70416666666667 0  L 4.295833333333329 0  C 1.9946468757050295 0.08333333333333333  0.12916666666666288 1.9488135423716957  0.12916666666666288 4.25  L 0.12916666666666288 24.75  C 0.12916666666666288 27.0511864576283  1.9946468757050295 28.916666666666664  4.295833333333329 29  L 24.70416666666667 29  C 27.00535312429497 28.916666666666664  28.870833333333337 27.0511864576283  28.870833333333337 24.75  L 28.870833333333337 4.25  Z M 27 23.433333333333337  L 26.916666666666664 23.433333333333337  C 26.916666666666664 25.15833333333333  25.516666666666673 26.76666666666667  23.791666666666668 26.76666666666667  L 5.335416666666674 26.76666666666667  C 3.6083333333333294 26.76666666666667  2.0812499999999923 25.15833333333333  2 23.433333333333337  L 2 5.40625  C 2.0812499999999923 3.681250000000001  3.6083333333333294 2.072916666666667  5.335416666666674 2  L 23.7875 2  C 25.51250000000001 2.072916666666667  26.914583333333326 3.681250000000001  27 5.40625  L 27 23.433333333333337  Z " fill-rule="nonzero" fill="#d3d3d3" stroke="none" transform="matrix(1 0 0 1 20 212 )" />
  </g>
</svg>