<?xml version="1.0" encoding="utf-8"?>
<svg version="1.1" xmlns:xlink="http://www.w3.org/1999/xlink" width="20px" height="14px" xmlns="http://www.w3.org/2000/svg">
  <g transform="matrix(1 0 0 1 -24 -219 )">
    <path d="M 18.907563025210084 2.213953488372092  L 10.67647058823529 2.213953488372092  C 10.09633954849706 2.213953488372092  9.626050420168063 2.669477725462856  9.626050420168063 3.2313953488372085  C 9.626050420168063 3.7933129722115604  10.09633954849706 4.248837209302325  10.67647058823529 4.248837209302325  L 18.907563025210084 4.248837209302325  C 19.487694064948315 4.248837209302325  19.95798319327731 3.7933129722115604  19.95798319327731 3.2313953488372085  C 19.95798319327731 2.669477725462856  19.487694064948315 2.213953488372092  18.907563025210084 2.213953488372092  Z M 18.907563025210084 10.099127906976747  L 10.67647058823529 10.099127906976747  C 10.09633954849706 10.099127906976747  9.626050420168063 10.554652144067507  9.626050420168063 11.116569767441865  C 9.626050420168063 11.678487390816212  10.09633954849706 12.13401162790698  10.67647058823529 12.13401162790698  L 18.907563025210084 12.13401162790698  C 19.487694064948315 12.13401162790698  19.95798319327731 11.678487390816212  19.95798319327731 11.116569767441865  C 19.95798319327731 10.554652144067507  19.487694064948315 10.099127906976747  18.907563025210084 10.099127906976747  Z M 7.113445378151269 0.34999999999999626  L 7.113445378151269 0.34593023255813954  L 3.619747899159668 3.7563953488372075  L 1.7205882352941098 2.1895348837209285  C 1.5474936174923988 2.027741947994162  1.3163324712942093 1.937325063801146  1.0757848716807987 1.937325063801146  C 0.5629490325521934 1.937325063801146  0.1472134431093741 2.3400084893893793  0.1472134431093741 2.8367436684523053  C 0.1472134431093741 3.1190596561383446  0.28406654385521085 3.384994279297021  0.5168067226890833 3.554941860465113  L 3.033613445378144 5.634593023255816  C 3.228234148995161 5.793772299794162  3.482384112363995 5.867476143091136  3.735294117647063 5.838081395348839  C 4.008296373987102 5.856654630052378  4.276297771355878 5.76023645290598  4.470588235294121 5.573546511627908  L 8.478991596638663 1.6645348837209293  C 8.65823430194943 1.4898445482206806  8.75883902653786 1.2535579044836531  8.75883902653786 1.0072674418604652  C 8.75883902653786 0.4923178416811365  8.327859131037474 0.07486871034181146  7.796218487394966 0.07486871034181146  C 7.539885957303226 0.07486871034181146  7.2941395603973005 0.17389505188076768  7.113445378151269 0.34999999999999626  Z M 3.911764705882349 9.303488372093028  C 2.6180724872661054 9.303488372093028  1.5693277310924332 10.319307420805426  1.5693277310924332 11.57238372093023  C 1.5693277310924332 12.825460021055042  2.6180724872661054 13.841279069767438  3.911764705882349 13.841279069767438  C 5.205456924498612 13.841279069767438  6.254201680672265 12.825460021055042  6.254201680672265 11.57238372093023  C 6.254201680672265 10.319307420805426  5.205456924498612 9.303488372093028  3.911764705882349 9.303488372093028  Z M 4.591414954732465 11.57136627906976  C 4.591414954732465 11.941101056530579  4.292925615131897 12.246293411460595  3.911764705882349 12.266279069767446  C 3.898830825622275 12.266957240338417  3.8858803769017145 12.267296511627904  3.872927559774486 12.267296511627904  C 3.476117928593542 12.267296511627904  3.1544401648165064 11.955717933457823  3.1544401648165064 11.57136627906976  C 3.1544401648165064 11.187014624681707  3.476117928593542 10.875436046511624  3.872927559774486 10.875436046511624  C 3.8858803769017145 10.875436046511624  3.898830825622275 10.87577531780112  3.911764705882349 10.876453488372093  C 4.292925615131897 10.896439146678944  4.591414954732465 11.20163150160895  4.591414954732465 11.57136627906976  Z " fill-rule="nonzero" fill="#d3d3d3" stroke="none" transform="matrix(1 0 0 1 24 219 )" />
  </g>
</svg>