<?xml version="1.0" encoding="utf-8"?>
<svg version="1.1" xmlns:xlink="http://www.w3.org/1999/xlink" width="50px" height="50px" xmlns="http://www.w3.org/2000/svg">
  <g transform="matrix(1 0 0 1 -163 -349 )">
    <path d="M 41.2109375 21.19140625  C 41.6015625 20.80078125  41.796875 20.3125  41.796875 19.7265625  C 41.796875 19.11892361111111  41.6015625 18.619791666666668  41.2109375 18.229166666666668  L 38.24869791666667 15.299479166666668  C 37.836371527777786 14.887152777777773  37.348090277777786 14.680989583333332  36.78385416666667 14.680989583333332  C 36.21961805555556 14.680989583333332  35.73133680555556 14.887152777777773  35.31901041666667 15.299479166666668  L 22.037760416666664 28.548177083333336  L 14.680989583333334 21.19140625  C 14.268663194444445 20.77907986111111  13.780381944444445 20.572916666666668  13.216145833333334 20.572916666666668  C 12.651909722222223 20.572916666666668  12.163628472222223 20.77907986111111  11.751302083333332 21.19140625  L 8.7890625 24.12109375  C 8.3984375 24.51171875  8.203125000000002 25.010850694444443  8.203125 25.618489583333336  C 8.203125000000002 26.204427083333336  8.3984375 26.692708333333336  8.7890625 27.083333333333336  L 20.572916666666664 38.8671875  C 20.985243055555557 39.279513888888886  21.473524305555557 39.48567708333333  22.037760416666664 39.48567708333333  C 22.623697916666664 39.48567708333333  23.122829861111114 39.279513888888886  23.53515625 38.8671875  L 41.2109375 21.19140625  Z M 46.64713541666667 12.451171875  C 48.882378472222214 16.281467013888886  50 20.464409722222214  50 25  C 50 29.53559027777778  48.882378472222214 33.71853298611111  46.64713541666667 37.548828125  C 44.411892361111114 41.37912326388889  41.37912326388889 44.41189236111111  37.548828125 46.64713541666667  C 33.718532986111114 48.88237847222223  29.53559027777778 50  25 50  C 20.464409722222225 50  16.28146701388889 48.88237847222223  12.451171875 46.64713541666667  C 8.620876736111112 44.41189236111111  5.588107638888889 41.37912326388889  3.3528645833333335 37.548828125  C 1.1176215277777777 33.71853298611111  0 29.53559027777778  0 25  C 0 20.464409722222214  1.1176215277777777 16.281467013888886  3.3528645833333335 12.451171875  C 5.588107638888889 8.62087673611111  8.620876736111112 5.588107638888884  12.451171875 3.3528645833333313  C 16.28146701388889 1.1176215277777735  20.464409722222225 0  25 0  C 29.53559027777778 0  33.718532986111114 1.1176215277777735  37.548828125 3.3528645833333313  C 41.37912326388889 5.588107638888884  44.411892361111114 8.62087673611111  46.64713541666667 12.451171875  Z " fill-rule="nonzero" fill="#009966" stroke="none" transform="matrix(1 0 0 1 163 349 )" />
  </g>
</svg>