<?xml version="1.0" encoding="utf-8"?>
<svg version="1.1" xmlns:xlink="http://www.w3.org/1999/xlink" width="18px" height="25px" xmlns="http://www.w3.org/2000/svg">
  <g transform="matrix(1 0 0 1 -119 -798 )">
    <path d="M 0 5.5  C 0.0625 4.153805922287461  1.1538059222874466 3.0625  2.5 3.0625  L 5.018749999999997 3.0625  C 5.781810979964362 1.5657025619607339  7.319921243017092 0.6233743494794908  9 0.6233743494794908  C 10.680078756982908 0.6233743494794908  12.218189020035652 1.5657025619607339  12.981249999999989 3.0625  L 15.5 3.0625  C 16.846194077712568 3.0625  17.9375 4.153805922287461  18 5.5  L 18 20.9375  C 17.9375 22.28369407771254  17.625 24.125  15.5 24  L 2.5 24  C 0.375 23.875  0.0625 22.28369407771254  0 20.9375  L 0 5.5  Z M 11.98675 4.6875  L 11.534999999999997 3.8018749999999955  C 11.049975714328099 2.8477675527871043  10.07031284142468 2.246802253038936  9 2.246802253038936  C 7.929687158575305 2.246802253038936  6.950024285671901 2.8477675527871043  6.465000000000003 3.8018749999999955  L 6.013249999999999 4.6875  L 2.5 4.6875  L 2 5.5  L 2 20.9375  L 2.5 21.75  L 15.5 21.75  L 16 20.9375  L 16 5.5  L 15.5 4.6875  L 11.98675 4.6875  Z " fill-rule="nonzero" fill="#aaaaaa" stroke="none" transform="matrix(1 0 0 1 119 798 )" />
  </g>
</svg>