<?xml version="1.0" encoding="utf-8"?>
<svg version="1.1" xmlns:xlink="http://www.w3.org/1999/xlink" width="29px" height="18px" xmlns="http://www.w3.org/2000/svg">
  <g transform="matrix(1 0 0 1 -20 -147 )">
    <path d="M 2.1958841356152368 16  L 20.660668367269384 16  L 20.660668367269384 2  L 2.1958841356152368 2  L 2.1958841356152368 16  Z M 22.712311079712293 0.9614516922540126  L 22.7123110797123 4.534139829030007  L 28.86723915693035 1.8546237264480112  L 28.86723915693035 16.14537627355199  L 22.7123110797123 13.46586017096999  L 22.712311079712293 17.038548307745984  C 22.72247067025441 17.27821823331267  22.618540977457958 17.510908109306747  22.42508110037103 17.681632170272152  C 22.22900197600966 17.850075688439972  21.961754189309474 17.94056619718903  21.686489713472398 18  L 1.170062789412228 18  C 0.8947983204445454 17.94056619232579  0.6275505420751175 17.85007568394267  0.4314714225504894 17.681632170272152  C 0.2380115454635622 17.510908109306747  0.1340818526671086 17.27821823331267  0.14424144320921975 17.03854830774599  L 0.14424144320921975 0.9614516922540126  C 0.14424144320921975 0.7006454466154919  0.24066864225850357 0.48628415910676903  0.4314714225504895 0.3183678297278436  C 0.6275505420751175 0.14992431605732692  0.8947983204445458 0.05943380767421047  1.1700627894122282 0  L 21.68648971347239 0  C 21.986029539911424 0.06827965806001357  22.232226662198663 0.1522378227494765  22.425081100371028 0.3183678297278436  C 22.615883880663013 0.48628417655268663  22.712311079712293 0.7006454640614095  22.712311079712293 0.9614516922540126  Z M 26.81559646452433 4.7574328332170275  L 22.7123110797123 6.543776901605025  L 22.7123110797123 11.456223098394975  L 26.81559646452433 13.242567166782973  L 26.81559646452433 4.7574328332170275  Z M 4.247526828021253 5.427311863224006  L 4.247526828021253 3.6409677948360084  L 10.402454905239303 3.6409677948360084  L 10.402454905239303 5.427311863224006  L 4.247526828021253 5.427311863224006  Z " fill-rule="nonzero" fill="#d3d3d3" stroke="none" transform="matrix(1 0 0 1 20 147 )" />
  </g>
</svg>