<?xml version="1.0" encoding="utf-8"?>
<svg version="1.1" xmlns:xlink="http://www.w3.org/1999/xlink" width="29px" height="29px" xmlns="http://www.w3.org/2000/svg">
  <g transform="matrix(1 0 0 1 -20 -272 )">
    <path d="M 6.103645833333334 0  L 22.958854166666665 0  C 26.26868489583333 0.09505208333333333  28.951822916666668 2.7781901041666663  29 6.088020833333333  L 29 22.94322916666667  C 28.951822916666668 26.25305989583333  26.26868489583333 28.936197916666668  22.958854166666665 29  L 6.103645833333334 29  C 2.793815104166667 28.936197916666668  0.11067708333333334 26.25305989583333  0.11067708333333334 22.94322916666666  L 0.11067708333333334 6.088020833333333  C 0.11067708333333334 2.7781901041666663  2.793815104166667 0.09505208333333333  6.103645833333334 0  Z M 11.497298177083332 18.448502604166666  C 11.497298177083332 16.71087239583333  10.088671874999998 15.302213541666667  8.351009114583333 15.302213541666667  C 6.613346354166666 15.302213541666667  5.204687499999999 16.71083984375  5.204687499999999 18.448502604166666  C 5.204687499999999 20.18616536458333  6.613346354166666 21.59482421875  8.351009114583333 21.59482421875  C 10.088639322916665 21.59482421875  11.497298177083332 20.18616536458333  11.497298177083332 18.448502604166666  Z M 6.702929687499999 18.448502604166666  C 6.702929687499999 17.538313802083334  7.440787760416666 16.800455729166664  8.351009114583333 16.800455729166664  C 9.261197916666665 16.800455729166664  9.999055989583333 17.538313802083334  9.999055989583333 18.448502604166666  C 9.999055989583333 19.358723958333336  9.261197916666664 20.096582031249998  8.351009114583333 20.096582031249998  C 7.440787760416666 20.096582031249998  6.702929687499999 19.358723958333336  6.702929687499999 18.448502604166666  Z M 25.206217447916664 18.448470052083334  C 25.206217447916664 17.910644531249996  24.77021484375 17.474609375  24.232356770833334 17.474609375  L 15.542578125000002 17.474609375  C 15.004720052083334 17.474609375  14.568717447916669 17.910644531249996  14.568717447916669 18.448470052083334  C 14.568717447916669 18.986328125  15.004720052083336 19.422330729166667  15.542578125000002 19.422330729166667  L 24.232356770833334 19.422330729166667  C 24.77021484375 19.422330729166667  25.206217447916664 18.986328125  25.206217447916664 18.448470052083334  Z M 12.040690104166666 6.976334635416668  C 12.037894539686432 6.973283520904971  12.03507325853148 6.970256069204083  12.0322265625 6.967252604166665  C 11.752766927083336 6.672591145833333  11.287369791666668 6.660286458333332  10.992708333333333 6.9397460937499975  L 7.904166666666666 9.869010416666665  L 6.335416666666666 8.300260416666665  C 6.044498697916666 8.009375  5.5728515624999995 8.009375  5.281966145833334 8.300260416666665  C 4.991048177083334 8.591178385416667  4.991048177083334 9.062825520833332  5.281966145833334 9.3537109375  L 7.220312500000001 11.292057291666666  C 7.252750099340846 11.32453492094514  7.288109937195612 11.353956049514593  7.325944010416666 11.379947916666666  C 7.338879961600617 11.396001855780916  7.352454226164441 11.411530814441926  7.366634114583333 11.426497395833332  C 7.646061197916666 11.721126302083333  8.111490885416664 11.733463541666666  8.40615234375 11.45400390625  L 12.003483072916666 8.042154947916668  C 12.304589843749998 7.756542968749999  12.32119140625 7.282259114583332  12.040690104166666 6.976334635416668  Z M 25.206217447916664 9.23430989583333  C 25.206217447916664 8.696484374999999  24.77021484375 8.26048177083333  24.232356770833334 8.260481770833332  L 15.542578125000002 8.260481770833332  C 15.004720052083334 8.260481770833332  14.568717447916669 8.696484374999999  14.568717447916669 9.23430989583333  C 14.568717447916669 9.772167968749999  15.004720052083336 10.208170572916664  15.542578125000002 10.208170572916664  L 24.232356770833334 10.208170572916664  C 24.77021484375 10.208170572916664  25.206217447916664 9.772167968749997  25.206217447916664 9.23430989583333  Z " fill-rule="nonzero" fill="#d3d3d3" stroke="none" transform="matrix(1 0 0 1 20 272 )" />
  </g>
</svg>