<?xml version="1.0" encoding="utf-8"?>
<svg version="1.1" xmlns:xlink="http://www.w3.org/1999/xlink" width="28px" height="23px" xmlns="http://www.w3.org/2000/svg">
  <g transform="matrix(1 0 0 1 -374 -606 )">
    <path d="M 16.52438427942154 21.707748684731015  C 15.683756798537235 22.529374611847313  14.843129346742023 22.89128127225079  13.997498134142287 22.89128127225079  C 13.156870653257979 22.89128127225079  12.311239469747342 22.52937461184731  11.475615720578459 21.712639283771754  L 2.1986911569148933 12.542706887856014  C 1.0878620179521277 11.188002225079114  0.037077688663563854 9.906657002818433  0.037077688663563854 7.422216654717168  C 0.037077688663563854 3.407008912678006  3.379572627160905 0.14495831314280042  7.482635251828457 0.14495831314280042  C 9.0287893409242 0.14495831314280042  10.509894888630319 0.6046775798556174  11.76583236369681 1.4703192110858387  C 12.186146089594414 1.7588664309731017  12.286220782081118 2.326179558939874  11.991000436336435 2.7369925509295894  C 11.695780061502658 3.1478055144877386  11.115346833444148 3.2456181207970727  10.695033078457447 2.9570709293413766  C 9.754330905086436 2.3066170490506326  8.643501766123672 1.96427292696796  7.482635251828457 1.96427292696796  C 4.400334537067819 1.96427292696796  1.8984670794547864 4.414478854331489  1.8984670794547864 7.422216683148736  C 1.8984670794547864 9.168171799594544  2.4889078000332443 9.984907127670096  3.619751894946808 11.364064956240112  L 12.801605497839095 20.4264034909019  C 13.26695283826463 20.881232130142408  13.642232978723404 21.06218546034415  14.00250189494681 21.06707608781646  C 14.372778274601066 21.07196671528877  14.72804345910904 20.891013385087028  15.208402023769947 20.421512834998026  L 24.420278016954786 11.3249398795985  C 25.17584200049867 10.522876462371444  26.106536681349738 9.168171771162978  26.106536681349738 7.417326027244861  C 26.106536681349738 4.404697570955304  23.599665492021277 1.9593822710640856  20.52236850897606 1.9593822710640856  C 19.12632645861037 1.9593822710640856  17.78532551529255 2.4680078409315698  16.754556112865693 3.3874464027887687  L 12.856646604886967 7.202138276305383  C 12.491373956948138 7.559154309236554  11.905936968085108 7.559154309236554  11.540664320146277 7.202138276305383  C 11.175391672207446 6.845122243374211  11.175391672207446 6.272918459503563  11.540664320146277 5.915902426572392  L 15.468596247506646 2.071866759790351  C 16.874645761303192 0.8149747033227879  18.660979147273935 0.14006765723892767  20.52236853806516 0.14006765723892767  C 24.630434923537237 0.14006765723892767  27.967926101230052 3.4070089126780103  27.967926101230052 7.417325998813294  C 27.967926101230052 9.759938064922867  26.77203346492686 11.520565092217169  25.76628272107713 12.581831936066065  L 16.52438427942154 21.707748684731015  Z " fill-rule="nonzero" fill="#555555" stroke="none" transform="matrix(1 0 0 1 374 606 )" />
  </g>
</svg>