<?xml version="1.0" encoding="utf-8"?>
<svg version="1.1" xmlns:xlink="http://www.w3.org/1999/xlink" width="40px" height="40px" xmlns="http://www.w3.org/2000/svg">
  <g transform="matrix(1 0 0 1 -169 -316 )">
    <path d="M 189 316  C 200.2 316  209 324.8  209 336  C 209 347.2  200.2 356  189 356  C 177.8 356  169 347.2  169 336  C 169 324.8  177.8 316  189 316  Z " fill-rule="nonzero" fill="#e4e4e4" stroke="none" />
    <path d="M 189 316.5  C 199.92000000000002 316.5  208.5 325.08  208.5 336  C 208.5 346.92  199.92000000000002 355.5  189 355.5  C 178.07999999999998 355.5  169.5 346.92  169.5 336  C 169.5 325.08  178.07999999999998 316.5  189 316.5  Z " stroke-width="1" stroke="#e4e4e4" fill="none" />
  </g>
</svg>