<?xml version="1.0" encoding="utf-8"?>
<svg version="1.1" xmlns:xlink="http://www.w3.org/1999/xlink" width="36px" height="36px" xmlns="http://www.w3.org/2000/svg">
  <g transform="matrix(1 0 0 1 -62 -1152 )">
    <path d="M 80 1152  C 90.08 1152  98 1159.92  98 1170  C 98 1180.08  90.08 1188  80 1188  C 69.92 1188  62 1180.08  62 1170  C 62 1159.92  69.92 1152  80 1152  Z " fill-rule="nonzero" fill="#ffffff" stroke="none" />
    <path d="M 80 1152.5  C 89.8 1152.5  97.5 1160.2  97.5 1170  C 97.5 1179.8  89.8 1187.5  80 1187.5  C 70.2 1187.5  62.5 1179.8  62.5 1170  C 62.5 1160.2  70.2 1152.5  80 1152.5  Z " stroke-width="1" stroke="#d7d7d7" fill="none" />
  </g>
</svg>