<?xml version="1.0" encoding="utf-8"?>
<svg version="1.1" xmlns:xlink="http://www.w3.org/1999/xlink" width="25px" height="22px" xmlns="http://www.w3.org/2000/svg">
  <g transform="matrix(1 0 0 1 -375 -649 )">
    <path d="M 17.44735542385056 21.76935483870968  C 17.245308010057492 21.921824596774236  17.0067798132184 21.996673387096727  16.77105783045979 21.996673387096727  C 16.43150592672416 21.996673387096727  16.09756645114944 21.846975806451645  15.87587553879312 21.558669354838692  L 11.94717582614944 16.45231854838709  L 1.1376391882183998 16.45231854838709  C 0.5174658764367998 16.45231854838709  0.015153556034506351 15.956098790322633  0 15.343447580645119  L 0 1.2275201612903004  C 0.015153556034506351 0.6148689516128911  0.5174658764367998 0.1186491935484355  1.1376391882183998 0.1186491935484355  L 23.859554597701173 0.1186491935484355  C 24.479727909482772 0.1186491935484355  24.982040229885065 0.6148689516128911  25 1.2275201612903004  L 25 15.340675403225845  C 24.982040229885065 15.953326612903254  24.479727909482772 16.44954637096771  23.859554597701173 16.44954637096771  L 17.8907372485632 16.44954637096771  C 17.2705639367816 16.44954637096771  16.768251616379306 15.953326612903254  16.768251616379306 15.340675403225845  C 16.768251616379306 14.728024193548436  17.2705639367816 14.231804435483875  17.8907372485632 14.231804435483875  L 22.737068965517228 14.231804435483875  L 22.737068965517228 2.336391129032269  L 2.2601248204022935 2.336391129032269  L 2.2601248204022935 14  L 12.502806214080481 14  C 12.85358297413792 14.231804435483875  13.18471623563216 14.392590725806466  13.395182291666666 14.669808467741907  L 17.660627693965495 20.214163306451645  C 18.036660380747147 20.702066532258073  17.94124910201152 21.3978830645161  17.44735542385056 21.76935483870968  Z " fill-rule="nonzero" fill="#555555" stroke="none" transform="matrix(1 0 0 1 375 649 )" />
  </g>
</svg>