<?xml version="1.0" encoding="utf-8"?>
<svg version="1.1" xmlns:xlink="http://www.w3.org/1999/xlink" width="150px" height="30px" xmlns="http://www.w3.org/2000/svg">
  <g transform="matrix(1 0 0 1 -718 -669 )">
    <path d="M 719 672  A 2 2 0 0 1 721 670 L 865 670  A 2 2 0 0 1 867 672 L 867 696  A 2 2 0 0 1 865 698 L 721 698  A 2 2 0 0 1 719 696 L 719 672  Z " fill-rule="nonzero" fill="#ffffff" stroke="none" fill-opacity="0.09803921568627451" />
    <path d="M 718.5 672  A 2.5 2.5 0 0 1 721 669.5 L 865 669.5  A 2.5 2.5 0 0 1 867.5 672 L 867.5 696  A 2.5 2.5 0 0 1 865 698.5 L 721 698.5  A 2.5 2.5 0 0 1 718.5 696 L 718.5 672  Z " stroke-width="1" stroke="#ffffff" fill="none" stroke-opacity="0.2980392156862745" />
  </g>
</svg>