<?xml version="1.0" encoding="utf-8"?>
<svg version="1.1" xmlns:xlink="http://www.w3.org/1999/xlink" width="26px" height="26px" xmlns="http://www.w3.org/2000/svg">
  <g transform="matrix(1 0 0 1 -375 -691 )">
    <path d="M 19.924221047804878 25.972046854634147  C 19.634086971707315 25.972046854634147  19.3592231395122 25.895695787317074  19.099629475121954 25.75826384585366  L 13.006814054634146 22.414086950243902  L 6.913998634146341 25.758263845853662  C 6.303190070243903 26.094208552195123  5.58549000195122 26.03312770341464  5.035762312195121 25.6208319297561  C 4.486034597073171 25.19326593756098  4.211170739512195 24.506106306341465  4.318062243902439 23.803676456585364  L 5.478598522926829 16.733567328780484  L 0.5463194068292684 11.709666901463414  C 0.057672565853658556 11.20574984195122  -0.12557000585365852 10.472779555121951  0.08821297756097565 9.800890142439027  C 0.30199598634146346 9.113730511219513  0.851723676097561 8.640353863414635  1.5388833073170733 8.533462384390244  L 8.349398796097562 7.495087828292682  L 11.403441615609756 1.0663277014634143  C 11.70884588487805 0.42497870048780456  12.319654448780488 0.02795314536585319  13.006814105365857 0.02795314536585319  C 13.693973736585367 0.02795314536585319  14.304782300487807 0.42497870048780445  14.610186595121952 1.0663277014634143  L 17.34355492682927 6.838468634146341  C 17.54206771707317 7.250764407804878  17.374095363902438 7.769951685853657  16.977069783414635 7.9684644760975605  C 16.58004422829268 8.182247484878047  16.09139736195122 7.999004913170731  15.892884571707318 7.586709114146341  L 13.144246021463417 1.814568181463414  C 13.11370558439025 1.7534873326829261  13.067894954146341 1.7229468956097556  12.99154388682927 1.7229468956097556  C 12.930463038048781 1.7229468956097556  12.869382163902442 1.7534873326829261  12.838841752195123 1.814568181463414  L 9.616826554146341 8.640353888780488  C 9.494664831219511 8.884677309268293  9.265611629268292 9.06791988097561  9.006017990243903 9.098460318048781  L 1.7679365092682928 10.197915722926828  C 1.706855660487805 10.213185941463413  1.6610450048780487 10.24372635317073  1.6305045931707316 10.320077445853657  C 1.6152343746341462 10.381158294634146  1.6305045931707316 10.442239168780487  1.6763152234146337 10.488049799024388  L 6.913998659512195 15.817354520975607  C 7.097241231219512 16.01586731121951  7.18886251707317 16.290731168780486  7.143051861463416 16.565595000975605  L 5.906164515121951 24.07854033951219  C 5.890894296585366 24.154891406829265  5.921434733658537 24.20070206243902  5.967245363902439 24.246512692682924  C 6.028326212682928 24.292323322926826  6.074136868292682 24.292323322926826  6.1352177170731705 24.261782911219505  L 12.609788474146342 20.719093250731703  C 12.838841676097562 20.596931527804873  13.128975752195123 20.596931527804873  13.373299172682927 20.719093250731703  L 19.847869929756097 24.261782911219505  C 19.90895077853659 24.29232334829268  19.97003165268293 24.29232334829268  20.01584228292683 24.246512692682924  C 20.07692313170732 24.20070206243902  20.092193350243907 24.154891406829265  20.07692313170732 24.07854033951219  L 18.840035785365856 16.565595000975605  C 18.794225155121953 16.29073114341463  18.885846415609763 16.015867285853652  19.069088987317077 15.817354520975604  L 24.30677242341464 10.488049799024386  C 24.352583053658538 10.442239168780484  24.367853272195124 10.381158294634142  24.352583053658538 10.320077445853654  C 24.337312835121956 10.258996597073168  24.291502204878054 10.213185941463411  24.21515113756098 10.197915722926828  L 19.328682626341465 9.449675242926824  C 18.885846415609755 9.388594394146338  18.58044214634147 8.94575818341463  18.641522995121953 8.487651754146336  C 18.70260384390244 8.029545324878045  19.114899642926833 7.7088708370731664  19.55773582829268 7.769951685853655  L 24.444204339512194 8.518192165853655  C 25.11609375219512 8.6250836702439  25.68109168585366 9.11373051121951  25.894874669268294 9.785619923902436  C 26.108657678048782 10.472779555121946  25.925415106341465 11.205749841951214  25.43676824 11.694396682926826  L 20.504489098536588 16.703026891707314  L 21.665025377560976 23.773136019512194  C 21.787187100487806 24.47556586926829  21.51232324292683 25.177995719024388  20.947325309268294 25.590291492682926  C 20.657191334634145 25.84988515707317  20.290706191219513 25.972046854634147  19.924221047804878 25.972046854634147  Z " fill-rule="nonzero" fill="#555555" stroke="none" transform="matrix(1 0 0 1 375 691 )" />
  </g>
</svg>