<?xml version="1.0" encoding="utf-8"?>
<svg version="1.1" xmlns:xlink="http://www.w3.org/1999/xlink" width="15px" height="19px" xmlns="http://www.w3.org/2000/svg">
  <g transform="matrix(1 0 0 1 -120 -801 )">
    <path d="M 7.500000114855322 0.4893991481777249  C 10.13106595448566 0.4893991481777249  12.264128170572857 2.621993059730154  12.264705873046875 5.2530588359375  C 12.264705873046875 6.7952353173828115  11.530941164062497 8.167470608398437  10.393764708984374 9.039411772460936  C 12.980009642575126 10.185070024919856  14.647500411055816 12.747949775392435  14.6470588359375 15.576588227539062  L 14.647058835937504 17.9589411640625  C 14.647058835937504 18.39752025561519  14.29152025561519 18.753058835937505  13.85294119042969 18.753058835937505  L 1.1470588359375 18.7530588359375  C 0.7084797443848121 18.753058835937505  0.3529411640625 18.39752025561519  0.3529411640625 17.958941190429695  L 0.3529411640625 15.576588227539062  C 0.3529411640625 12.658999999999999  2.1000000000000014 10.149588227539061  4.606235291015624 9.039411772460936  C 3.4270289799224045 8.137940381277957  2.7352942418084467 6.7384157007130465  2.7352942418084467 5.2541050212246  C 2.7352942418084467 2.622630630111594  4.868525723742316 0.4893991481777249  7.500000114855322 0.4893991481777249  Z M 7.5 8.429529417968752  C 9.254316268023103 8.429529417968752  10.676470595214845 7.007375090777009  10.676470595214845 5.253058822753907  C 10.676470595214845 3.4987425547308044  9.254316268023103 2.0765882275390624  7.5 2.0765882275390624  C 5.7456837319769 2.0765882275390624  4.323529404785157 3.498742554730806  4.323529404785157 5.253058822753907  C 4.323529404785157 7.007375090777009  5.7456837319769 8.429529417968752  7.5 8.429529417968752  Z M 1.9411764814453123 15.576588227539062  L 1.9411764814453123 17  L 13.05882351855469 17  L 13.05882351855469 15.576588227539066  C 13.05882351855469 12.50653477124056  10.57005345629851 10.017764708984378  7.5 10.017764708984378  C 4.429946543701494 10.017764708984378  1.9411764814453123 12.50653477124056  1.9411764814453123 15.576588227539066  Z " fill-rule="nonzero" fill="#aaaaaa" stroke="none" transform="matrix(1 0 0 1 120 801 )" />
  </g>
</svg>