<?xml version="1.0" encoding="utf-8"?>
<svg version="1.1" xmlns:xlink="http://www.w3.org/1999/xlink" width="23px" height="15px" xmlns="http://www.w3.org/2000/svg">
  <g transform="matrix(1 0 0 1 -116 -803 )">
    <path d="M 18.766176481445314 8.726117645507813  C 18.242282040498605 7.944009100225379  17.59610230728715 7.251175732139698  16.852352936523438 6.6741176455078115  C 16.9349411640625 6.547058809570311  17.011176455078125 6.416823518554686  17.084235291015624 6.284999999999997  C 18.023378970342097 5.941355639796589  18.64793976223686 5.047761503744333  18.64793976223686 4.0477203562316575  C 18.64793976223686 3.329291296203392  18.323732147135924 2.6492270010949177  17.765588227539062 2.1968823544921854  C 17.645428455273176 1.479139209123482  17.402016367910203 0.7875909507588696  17.04611764550781 0.15282351855468423  C 18.90133312865319 0.5246379102713838  20.23645320718887 2.1538866277625885  20.23645320718887 4.045994032428085  C 20.23645320718887 5.176168363306804  19.75483660855851 6.252788509383084  18.912294126953128 7.0060588359375  C 21.17061070796266 8.041406990634883  22.618215589920634 10.298131785032027  22.617647063476564 12.782470582031248  L 22.617647063476564 13.759235291015628  C 22.617647063476564 14.09694116844165  22.343882358871333 14.37070587304688  22.006176481445312 14.370705873046877  L 20.235294126953125 14.370705873046877  L 20.235294126953125 13.576588227539062  C 20.235294126953125 13.308176455078126  20.22258825390625 13.042941164062501  20.200352936523437 12.782470582031248  L 21.029411772460936 12.782470582031248  C 21.029411772460936 11.067176455078123  20.124117645507813 9.564705873046876  18.766176481445314 8.726117645507813  Z M 4.087705873046875 7.004470582031249  C 3.2453101570234493 6.2523672206869385  2.7639848685848047 5.176463640972331  2.764705873046875 4.047176481445311  C 2.764031609994295 2.1549816209880017  4.098691766608969 0.5252073624593896  5.953882354492189 0.1528235185546878  C 5.604470582031252 0.7770000000000001  5.356705873046876 1.4647058730468752  5.234411772460937 2.196882354492187  C 4.676561495501552 2.649235628417429  4.35255391410665 3.3291137617483795  4.35255391410665 4.047320149867108  C 4.35255391410665 5.047788291864535  4.977640198026136 5.941668567914785  5.917352936523439 6.285  C 5.988955161433941 6.4173739064314095  6.065238591918082 6.547161677264146  6.1460588359375015 6.6741176455078115  C 5.404352962890626 7.249058809570313  4.757941190429689 7.943117645507813  4.233823518554687 8.726117645507811  C 2.8263308084695096 9.593601953213092  1.9695903590054096 11.129121327543185  1.9705882275390625 12.782470582031248  L 2.799647063476562 12.782470582031248  C 2.776107506563843 13.046519228802126  2.7644486769291943 13.3114925232145  2.764705873046875 13.576588227539062  L 2.764705873046875 14.370705873046877  L 0.993823518554688 14.37070587304688  C 0.6561155785020643 14.370705873050358  0.38235087389683287 14.096941168445127  0.38235087389683287 13.75923529101911  C 0.38235087389683287 13.758705881168567  0.38235156143961424 13.75817647154129  0.38235293652343755 13.757647063476561  L 0.38235293652343755 12.780882354492189  C 0.38178439976728695 10.296543547948833  1.829389283358298 8.039818740704773  4.087705873046875 7.004470582031249  Z " fill-rule="nonzero" fill="#aaaaaa" stroke="none" transform="matrix(1 0 0 1 116 803 )" />
  </g>
</svg>