<?xml version="1.0" encoding="utf-8"?>
<svg version="1.1" xmlns:xlink="http://www.w3.org/1999/xlink" width="55px" height="55px" xmlns="http://www.w3.org/2000/svg">
  <defs>
    <filter x="356px" y="5px" width="55px" height="55px" filterUnits="userSpaceOnUse" id="filter7299">
      <feOffset dx="0" dy="3" in="SourceAlpha" result="shadowOffsetInner" />
      <feGaussianBlur stdDeviation="1.5" in="shadowOffsetInner" result="shadowGaussian" />
      <feComposite in2="shadowGaussian" operator="atop" in="SourceAlpha" result="shadowComposite" />
      <feColorMatrix type="matrix" values="0 0 0 0 0  0 0 0 0 0  0 0 0 0 0  0 0 0 0.09803921568627451 0  " in="shadowComposite" />
    </filter>
    <g id="widget7300">
      <path d="M 359.50510513184366 28.999988274282696  C 359.77128053269917 15.975991419506498  370.41224081683026 5.5  383.5 5.5  C 396.754833995939 5.5  407.5 16.245166004060955  407.5 29.5  C 407.5 42.754833995939045  396.754833995939 53.5  383.5 53.5  C 370.41224081683026 53.5  359.77128053269917 43.02400858049352  359.50510513184366 30.00001172571733  L 359.5051051316026 28.999988286076658  Z " fill-rule="nonzero" fill="#ffffff" stroke="none" />
      <path d="M 359.50510513184366 28.999988274282696  C 359.77128053269917 15.975991419506498  370.41224081683026 5.5  383.5 5.5  C 396.754833995939 5.5  407.5 16.245166004060955  407.5 29.5  C 407.5 42.754833995939045  396.754833995939 53.5  383.5 53.5  C 370.41224081683026 53.5  359.77128053269917 43.02400858049352  359.50510513184366 30.00001172571733  L 359.5051051316026 28.999988286076658  Z " stroke-width="1" stroke="#ffffff" fill="none" />
    </g>
  </defs>
  <g transform="matrix(1 0 0 1 -356 -5 )">
    <use xlink:href="#widget7300" filter="url(#filter7299)" />
    <use xlink:href="#widget7300" />
  </g>
</svg>