<?xml version="1.0" encoding="utf-8"?>
<svg version="1.1" xmlns:xlink="http://www.w3.org/1999/xlink" width="20px" height="6px" xmlns="http://www.w3.org/2000/svg">
  <g transform="matrix(1 0 0 1 -726 -688 )">
    <path d="M 18.08923076923077 2.4689999999999985  C 17.715384615384618 2.2349999999999977  17.124615384615385 1.9949999999999974  16.324615384615385 1.7835000000000027  C 15.708189012988104 1.622963972685885  15.083133133447697 1.4957699804359406  14.452307692307688 1.4025000000000007  C 14.873846153846149 1.0335  15.303076923076922 0.6270000000000016  15.721538461538456 0.1875  L 15.789230769230764 0.11549999999999994  C 16.118461538461535 0.18299999999999983  16.432307692307685 0.25649999999999906  16.729230769230764 0.3360000000000003  C 17.599999999999998 0.5670000000000002  18.359999999999996 0.8550000000000004  18.921538461538457 1.2074999999999996  C 19.447692307692307 1.5375000000000005  19.999999999999996 2.0565000000000007  19.999999999999996 2.793  C 19.999999999999996 3.5280000000000005  19.447692307692307 4.047000000000001  18.923076923076923 4.376999999999999  C 18.36153846153846 4.729499999999998  17.6 5.019  16.729230769230767 5.25  C 14.975384615384614 5.715000000000001  12.596923076923076 5.994000000000001  10.000000000000002 5.994000000000001  C 7.403076923076926 5.994000000000001  5.024615384615388 5.715000000000001  3.270769230769236 5.25  C 2.4000000000000057 5.019  1.6400000000000055 4.729500000000001  1.0784615384615444 4.376999999999999  C 0.5523076923076983 4.046999999999998  0 3.527999999999998  0 2.7929999999999975  C 0 2.056499999999998  0.5523076923076983 1.5374999999999979  1.0769230769230824 1.207499999999997  C 1.6384615384615442 0.8549999999999978  2.400000000000005 0.5669999999999975  3.270769230769236 0.33599999999999763  C 3.566153846153852 0.2564999999999964  3.881538461538467 0.18299999999999716  4.209230769230775 0.11549999999999727  L 4.278461538461544 0.18749999999999734  C 4.696923076923082 0.6269999999999962  5.126153846153851 1.0334999999999974  5.547692307692312 1.402499999999998  C 4.8553846153846205 1.5074999999999985  4.226153846153852 1.636499999999999  3.675384615384621 1.7834999999999974  C 2.8753846153846214 1.9949999999999974  2.2846153846153907 2.2334999999999985  1.910769230769237 2.4689999999999985  C 1.6369230769230834 2.6399999999999997  1.5630769230769295 2.753999999999998  1.544615384615391 2.7929999999999975  C 1.5630769230769295 2.830499999999998  1.6369230769230834 2.944499999999999  1.910769230769237 3.1169999999999964  C 2.2846153846153907 3.3509999999999973  2.8753846153846214 3.5909999999999975  3.6753846153846217 3.8024999999999975  C 5.263076923076929 4.223999999999998  7.498461538461543 4.493999999999998  10.000000000000002 4.493999999999998  C 12.501538461538463 4.493999999999998  14.73846153846154 4.223999999999998  16.324615384615385 3.8024999999999975  C 17.124615384615385 3.5894999999999984  17.715384615384618 3.3509999999999973  18.08923076923077 3.1169999999999964  C 18.363076923076925 2.944499999999996  18.43692307692308 2.831999999999997  18.455384615384617 2.7929999999999975  C 18.436923076923076 2.753999999999998  18.363076923076925 2.641499999999996  18.08923076923077 2.4689999999999985  Z " fill-rule="nonzero" fill="#07b373" stroke="none" transform="matrix(1 0 0 1 726 688 )" />
  </g>
</svg>