<?xml version="1.0" encoding="utf-8"?>
<svg version="1.1" xmlns:xlink="http://www.w3.org/1999/xlink" width="45px" height="45px" xmlns="http://www.w3.org/2000/svg">
  <g transform="matrix(1 0 0 1 -361 -7 )">
    <path d="M 361.5055700278125 28.999991234390755  C 361.7713761529229 17.080657752736045  371.5168468182579 7.5  383.5 7.5  C 395.65026449627743 7.5  405.5 17.349735503722542  405.5 29.5  C 405.5 41.65026449627746  395.65026449627743 51.5  383.5 51.5  C 371.5168468182579 51.5  361.7713761529229 41.91934224726396  361.5055700278125 30.000008765609252  L 361.5055700276409 28.999991242085844  Z " fill-rule="nonzero" fill="#ffcc00" stroke="none" />
    <path d="M 361.5055700278125 28.999991234390755  C 361.7713761529229 17.080657752736045  371.5168468182579 7.5  383.5 7.5  C 395.65026449627743 7.5  405.5 17.349735503722542  405.5 29.5  C 405.5 41.65026449627746  395.65026449627743 51.5  383.5 51.5  C 371.5168468182579 51.5  361.7713761529229 41.91934224726396  361.5055700278125 30.000008765609252  L 361.5055700276409 28.999991242085844  Z " stroke-width="1" stroke="#ffcc00" fill="none" />
  </g>
</svg>