<?xml version="1.0" encoding="utf-8"?>
<svg version="1.1" xmlns:xlink="http://www.w3.org/1999/xlink" width="200px" height="30px" xmlns="http://www.w3.org/2000/svg">
  <g transform="matrix(1 0 0 1 -15 -759 )">
    <path d="M 16 762  A 2 2 0 0 1 18 760 L 212 760  A 2 2 0 0 1 214 762 L 214 786  A 2 2 0 0 1 212 788 L 18 788  A 2 2 0 0 1 16 786 L 16 762  Z " fill-rule="nonzero" fill="#ffffff" stroke="none" fill-opacity="0.09803921568627451" />
    <path d="M 15.5 762  A 2.5 2.5 0 0 1 18 759.5 L 212 759.5  A 2.5 2.5 0 0 1 214.5 762 L 214.5 786  A 2.5 2.5 0 0 1 212 788.5 L 18 788.5  A 2.5 2.5 0 0 1 15.5 786 L 15.5 762  Z " stroke-width="1" stroke="#ffffff" fill="none" stroke-opacity="0.2980392156862745" />
  </g>
</svg>