<?xml version="1.0" encoding="utf-8"?>
<svg version="1.1" xmlns:xlink="http://www.w3.org/1999/xlink" width="20px" height="20px" xmlns="http://www.w3.org/2000/svg">
  <g transform="matrix(1 0 0 1 -325 -196 )">
    <path d="M 335 196  C 340.6 196  345 200.4  345 206  C 345 211.6  340.6 216  335 216  C 329.4 216  325 211.6  325 206  C 325 200.4  329.4 196  335 196  Z " fill-rule="nonzero" fill="#ffffff" stroke="none" />
    <path d="M 335 196.5  C 340.32 196.5  344.5 200.68  344.5 206  C 344.5 211.32  340.32 215.5  335 215.5  C 329.68 215.5  325.5 211.32  325.5 206  C 325.5 200.68  329.68 196.5  335 196.5  Z " stroke-width="1" stroke="#d7d7d7" fill="none" />
  </g>
</svg>