<?xml version="1.0" encoding="utf-8"?>
<svg version="1.1" xmlns:xlink="http://www.w3.org/1999/xlink" width="14px" height="14px" xmlns="http://www.w3.org/2000/svg">
  <g transform="matrix(1 0 0 1 -387 -737 )">
    <path d="M 14 1.0670731707317074  C 14 0.4777449315829952  13.522255068417003 0  12.932926829268293 0  L 6.5304878048780495 0  C 5.941159565729336 0  5.463414634146342 0.4777449315829952  5.463414634146342 1.0670731707317074  C 5.463414634146342 1.6564014098804194  5.941159565729336 2.1341463414634148  6.5304878048780495 2.1341463414634148  L 10.358612804878048 2.1341463414634148  L 0.44150152439024387 12.051257621951219  C 0.24112720533515786 12.250863508906674  0.1284932626495228 12.522048810822204  0.1284932626495228 12.804878048780488  C 0.1284932626495228 13.08770728673877  0.24112720533515786 13.3588925886543  0.44150152439024387 13.558498475609756  C 0.641107411345698 13.75887279466484  0.9122927132612277 13.871506737350478  1.1951219512195124 13.871506737350478  C 1.4779511891777943 13.871506737350478  1.7491364910933238 13.75887279466484  1.9487423780487805 13.558498475609756  L 11.865853658536585 3.6447217987804876  L 11.865853658536585 7.469512195121951  C 11.865853658536585 8.058840434270666  12.343598590119582 8.536585365853659  12.932926829268293 8.536585365853659  C 13.522255068417003 8.536585365853659  14 8.058840434270666  14 7.469512195121951  L 14 1.0670731707317074  Z " fill-rule="nonzero" fill="#555555" stroke="none" transform="matrix(1 0 0 1 387 737 )" />
  </g>
</svg>