<?xml version="1.0" encoding="utf-8"?>
<svg version="1.1" xmlns:xlink="http://www.w3.org/1999/xlink" width="26px" height="26px" xmlns="http://www.w3.org/2000/svg">
  <g transform="matrix(1 0 0 1 -375 -737 )">
    <path d="M 26 13  C 26 12.401691521016641  25.514975145650027 11.916666666666666  24.916666666666668 11.916666666666666  C 24.31835818768331 11.916666666666666  23.833333333333332 12.401691521016641  23.83333333333333 13  C 23.83333333333333 18.983084789833594  18.983084789833594 23.83333333333333  12.999999999999996 23.83333333333333  C 7.016915210166406 23.83333333333333  2.1666666666666696 18.983084789833594  2.1666666666666696 13  C 2.1666666666666696 7.016915210166404  7.016915210166406 2.166666666666668  12.999999999999996 2.166666666666668  C 13.59830847898336 2.166666666666668  14.083333333333336 1.6816418123166936  14.083333333333336 1.0833333333333346  C 14.083333333333336 0.48502485434997533  13.59830847898336 0  13.000000000000004 0  C 5.820298252199683 0  0 5.820298252199685  0 13  C 0 20.17970174780031  5.820298252199683 25.999999999999993  12.999999999999996 25.999999999999993  C 20.179701747800312 25.999999999999993  25.999999999999993 20.17970174780031  25.999999999999993 13  Z " fill-rule="nonzero" fill="#555555" stroke="none" transform="matrix(1 0 0 1 375 737 )" />
  </g>
</svg>