<?xml version="1.0" encoding="utf-8"?>
<svg version="1.1" xmlns:xlink="http://www.w3.org/1999/xlink" width="20px" height="20px" xmlns="http://www.w3.org/2000/svg">
  <g transform="matrix(1 0 0 1 -378 -196 )">
    <path d="M 388 196  C 393.6 196  398 200.4  398 206  C 398 211.6  393.6 216  388 216  C 382.4 216  378 211.6  378 206  C 378 200.4  382.4 196  388 196  Z " fill-rule="nonzero" fill="#ffffff" stroke="none" />
    <path d="M 388 196.5  C 393.32 196.5  397.5 200.68  397.5 206  C 397.5 211.32  393.32 215.5  388 215.5  C 382.68 215.5  378.5 211.32  378.5 206  C 378.5 200.68  382.68 196.5  388 196.5  Z " stroke-width="1" stroke="#d7d7d7" fill="none" />
  </g>
</svg>