<?xml version="1.0" encoding="utf-8"?>
<svg version="1.1" xmlns:xlink="http://www.w3.org/1999/xlink" width="22px" height="21px" xmlns="http://www.w3.org/2000/svg">
  <g transform="matrix(1 0 0 1 -290 -801 )">
    <path d="M 0.4375 15.5  L 0.4375 1.6875000000000002  C 0.4375 0.7900372815249613  1.1650372815249606 0.0625  2.0625 0  L 19.9375 0  C 20.83496271847504 0.0625  21.5625 0.7900372815249613  21.5625 1.6875000000000002  L 21.5625 15.5  C 21.5625 16.39746271847504  20.83496271847504 17.125  19.9375 17.125  L 13.93475 17.125  L 12.395874999999998 19.70875  C 12.102767229386718 20.200530432815043  11.572503414220071 20.501789673797482  11 20.501789673797482  C 10.427496585779927 20.501789673797482  9.897232770613284 20.200530432815043  9.604125 19.70875  L 8.06525 17.125  L 2.0625 17.125  C 1.1650372815249606 17.125  0.4375 16.39746271847504  0.4375 15.5  Z M 2 15.5  L 8.988249999999999 15.5  L 11 18.878375000000002  L 13.01175 15.5  L 20 15.5  L 20 2  L 2 2  L 2 15.5  Z " fill-rule="nonzero" fill="#333333" stroke="none" transform="matrix(1 0 0 1 290 801 )" />
  </g>
</svg>