<?xml version="1.0" encoding="utf-8"?>
<svg version="1.1" xmlns:xlink="http://www.w3.org/1999/xlink" width="25px" height="21px" xmlns="http://www.w3.org/2000/svg">
  <g transform="matrix(1 0 0 1 -30 -800 )">
    <path d="M 0.6790624999999972 8.112187500000001  L 11.546562499999999 0.6770624999999999  C 12.121271852541708 0.28351703418606444  12.87872814745829 0.2835170341860649  13.453437499999998 0.6770624999999999  L 24.3209375 8.1121875  L 23.3691875 9.506062499999997  L 21.781249999999996 8.419312499999998  L 21.781249999999996 18.9375  C 21.781249999999996 19.869480515339465  21.02573051533946 20.625  20.093749999999996 20.625  L 4.906249999999997 20.625  C 3.9742694846605335 20.625  3.2187499999999973 19.869480515339465  3.2187499999999973 18.9375  L 3.2187499999999973 8.4193125  L 1.6324999999999972 9.5060625  L 0.6790624999999972 8.112187500000001  Z M 10.8125 18.9375  L 14.1875 18.9375  L 14.1875 13.875  L 10.8125 13.875  L 10.8125 18.9375  Z M 15.875 13.875  L 15.875 18.9375  L 20 18.9375  L 20 7.265062500000001  L 12.5 2.0692500000000003  L 5 7.265062500000001  L 5 18.9375  L 9.125 18.9375  L 9.125 13.875  C 9.125 12.943019484660539  9.880519484660537 12.187500000000002  10.8125 12.187500000000002  L 14.1875 12.187500000000002  C 15.119480515339465 12.187500000000002  15.875 12.943019484660539  15.875 13.875  Z " fill-rule="nonzero" fill="#d3d3d3" stroke="none" transform="matrix(1 0 0 1 30 800 )" />
  </g>
</svg>