<?xml version="1.0" encoding="utf-8"?>
<svg version="1.1" xmlns:xlink="http://www.w3.org/1999/xlink" width="22px" height="16px" xmlns="http://www.w3.org/2000/svg">
  <g transform="matrix(1 0 0 1 -15 -196 )">
    <path d="M 18.857142857142858 0  L 3.142857142857143 0  C 1.4071050719603633 0  0 1.3024443641286008  0 2.909090909090909  L 0 5.454545454545454  C 1.518783062034682 5.454545454545454  2.75 6.594184273157979  2.75 8  C 2.75 9.405815726842018  1.518783062034682 10.545454545454545  0 10.545454545454545  L 0 13.090909090909092  C 0 14.697555635871398  1.4071050719603633 16  3.142857142857143 16  L 18.857142857142858 16  C 20.592894928039634 16  22 14.697555635871398  22 13.090909090909092  L 22 10.545454545454545  C 20.481216937965318 10.545454545454545  19.25 9.405815726842018  19.25 8  C 19.25 6.594184273157979  20.481216937965318 5.454545454545454  22 5.454545454545454  L 22 2.909090909090909  C 22 1.3024443641286008  20.592894928039634 0  18.857142857142858 0  Z M 7.071428571428572 6.545454545454546  L 7.071428571428572 5.090909090909091  L 14.928571428571429 5.090909090909091  L 14.928571428571429 6.545454545454546  L 7.071428571428572 6.545454545454546  Z M 7.071428571428572 10.909090909090908  L 7.071428571428572 9.454545454545455  L 14.928571428571429 9.454545454545455  L 14.928571428571429 10.909090909090908  L 7.071428571428572 10.909090909090908  Z " fill-rule="nonzero" fill="#000000" stroke="none" transform="matrix(1 0 0 1 15 196 )" />
  </g>
</svg>