<?xml version="1.0" encoding="utf-8"?>
<svg version="1.1" xmlns:xlink="http://www.w3.org/1999/xlink" width="10px" height="10px" xmlns="http://www.w3.org/2000/svg">
  <g transform="matrix(1 0 0 1 -171 -206 )">
    <path d="M 176 206  C 178.8 206  181 208.2  181 211  C 181 213.8  178.8 216  176 216  C 173.2 216  171 213.8  171 211  C 171 208.2  173.2 206  176 206  Z " fill-rule="nonzero" fill="#999999" stroke="none" />
    <path d="M 176 206.5  C 178.52 206.5  180.5 208.48  180.5 211  C 180.5 213.52  178.52 215.5  176 215.5  C 173.48 215.5  171.5 213.52  171.5 211  C 171.5 208.48  173.48 206.5  176 206.5  Z " stroke-width="1" stroke="#999999" fill="none" />
  </g>
</svg>