<?xml version="1.0" encoding="utf-8"?>
<svg version="1.1" xmlns:xlink="http://www.w3.org/1999/xlink" width="10px" height="10px" xmlns="http://www.w3.org/2000/svg">
  <g transform="matrix(1 0 0 1 -151 -307 )">
    <path d="M 156 307  C 158.8 307  161 309.2  161 312  C 161 314.8  158.8 317  156 317  C 153.2 317  151 314.8  151 312  C 151 309.2  153.2 307  156 307  Z " fill-rule="nonzero" fill="#ffffff" stroke="none" />
    <path d="M 156 307.5  C 158.52 307.5  160.5 309.48  160.5 312  C 160.5 314.52  158.52 316.5  156 316.5  C 153.48 316.5  151.5 314.52  151.5 312  C 151.5 309.48  153.48 307.5  156 307.5  Z " stroke-width="1" stroke="#e4e4e4" fill="none" />
  </g>
</svg>