<?xml version="1.0" encoding="utf-8"?>
<svg version="1.1" xmlns:xlink="http://www.w3.org/1999/xlink" width="20px" height="18px" xmlns="http://www.w3.org/2000/svg">
  <g transform="matrix(1 0 0 1 -1042 -690 )">
    <path d="M 1052 692.4717514421272  C 1050 690.5  1048 690.5  1047 690.5  C 1045.2 690.5  1042.5 692.1275862068966  1042.5 695.22  C 1042.5 702.2591475979142  1052 707.409743401266  1052 707.409743401266  C 1052 707.409743401266  1061.5 702.2591475979142  1061.5 695.22  C 1061.5 692.1275862068966  1058.8 690.5  1057 690.5  C 1056 690.5  1054 690.5  1052 692.4717514421272  Z " fill-rule="nonzero" fill="#ffffff" stroke="none" />
    <path d="M 1052 691.8  C 1050 690  1048 690  1047 690  C 1045 690  1042 691.8  1042 695.22  C 1042 702.6  1052 708  1052 708  C 1052 708  1062 702.6  1062 695.22  C 1062 691.8  1059 690  1057 690  C 1056 690  1054 690  1052 691.8  Z M 1052 693.1435028842544  C 1054 691  1056 691  1057 691  C 1058.6 691  1061 692.4551724137931  1061 695.22  C 1061 701.9182951958284  1052 706.8194868025321  1052 706.8194868025321  C 1052 706.8194868025321  1043 701.9182951958284  1043 695.22  C 1043 692.4551724137931  1045.4 691  1047 691  C 1048 691  1050 691  1052 693.1435028842544  Z " fill-rule="nonzero" fill="#adadad" stroke="none" />
  </g>
</svg>