<?xml version="1.0" encoding="utf-8"?>
<svg version="1.1" xmlns:xlink="http://www.w3.org/1999/xlink" width="20px" height="18px" xmlns="http://www.w3.org/2000/svg">
  <g transform="matrix(1 0 0 1 -15 -134 )">
    <path d="M 16.923076923076923 0  L 3.076923076923077 0  C 1.37758538513602 0  0 1.3431457505076196  0 3  L 0 15  C 0 16.65685424949238  1.37758538513602 18  3.076923076923077 18  L 16.923076923076923 18  C 17.772745768970452 18  18.461538461538463 17.32842712474619  18.461538461538463 16.5  L 18.461538461538463 13.125  L 19.23076923076923 13.125  C 19.655603653715993 13.125  20 12.789213562373094  20 12.375  L 20 5.625  C 20 5.210786437626905  19.655603653715993 4.875  19.23076923076923 4.875  L 18.461538461538463 4.875  L 18.461538461538463 1.5  C 18.461538461538463 0.6715728752538102  17.772745768970452 0  16.923076923076923 0  Z M 18.461538461538463 11.625  L 11.923076923076923 11.625  C 10.436156442763247 11.625  9.230769230769232 10.44974746830583  9.230769230769232 9  C 9.230769230769232 7.550252531694166  10.436156442763247 6.375  11.923076923076923 6.375  L 18.461538461538463 6.375  L 18.461538461538463 11.625  Z " fill-rule="nonzero" fill="#d3d3d3" stroke="none" transform="matrix(1 0 0 1 15 134 )" />
  </g>
</svg>