<?xml version="1.0" encoding="utf-8"?>
<svg version="1.1" xmlns:xlink="http://www.w3.org/1999/xlink" width="215px" height="65px" xmlns="http://www.w3.org/2000/svg">
  <defs>
    <mask fill="white" id="clip1854">
      <path d="M 5.000000000000009 65  C 2.238576250846098 65  0 62.761423749154005  0 60  L 0 5  C 0 2.2385762508460516  2.238576250846098 0  5.000000000000009 0  L 203 0  C 205.7614237491539 0  208 2.2385762508460516  208 5  L 208 17.00004012844198  L 215 24.000079795944373  L 208 31.000206916697266  L 208 60  C 208 62.761423749154005  205.7614237491539 65  203 65  L 5.000000000000009 65  Z " fill-rule="evenodd" />
    </mask>
  </defs>
  <g transform="matrix(1 0 0 1 -153 -134 )">
    <path d="M 5.000000000000009 65  C 2.238576250846098 65  0 62.761423749154005  0 60  L 0 5  C 0 2.2385762508460516  2.238576250846098 0  5.000000000000009 0  L 203 0  C 205.7614237491539 0  208 2.2385762508460516  208 5  L 208 17.00004012844198  L 215 24.000079795944373  L 208 31.000206916697266  L 208 60  C 208 62.761423749154005  205.7614237491539 65  203 65  L 5.000000000000009 65  Z " fill-rule="nonzero" fill="#ffffff" stroke="none" transform="matrix(1 0 0 1 153 134 )" />
    <path d="M 5.000000000000009 65  C 2.238576250846098 65  0 62.761423749154005  0 60  L 0 5  C 0 2.2385762508460516  2.238576250846098 0  5.000000000000009 0  L 203 0  C 205.7614237491539 0  208 2.2385762508460516  208 5  L 208 17.00004012844198  L 215 24.000079795944373  L 208 31.000206916697266  L 208 60  C 208 62.761423749154005  205.7614237491539 65  203 65  L 5.000000000000009 65  Z " stroke-width="2" stroke="#d7d7d7" fill="none" transform="matrix(1 0 0 1 153 134 )" mask="url(#clip1854)" />
  </g>
</svg>