<?xml version="1.0" encoding="utf-8"?>
<svg version="1.1" xmlns:xlink="http://www.w3.org/1999/xlink" width="10px" height="14px" xmlns="http://www.w3.org/2000/svg">
  <g transform="matrix(1 0 0 1 -123 -801 )">
    <path d="M 0.125 12.25  L 0.125 13.875  L 6.625 13.875  L 6.625 12.25  L 0.125 12.25  Z M 9.875 7.375  L 9.875 9  L 0.125 9  L 0.125 7.375  L 9.875 7.375  Z M 5 3.3125  C 5.6730970388562785 3.3125  6.21875 2.7668470388562794  6.21875 2.09375  C 6.21875 1.4206529611437206  5.6730970388562785 0.875  5 0.875  C 4.32690296114372 0.875  3.78125 1.4206529611437206  3.78125 2.09375  C 3.78125 2.7668470388562794  4.32690296114372 3.3125  5 3.3125  Z " fill-rule="nonzero" fill="#333333" stroke="none" transform="matrix(1 0 0 1 123 801 )" />
  </g>
</svg>