<?xml version="1.0" encoding="utf-8"?>
<svg version="1.1" xmlns:xlink="http://www.w3.org/1999/xlink" width="20px" height="18px" xmlns="http://www.w3.org/2000/svg">
  <g transform="matrix(1 0 0 1 -1042 -568 )">
    <path d="M 1052 570.4717514421272  C 1050 568.5  1048 568.5  1047 568.5  C 1045.2 568.5  1042.5 570.1275862068966  1042.5 573.22  C 1042.5 580.2591475979142  1052 585.409743401266  1052 585.409743401266  C 1052 585.409743401266  1061.5 580.2591475979142  1061.5 573.22  C 1061.5 570.1275862068966  1058.8 568.5  1057 568.5  C 1056 568.5  1054 568.5  1052 570.4717514421272  Z " fill-rule="nonzero" fill="#f2f2f2" stroke="none" />
    <path d="M 1052 569.8  C 1050 568  1048 568  1047 568  C 1045 568  1042 569.8  1042 573.22  C 1042 580.6  1052 586  1052 586  C 1052 586  1062 580.6  1062 573.22  C 1062 569.8  1059 568  1057 568  C 1056 568  1054 568  1052 569.8  Z M 1052 571.1435028842544  C 1054 569  1056 569  1057 569  C 1058.6 569  1061 570.4551724137931  1061 573.22  C 1061 579.9182951958284  1052 584.8194868025321  1052 584.8194868025321  C 1052 584.8194868025321  1043 579.9182951958284  1043 573.22  C 1043 570.4551724137931  1045.4 569  1047 569  C 1048 569  1050 569  1052 571.1435028842544  Z " fill-rule="nonzero" fill="#adadad" stroke="none" />
  </g>
</svg>