<?xml version="1.0" encoding="utf-8"?>
<svg version="1.1" xmlns:xlink="http://www.w3.org/1999/xlink" width="86px" height="31px" xmlns="http://www.w3.org/2000/svg">
  <g transform="matrix(1 0 0 1 -906 -6 )">
    <path d="M 907 21.500000000000004  A 14.5 14.5 0 0 1 921.5 7 L 976.5 7  A 14.5 14.5 0 0 1 991 21.5 A 14.5 14.5 0 0 1 976.5 36 L 921.5 36  A 14.5 14.5 0 0 1 907 21.500000000000004 Z " fill-rule="nonzero" fill="#333333" stroke="none" fill-opacity="0.4980392156862745" />
    <path d="M 906.5 21.500000000000004  A 15 15 0 0 1 921.5 6.5 L 976.5 6.5  A 15 15 0 0 1 991.5 21.5 A 15 15 0 0 1 976.5 36.5 L 921.5 36.5  A 15 15 0 0 1 906.5 21.500000000000004 Z " stroke-width="1" stroke="#666666" fill="none" stroke-opacity="0.6" />
  </g>
</svg>