<?xml version="1.0" encoding="utf-8"?>
<svg version="1.1" xmlns:xlink="http://www.w3.org/1999/xlink" width="20px" height="18px" xmlns="http://www.w3.org/2000/svg">
  <g transform="matrix(1 0 0 1 -398 -690 )">
    <path d="M 408 692.4717514421272  C 406 690.5  404 690.5  403 690.5  C 401.2 690.5  398.5 692.1275862068966  398.5 695.22  C 398.5 702.2591475979142  408 707.409743401266  408 707.409743401266  C 408 707.409743401266  417.5 702.2591475979142  417.5 695.22  C 417.5 692.1275862068966  414.8 690.5  413 690.5  C 412 690.5  410 690.5  408 692.4717514421272  Z " fill-rule="nonzero" fill="#ffffff" stroke="none" />
    <path d="M 408 691.8  C 406 690  404 690  403 690  C 401 690  398 691.8  398 695.22  C 398 702.6  408 708  408 708  C 408 708  418 702.6  418 695.22  C 418 691.8  415 690  413 690  C 412 690  410 690  408 691.8  Z M 408 693.1435028842544  C 410 691  412 691  413 691  C 414.6 691  417 692.4551724137931  417 695.22  C 417 701.9182951958284  408 706.8194868025321  408 706.8194868025321  C 408 706.8194868025321  399 701.9182951958284  399 695.22  C 399 692.4551724137931  401.4 691  403 691  C 404 691  406 691  408 693.1435028842544  Z " fill-rule="nonzero" fill="#adadad" stroke="none" />
  </g>
</svg>