<?xml version="1.0" encoding="utf-8"?>
<svg version="1.1" xmlns:xlink="http://www.w3.org/1999/xlink" width="20px" height="18px" xmlns="http://www.w3.org/2000/svg">
  <g transform="matrix(1 0 0 1 -398 -568 )">
    <path d="M 408 570.4717514421272  C 406 568.5  404 568.5  403 568.5  C 401.2 568.5  398.5 570.1275862068966  398.5 573.22  C 398.5 580.2591475979142  408 585.409743401266  408 585.409743401266  C 408 585.409743401266  417.5 580.2591475979142  417.5 573.22  C 417.5 570.1275862068966  414.8 568.5  413 568.5  C 412 568.5  410 568.5  408 570.4717514421272  Z " fill-rule="nonzero" fill="#f2f2f2" stroke="none" />
    <path d="M 408 569.8  C 406 568  404 568  403 568  C 401 568  398 569.8  398 573.22  C 398 580.6  408 586  408 586  C 408 586  418 580.6  418 573.22  C 418 569.8  415 568  413 568  C 412 568  410 568  408 569.8  Z M 408 571.1435028842544  C 410 569  412 569  413 569  C 414.6 569  417 570.4551724137931  417 573.22  C 417 579.9182951958284  408 584.8194868025321  408 584.8194868025321  C 408 584.8194868025321  399 579.9182951958284  399 573.22  C 399 570.4551724137931  401.4 569  403 569  C 404 569  406 569  408 571.1435028842544  Z " fill-rule="nonzero" fill="#adadad" stroke="none" />
  </g>
</svg>