<?xml version="1.0" encoding="utf-8"?>
<svg version="1.1" xmlns:xlink="http://www.w3.org/1999/xlink" width="28px" height="28px" xmlns="http://www.w3.org/2000/svg">
  <g transform="matrix(1 0 0 1 -46 -114 )">
    <path d="M 60 114  C 67.84 114  74 120.16  74 128  C 74 135.84  67.84 142  60 142  C 52.16 142  46 135.84  46 128  C 46 120.16  52.16 114  60 114  Z " fill-rule="nonzero" fill="#ffffff" stroke="none" />
    <path d="M 60 114.5  C 67.56 114.5  73.5 120.44  73.5 128  C 73.5 135.56  67.56 141.5  60 141.5  C 52.44 141.5  46.5 135.56  46.5 128  C 46.5 120.44  52.44 114.5  60 114.5  Z " stroke-width="1" stroke="#d7d7d7" fill="none" />
  </g>
</svg>