<?xml version="1.0" encoding="utf-8"?>
<svg version="1.1" xmlns:xlink="http://www.w3.org/1999/xlink" width="30px" height="26px" xmlns="http://www.w3.org/2000/svg">
  <g transform="matrix(1 0 0 1 -40 -111 )">
    <path d="M 15.736607142857142 25.6953125  C 15.535714285714286 25.8984375  15.290178571428573 26  15 26  C 14.709821428571429 26  14.464285714285715 25.8984375  14.263392857142856 25.6953125  L 3.8169642857142856 15.505208333333336  C 3.7053571428571432 15.414930555555555  3.551897321428572 15.268229166666664  3.356584821428571 15.065104166666664  C 3.1612723214285716 14.861979166666664  2.8515625000000004 14.49240451388889  2.427455357142857 13.956380208333336  C 2.0033482142857144 13.420355902777775  1.6238839285714286 12.870225694444443  1.2890625 12.305989583333332  C 0.9542410714285714 11.741753472222223  0.6556919642857143 11.059027777777777  0.3934151785714286 10.2578125  C 0.13113839285714285 9.45659722222222  0 8.677951388888888  0 7.921875  C 0 5.43923611111111  0.708705357142857 3.4982638888888875  2.126116071428571 2.098958333333332  C 3.543526785714286 0.6996527777777775  5.502232142857142 0  8.002232142857144 0  C 8.694196428571429 0  9.400111607142856 0.12131076388888729  10.119977678571429 0.36393229166666763  C 10.83984375 0.6065538194444422  11.509486607142856 0.9338107638888873  12.12890625 1.345703125  C 12.748325892857146 1.7575954861111098  13.281250000000004 2.1440972222222197  13.727678571428571 2.505208333333332  C 14.174107142857144 2.866319444444442  14.598214285714285 3.25  15 3.65625  C 15.401785714285714 3.25  15.82589285714286 2.866319444444442  16.27232142857143 2.505208333333332  C 16.718750000000004 2.1440972222222197  17.251674107142858 1.7575954861111098  17.87109375 1.345703125  C 18.490513392857142 0.9338107638888873  19.16015625 0.6065538194444422  19.88002232142857 0.36393229166666763  C 20.599888392857142 0.12131076388888729  21.305803571428573 0  21.997767857142858 0  C 24.497767857142858 0  26.45647321428572 0.6996527777777775  27.87388392857143 2.098958333333332  C 29.291294642857146 3.4982638888888875  30 5.43923611111111  30 7.921875  C 30 10.41579861111111  28.722098214285715 12.95486111111111  26.166294642857142 15.5390625  L 15.736607142857142 25.6953125  Z " fill-rule="nonzero" fill="#aaaaaa" stroke="none" transform="matrix(1 0 0 1 40 111 )" />
  </g>
</svg>