<?xml version="1.0" encoding="utf-8"?>
<svg version="1.1" xmlns:xlink="http://www.w3.org/1999/xlink" width="215px" height="65px" xmlns="http://www.w3.org/2000/svg">
  <defs>
    <mask fill="white" id="clip3098">
      <path d="M 210 65  C 212.7614237491539 65  215 62.761423749154005  215 60  L 215 5  C 215 2.2385762508460516  212.7614237491539 0  210 0  L 12.000000000000012 0  C 9.238576250846101 0  7.000000000000003 2.2385762508460516  7 5  L 7 17.00004012844198  L 0 24.000079795944373  L 7 31.000206916697266  L 7 60  C 7.000000000000003 62.761423749154005  9.238576250846101 65  12.000000000000012 65  L 210 65  Z " fill-rule="evenodd" />
    </mask>
  </defs>
  <g transform="matrix(1 0 0 1 -60 -154 )">
    <path d="M 210 65  C 212.7614237491539 65  215 62.761423749154005  215 60  L 215 5  C 215 2.2385762508460516  212.7614237491539 0  210 0  L 12.000000000000012 0  C 9.238576250846101 0  7.000000000000003 2.2385762508460516  7 5  L 7 17.00004012844198  L 0 24.000079795944373  L 7 31.000206916697266  L 7 60  C 7.000000000000003 62.761423749154005  9.238576250846101 65  12.000000000000012 65  L 210 65  Z " fill-rule="nonzero" fill="#ffffff" stroke="none" transform="matrix(1 0 0 1 60 154 )" />
    <path d="M 210 65  C 212.7614237491539 65  215 62.761423749154005  215 60  L 215 5  C 215 2.2385762508460516  212.7614237491539 0  210 0  L 12.000000000000012 0  C 9.238576250846101 0  7.000000000000003 2.2385762508460516  7 5  L 7 17.00004012844198  L 0 24.000079795944373  L 7 31.000206916697266  L 7 60  C 7.000000000000003 62.761423749154005  9.238576250846101 65  12.000000000000012 65  L 210 65  Z " stroke-width="2" stroke="#d7d7d7" fill="none" transform="matrix(1 0 0 1 60 154 )" mask="url(#clip3098)" />
  </g>
</svg>