<?xml version="1.0" encoding="utf-8"?>
<svg version="1.1" xmlns:xlink="http://www.w3.org/1999/xlink" width="20px" height="18px" xmlns="http://www.w3.org/2000/svg">
  <g transform="matrix(1 0 0 1 -393 -568 )">
    <path d="M 403 570.4717514421272  C 401 568.5  399 568.5  398 568.5  C 396.2 568.5  393.5 570.1275862068966  393.5 573.22  C 393.5 580.2591475979142  403 585.409743401266  403 585.409743401266  C 403 585.409743401266  412.5 580.2591475979142  412.5 573.22  C 412.5 570.1275862068966  409.8 568.5  408 568.5  C 407 568.5  405 568.5  403 570.4717514421272  Z " fill-rule="nonzero" fill="#f2f2f2" stroke="none" />
    <path d="M 403 569.8  C 401 568  399 568  398 568  C 396 568  393 569.8  393 573.22  C 393 580.6  403 586  403 586  C 403 586  413 580.6  413 573.22  C 413 569.8  410 568  408 568  C 407 568  405 568  403 569.8  Z M 403 571.1435028842544  C 405 569  407 569  408 569  C 409.6 569  412 570.4551724137931  412 573.22  C 412 579.9182951958284  403 584.8194868025321  403 584.8194868025321  C 403 584.8194868025321  394 579.9182951958284  394 573.22  C 394 570.4551724137931  396.4 569  398 569  C 399 569  401 569  403 571.1435028842544  Z " fill-rule="nonzero" fill="#adadad" stroke="none" />
  </g>
</svg>