<?xml version="1.0" encoding="utf-8"?>
<svg version="1.1" xmlns:xlink="http://www.w3.org/1999/xlink" width="10px" height="10px" xmlns="http://www.w3.org/2000/svg">
  <g transform="matrix(1 0 0 1 -197 -206 )">
    <path d="M 202 206  C 204.8 206  207 208.2  207 211  C 207 213.8  204.8 216  202 216  C 199.2 216  197 213.8  197 211  C 197 208.2  199.2 206  202 206  Z " fill-rule="nonzero" fill="#999999" stroke="none" />
    <path d="M 202 206.5  C 204.52 206.5  206.5 208.48  206.5 211  C 206.5 213.52  204.52 215.5  202 215.5  C 199.48 215.5  197.5 213.52  197.5 211  C 197.5 208.48  199.48 206.5  202 206.5  Z " stroke-width="1" stroke="#999999" fill="none" />
  </g>
</svg>