<?xml version="1.0" encoding="utf-8"?>
<svg version="1.1" xmlns:xlink="http://www.w3.org/1999/xlink" width="12px" height="12px" xmlns="http://www.w3.org/2000/svg">
  <g transform="matrix(1 0 0 1 -131 -78 )">
    <path d="M 10.561837635869566 8.123879076086954  C 12.405112092391304 6.280621603260868  12.405112092391304 3.2814538043478256  10.561837635869566 1.438179347826087  C 8.718529211956522 -0.4051290760869568  5.719395380434783 -0.4051290760869568  3.876103940217391 1.438179347826087  C 2.153855298913043 3.1604279891304357  2.0412703804347823 5.891542119565218  3.5373980978260877 7.746263586956522  L 2.2046875000000004 9.079008152173913  L 0.7720278532608696 7.6463485054347835  L 0.05570652173913043 8.36266983695652  L 1.4883491847826082 9.795295516304348  L 0.05570652173913043 11.227955163043477  L 0.7720278532608696 11.944293478260871  L 2.2046874999999995 10.511633831521738  L 3.63734714673913 11.944293478260871  L 4.3536514945652165 11.227955163043477  L 2.921008831521739 9.795295516304348  L 4.253719429347825 8.46258491847826  C 6.108457880434782 9.958729619565215  8.839555027173914 9.846161684782608  10.561837635869566 8.123879076086954  Z M 9.845516304347825 2.1545176630434772  C 11.293783967391306 3.6027683423913044  11.293783967391306 5.959256114130435  9.845516304347825 7.407557744565216  C 8.397231657608696 8.855842391304346  6.040726902173912 8.855842391304346  4.592442255434782 7.407557744565216  C 3.1441745923913045 5.959273097826086  3.1441745923913045 3.602768342391303  4.592442255434782 2.1545176630434772  C 6.040726902173914 0.7062330163043471  8.397231657608696 0.7062330163043471  9.845516304347825 2.1545176630434772  Z " fill-rule="nonzero" fill="#ec808d" stroke="none" transform="matrix(1 0 0 1 131 78 )" />
  </g>
</svg>