<?xml version="1.0" encoding="utf-8"?>
<svg version="1.1" xmlns:xlink="http://www.w3.org/1999/xlink" width="110px" height="110px" xmlns="http://www.w3.org/2000/svg">
  <defs>
    <filter x="159px" y="134px" width="110px" height="110px" filterUnits="userSpaceOnUse" id="filter7316">
      <feOffset dx="0" dy="5" in="SourceAlpha" result="shadowOffsetInner" />
      <feGaussianBlur stdDeviation="2.5" in="shadowOffsetInner" result="shadowGaussian" />
      <feComposite in2="shadowGaussian" operator="atop" in="SourceAlpha" result="shadowComposite" />
      <feColorMatrix type="matrix" values="0 0 0 0 0  0 0 0 0 0  0 0 0 0 0  0 0 0 0.2 0  " in="shadowComposite" />
    </filter>
    <g id="widget7317">
      <path d="M 214 135  C 241.44 135  263 156.56  263 184  C 263 211.44  241.44 233  214 233  C 186.56 233  165 211.44  165 184  C 165 156.56  186.56 135  214 135  Z " fill-rule="nonzero" fill="#666666" stroke="none" />
      <path d="M 214 135  C 241.44 135  263 156.56  263 184  C 263 211.44  241.44 233  214 233  C 186.56 233  165 211.44  165 184  C 165 156.56  186.56 135  214 135  Z " stroke-width="2" stroke="#999999" fill="none" />
    </g>
  </defs>
  <g transform="matrix(1 0 0 1 -159 -134 )">
    <use xlink:href="#widget7317" filter="url(#filter7316)" />
    <use xlink:href="#widget7317" />
  </g>
</svg>