<?xml version="1.0" encoding="utf-8"?>
<svg version="1.1" xmlns:xlink="http://www.w3.org/1999/xlink" width="200px" height="30px" xmlns="http://www.w3.org/2000/svg">
  <g transform="matrix(1 0 0 1 -15 -669 )">
    <path d="M 16 672  A 2 2 0 0 1 18 670 L 212 670  A 2 2 0 0 1 214 672 L 214 696  A 2 2 0 0 1 212 698 L 18 698  A 2 2 0 0 1 16 696 L 16 672  Z " fill-rule="nonzero" fill="#ffffff" stroke="none" fill-opacity="0.09803921568627451" />
    <path d="M 15.5 672  A 2.5 2.5 0 0 1 18 669.5 L 212 669.5  A 2.5 2.5 0 0 1 214.5 672 L 214.5 696  A 2.5 2.5 0 0 1 212 698.5 L 18 698.5  A 2.5 2.5 0 0 1 15.5 696 L 15.5 672  Z " stroke-width="1" stroke="#ffffff" fill="none" stroke-opacity="0.2980392156862745" />
  </g>
</svg>