<?xml version="1.0" encoding="utf-8"?>
<svg version="1.1" xmlns:xlink="http://www.w3.org/1999/xlink" width="120px" height="155px" xmlns="http://www.w3.org/2000/svg">
  <defs>
    <mask fill="white" id="clip545">
      <path d="M 5 155  C 2.2385762508460516 155  0 153.76142374915395  0 151  L 0 6  C 0 3.238576250846023  2.2385762508460516 1  5 1  L 114.23985239852402 0  C 117.00127614767803 0  119.23985239852402 2.238576250846023  119.23985239852402 5  L 119.23985239852402 150  C 119.23985239852402 152.76142374915395  117.00127614767803 155  114.23985239852402 155  L 5 155  Z " fill-rule="evenodd" />
    </mask>
  </defs>
  <g transform="matrix(1 0 0 1 -241 -249 )">
    <path d="M 5 155  C 2.2385762508460516 155  0 153.76142374915395  0 151  L 0 6  C 0 3.238576250846023  2.2385762508460516 1  5 1  L 114.23985239852402 0  C 117.00127614767803 0  119.23985239852402 2.238576250846023  119.23985239852402 5  L 119.23985239852402 150  C 119.23985239852402 152.76142374915395  117.00127614767803 155  114.23985239852402 155  L 5 155  Z " fill-rule="nonzero" fill="#ffffff" stroke="none" transform="matrix(1 0 0 1 241 249 )" />
    <path d="M 5 155  C 2.2385762508460516 155  0 153.76142374915395  0 151  L 0 6  C 0 3.238576250846023  2.2385762508460516 1  5 1  L 114.23985239852402 0  C 117.00127614767803 0  119.23985239852402 2.238576250846023  119.23985239852402 5  L 119.23985239852402 150  C 119.23985239852402 152.76142374915395  117.00127614767803 155  114.23985239852402 155  L 5 155  Z " stroke-width="2" stroke="#d7d7d7" fill="none" transform="matrix(1 0 0 1 241 249 )" mask="url(#clip545)" />
  </g>
</svg>