<?xml version="1.0" encoding="utf-8"?>
<svg version="1.1" xmlns:xlink="http://www.w3.org/1999/xlink" width="20px" height="18px" xmlns="http://www.w3.org/2000/svg">
  <g transform="matrix(1 0 0 1 -393 -690 )">
    <path d="M 403 692.4717514421272  C 401 690.5  399 690.5  398 690.5  C 396.2 690.5  393.5 692.1275862068966  393.5 695.22  C 393.5 702.2591475979142  403 707.409743401266  403 707.409743401266  C 403 707.409743401266  412.5 702.2591475979142  412.5 695.22  C 412.5 692.1275862068966  409.8 690.5  408 690.5  C 407 690.5  405 690.5  403 692.4717514421272  Z " fill-rule="nonzero" fill="#ffffff" stroke="none" />
    <path d="M 403 691.8  C 401 690  399 690  398 690  C 396 690  393 691.8  393 695.22  C 393 702.6  403 708  403 708  C 403 708  413 702.6  413 695.22  C 413 691.8  410 690  408 690  C 407 690  405 690  403 691.8  Z M 403 693.1435028842544  C 405 691  407 691  408 691  C 409.6 691  412 692.4551724137931  412 695.22  C 412 701.9182951958284  403 706.8194868025321  403 706.8194868025321  C 403 706.8194868025321  394 701.9182951958284  394 695.22  C 394 692.4551724137931  396.4 691  398 691  C 399 691  401 691  403 693.1435028842544  Z " fill-rule="nonzero" fill="#adadad" stroke="none" />
  </g>
</svg>