<?xml version="1.0" encoding="utf-8"?>
<svg version="1.1" xmlns:xlink="http://www.w3.org/1999/xlink" width="22px" height="22px" xmlns="http://www.w3.org/2000/svg">
  <g transform="matrix(1 0 0 1 -391 -63 )">
    <path d="M 16.461076923076924 15.262923076923078  L 16.461076923076927 15.264615384615382  C 17.853677099124116 13.592267625112173  18.61625070510887 11.48481258271801  18.61625070510887 9.308558397416565  C 18.61625070510887 4.168061879760718  14.44905491507241 0.0008660897242561779  9.308558397416565 0.0008660897242561779  C 4.168061879760718 0.0008660897242561779  0.0008660897242561779 4.168061879760718  0.0008660897242561779 9.308558397416565  C 0.0008660897242561779 14.44905491507241  4.168061879760718 18.61625070510887  9.308558397416565 18.61625070510887  C 11.484812582718016 18.61625070510887  13.592267625112171 17.853677099124116  15.264615384615382 16.461076923076924  L 20.317846153846155 21.514307692307693  L 21.514307692307693 20.31615384615385  L 16.461076923076924 15.262923076923078  Z M 16.923076923076923 9.30769242117038  C 16.923076923076923 13.513553208343343  13.51355309486527 16.923077036554997  9.307692307692307 16.923077036554997  C 5.101831520519341 16.923077036554997  1.692307692307691 13.513553208343343  1.692307692307691 9.30769242117038  C 1.6923077549799022 5.101831564835288  5.101831564835286 1.6923078057857646  9.307692307692307 1.6923078057857646  C 13.51355309486527 1.6923078057857646  16.923076923076923 5.101831633997414  16.923076923076923 9.30769242117038  Z " fill-rule="nonzero" fill="#7f7f7f" stroke="none" transform="matrix(1 0 0 1 391 63 )" />
  </g>
</svg>