<?xml version="1.0" encoding="utf-8"?>
<svg version="1.1" xmlns:xlink="http://www.w3.org/1999/xlink" width="275px" height="65px" xmlns="http://www.w3.org/2000/svg">
  <defs>
    <mask fill="white" id="clip3795">
      <path d="M 270 65  C 272.7614237491539 65  275 62.761423749154005  275 60  L 275 5  C 275 2.2385762508460516  272.7614237491539 0  270 0  L 12.000000000000014 0  C 9.238576250846108 0  7 2.2385762508460516  7 5  L 7 17.00004012844198  L 0 24.000079795944373  L 7 31.000206916697266  L 7 60  C 7 62.761423749154005  9.238576250846108 65  12.000000000000014 65  L 270 65  Z " fill-rule="evenodd" />
    </mask>
  </defs>
  <g transform="matrix(1 0 0 1 -60 -154 )">
    <path d="M 270 65  C 272.7614237491539 65  275 62.761423749154005  275 60  L 275 5  C 275 2.2385762508460516  272.7614237491539 0  270 0  L 12.000000000000014 0  C 9.238576250846108 0  7 2.2385762508460516  7 5  L 7 17.00004012844198  L 0 24.000079795944373  L 7 31.000206916697266  L 7 60  C 7 62.761423749154005  9.238576250846108 65  12.000000000000014 65  L 270 65  Z " fill-rule="nonzero" fill="#ffffff" stroke="none" transform="matrix(1 0 0 1 60 154 )" />
    <path d="M 270 65  C 272.7614237491539 65  275 62.761423749154005  275 60  L 275 5  C 275 2.2385762508460516  272.7614237491539 0  270 0  L 12.000000000000014 0  C 9.238576250846108 0  7 2.2385762508460516  7 5  L 7 17.00004012844198  L 0 24.000079795944373  L 7 31.000206916697266  L 7 60  C 7 62.761423749154005  9.238576250846108 65  12.000000000000014 65  L 270 65  Z " stroke-width="2" stroke="#d7d7d7" fill="none" transform="matrix(1 0 0 1 60 154 )" mask="url(#clip3795)" />
  </g>
</svg>