<?xml version="1.0" encoding="utf-8"?>
<svg version="1.1" xmlns:xlink="http://www.w3.org/1999/xlink" width="60px" height="60px" xmlns="http://www.w3.org/2000/svg">
  <g transform="matrix(1 0 0 1 -158 -341 )">
    <path d="M 188 343.5  C 203.4 343.5  215.5 355.6  215.5 371  C 215.5 386.4  203.4 398.5  188 398.5  C 172.6 398.5  160.5 386.4  160.5 371  C 160.5 355.6  172.6 343.5  188 343.5  Z " fill-rule="nonzero" fill="#07b373" stroke="none" fill-opacity="0" />
    <path d="M 188 342.5  C 203.96 342.5  216.5 355.04  216.5 371  C 216.5 386.96  203.96 399.5  188 399.5  C 172.04 399.5  159.5 386.96  159.5 371  C 159.5 355.04  172.04 342.5  188 342.5  Z " stroke-width="3" stroke="#07b373" fill="none" stroke-opacity="0.4980392156862745" />
  </g>
</svg>