<?xml version="1.0" encoding="utf-8"?>
<svg version="1.1" xmlns:xlink="http://www.w3.org/1999/xlink" width="20px" height="18px" xmlns="http://www.w3.org/2000/svg">
  <g transform="matrix(1 0 0 1 -1424 -565 )">
    <path d="M 1434 567.4717514421272  C 1432 565.5  1430 565.5  1429 565.5  C 1427.2 565.5  1424.5 567.1275862068966  1424.5 570.22  C 1424.5 577.2591475979142  1434 582.409743401266  1434 582.409743401266  C 1434 582.409743401266  1443.5 577.2591475979142  1443.5 570.22  C 1443.5 567.1275862068966  1440.8 565.5  1439 565.5  C 1438 565.5  1436 565.5  1434 567.4717514421272  Z " fill-rule="nonzero" fill="#f2f2f2" stroke="none" />
    <path d="M 1434 566.8  C 1432 565  1430 565  1429 565  C 1427 565  1424 566.8  1424 570.22  C 1424 577.6  1434 583  1434 583  C 1434 583  1444 577.6  1444 570.22  C 1444 566.8  1441 565  1439 565  C 1438 565  1436 565  1434 566.8  Z M 1434 568.1435028842544  C 1436 566  1438 566  1439 566  C 1440.6 566  1443 567.4551724137931  1443 570.22  C 1443 576.9182951958284  1434 581.8194868025321  1434 581.8194868025321  C 1434 581.8194868025321  1425 576.9182951958284  1425 570.22  C 1425 567.4551724137931  1427.4 566  1429 566  C 1430 566  1432 566  1434 568.1435028842544  Z " fill-rule="nonzero" fill="#d7d7d7" stroke="none" />
  </g>
</svg>