<?xml version="1.0" encoding="utf-8"?>
<svg version="1.1" xmlns:xlink="http://www.w3.org/1999/xlink" width="20px" height="18px" xmlns="http://www.w3.org/2000/svg">
  <g transform="matrix(1 0 0 1 -1424 -687 )">
    <path d="M 1434 689.4717514421272  C 1432 687.5  1430 687.5  1429 687.5  C 1427.2 687.5  1424.5 689.1275862068966  1424.5 692.22  C 1424.5 699.2591475979142  1434 704.409743401266  1434 704.409743401266  C 1434 704.409743401266  1443.5 699.2591475979142  1443.5 692.22  C 1443.5 689.1275862068966  1440.8 687.5  1439 687.5  C 1438 687.5  1436 687.5  1434 689.4717514421272  Z " fill-rule="nonzero" fill="#ffffff" stroke="none" />
    <path d="M 1434 688.8  C 1432 687  1430 687  1429 687  C 1427 687  1424 688.8  1424 692.22  C 1424 699.6  1434 705  1434 705  C 1434 705  1444 699.6  1444 692.22  C 1444 688.8  1441 687  1439 687  C 1438 687  1436 687  1434 688.8  Z M 1434 690.1435028842544  C 1436 688  1438 688  1439 688  C 1440.6 688  1443 689.4551724137931  1443 692.22  C 1443 698.9182951958284  1434 703.8194868025321  1434 703.8194868025321  C 1434 703.8194868025321  1425 698.9182951958284  1425 692.22  C 1425 689.4551724137931  1427.4 688  1429 688  C 1430 688  1432 688  1434 690.1435028842544  Z " fill-rule="nonzero" fill="#e4e4e4" stroke="none" />
  </g>
</svg>