<?xml version="1.0" encoding="utf-8"?>
<svg version="1.1" xmlns:xlink="http://www.w3.org/1999/xlink" width="28px" height="28px" xmlns="http://www.w3.org/2000/svg">
  <g transform="matrix(1 0 0 1 -46 -130 )">
    <path d="M 60 130  C 67.84 130  74 136.16  74 144  C 74 151.84  67.84 158  60 158  C 52.16 158  46 151.84  46 144  C 46 136.16  52.16 130  60 130  Z " fill-rule="nonzero" fill="#ffffff" stroke="none" />
    <path d="M 60 130.5  C 67.56 130.5  73.5 136.44  73.5 144  C 73.5 151.56  67.56 157.5  60 157.5  C 52.44 157.5  46.5 151.56  46.5 144  C 46.5 136.44  52.44 130.5  60 130.5  Z " stroke-width="1" stroke="#d7d7d7" fill="none" />
  </g>
</svg>