<?xml version="1.0" encoding="utf-8"?>
<svg version="1.1" xmlns:xlink="http://www.w3.org/1999/xlink" width="40px" height="40px" xmlns="http://www.w3.org/2000/svg">
  <g transform="matrix(1 0 0 1 -194 -101 )">
    <path d="M 214 101  C 225.2 101  234 109.8  234 121  C 234 132.2  225.2 141  214 141  C 202.8 141  194 132.2  194 121  C 194 109.8  202.8 101  214 101  Z " fill-rule="nonzero" fill="#e4e4e4" stroke="none" />
    <path d="M 214 101.5  C 224.92000000000002 101.5  233.5 110.08  233.5 121  C 233.5 131.92000000000002  224.92000000000002 140.5  214 140.5  C 203.07999999999998 140.5  194.5 131.92000000000002  194.5 121  C 194.5 110.08  203.07999999999998 101.5  214 101.5  Z " stroke-width="1" stroke="#e4e4e4" fill="none" />
  </g>
</svg>