<?xml version="1.0" encoding="utf-8"?>
<svg version="1.1" xmlns:xlink="http://www.w3.org/1999/xlink" width="143px" height="50px" xmlns="http://www.w3.org/2000/svg">
  <defs>
    <mask fill="white" id="clip647">
      <path d="M 5 50  C 2.2385762508461085 50  0 47.76142374915395  0 45  L 0 5  C 0 2.238576250846023  2.2385762508461085 0  5 0  L 130.2398523985239 0  C 133.00127614767803 0  135.2398523985239 2.238576250846023  135 5  L 135 16.52950975697064  L 143 25.071428571428555  L 135 32.52950975697064  L 135 45  C 135.2398523985239 47.76142374915395  133.00127614767803 50  130.2398523985239 50  L 5 50  Z " fill-rule="evenodd" />
    </mask>
  </defs>
  <g transform="matrix(1 0 0 1 -220 -74 )">
    <path d="M 5 50  C 2.2385762508461085 50  0 47.76142374915395  0 45  L 0 5  C 0 2.238576250846023  2.2385762508461085 0  5 0  L 130.2398523985239 0  C 133.00127614767803 0  135.2398523985239 2.238576250846023  135 5  L 135 16.52950975697064  L 143 25.071428571428555  L 135 32.52950975697064  L 135 45  C 135.2398523985239 47.76142374915395  133.00127614767803 50  130.2398523985239 50  L 5 50  Z " fill-rule="nonzero" fill="#ffffff" stroke="none" transform="matrix(1 0 0 1 220 74 )" />
    <path d="M 5 50  C 2.2385762508461085 50  0 47.76142374915395  0 45  L 0 5  C 0 2.238576250846023  2.2385762508461085 0  5 0  L 130.2398523985239 0  C 133.00127614767803 0  135.2398523985239 2.238576250846023  135 5  L 135 16.52950975697064  L 143 25.071428571428555  L 135 32.52950975697064  L 135 45  C 135.2398523985239 47.76142374915395  133.00127614767803 50  130.2398523985239 50  L 5 50  Z " stroke-width="2" stroke="#d7d7d7" fill="none" transform="matrix(1 0 0 1 220 74 )" mask="url(#clip647)" />
  </g>
</svg>