<?xml version="1.0" encoding="utf-8"?>
<svg version="1.1" xmlns:xlink="http://www.w3.org/1999/xlink" width="19px" height="23px" xmlns="http://www.w3.org/2000/svg">
  <g transform="matrix(1 0 0 1 -15 -285 )">
    <path d="M 16.53125 1  L 2.46875 1  C 1.6058050783893858 0.5625  0.90625 1.2620550783893854  1 2.125  L 1 20.853125000000002  C 0.9062498518265079 20.853402801504444  0.9062497777397578 20.85368060304388  0.9062497777397578 20.853958404587836  C 0.9062497777397578 21.71690332619845  1.6058048561291436 22.416458404587836  2.468749777739758 22.416458404587836  C 2.7171141633171523 22.416458404587836  2.961900669167891 22.35725255953785  3.1828125000000003 22.243750000000002  L 9.5 18.99375  L 15.8171875 22.24375  C 16.038099330832107 22.357252559537848  16.282885836682848 22.416458404587832  16.53125022226024 22.416458404587832  C 17.394195143870856 22.416458404587832  18.09375022226024 21.716903326198448  18.09375022226024 20.853958404587832  C 18.09375022226024 20.85368060304561  18.09375014817349 20.853402801502707  18 20.853125  L 18 2.125  C 18.09375 1.2620550783893854  17.394194921610616 0.5625  16.53125 1  Z M 9.5 5.664062499999999  L 10.903125 8.5078125  L 14.040624999999999 8.964062499999999  L 11.770312499999998 11.1765625  L 12.306249999999999 14.3015625  L 9.5 12.828125000000002  L 6.69375 14.303125000000001  L 7.229687499999999 11.178125000000001  L 4.959375 8.965625  L 8.096874999999999 8.509375  L 9.5 5.664062499999999  Z " fill-rule="nonzero" fill="#000000" stroke="none" transform="matrix(1 0 0 1 15 285 )" />
  </g>
</svg>