<?xml version="1.0" encoding="utf-8"?>
<svg version="1.1" xmlns:xlink="http://www.w3.org/1999/xlink" width="14px" height="18px" xmlns="http://www.w3.org/2000/svg">
  <g transform="matrix(1 0 0 1 -15 -70 )">
    <path d="M 9.474609375 8.12109375  C 10.158203125 7.535156249999999  10.5 6.828125  10.5 6.000000000000001  C 10.5 5.171874999999999  10.158203125 4.46484375  9.474609375 3.878906249999999  C 8.791015625 3.292968750000001  7.966145833333334 2.999999999999999  7 2.999999999999999  C 6.033854166666667 2.999999999999999  5.208984375 3.292968750000001  4.525390625 3.878906249999999  C 3.841796875 4.46484375  3.5 5.171874999999999  3.5 6.000000000000001  C 3.5 6.828125  3.841796875 7.535156249999999  4.525390625 8.12109375  C 5.208984375 8.70703125  6.033854166666667 9  7 9  C 7.966145833333334 9  8.791015625 8.70703125  9.474609375 8.12109375  Z M 11.94921875 1.7578125  C 13.31640625 2.929687499999999  14 4.343749999999997  14 6.000000000000001  C 14 6.851562499999999  13.849609375 7.55078125  13.548828125 8.09765625  L 8.572265625 17.16796875  C 8.426432291666668 17.42578125  8.2099609375 17.62890625  7.9228515625 17.77734375  C 7.6357421875 17.92578125  7.328125 18  7 18  C 6.671875 18  6.3642578125 17.92578125  6.0771484375 17.77734375  C 5.7900390625 17.62890625  5.578125 17.42578125  5.44140625 17.16796875  L 0.451171875 8.09765625  C 0.150390625 7.55078125  0 6.851562499999999  0 6.000000000000001  C 0 4.343749999999997  0.68359375 2.929687499999999  2.05078125 1.7578125  C 3.4179687500000004 0.5859375000000007  5.067708333333334 0  7 0  C 8.932291666666668 0  10.58203125 0.5859375000000007  11.94921875 1.7578125  Z " fill-rule="nonzero" fill="#555555" stroke="none" transform="matrix(1 0 0 1 15 70 )" />
  </g>
</svg>