<?xml version="1.0" encoding="utf-8"?>
<svg version="1.1" xmlns:xlink="http://www.w3.org/1999/xlink" width="58px" height="58px" xmlns="http://www.w3.org/2000/svg">
  <g transform="matrix(1 0 0 1 -627 -768 )">
    <path d="M 656 768  C 672.24 768  685 780.76  685 797  C 685 813.24  672.24 826  656 826  C 639.76 826  627 813.24  627 797  C 627 780.76  639.76 768  656 768  Z " fill-rule="nonzero" fill="#f2f2f2" stroke="none" />
    <path d="M 656 768.5  C 671.96 768.5  684.5 781.04  684.5 797  C 684.5 812.96  671.96 825.5  656 825.5  C 640.04 825.5  627.5 812.96  627.5 797  C 627.5 781.04  640.04 768.5  656 768.5  Z " stroke-width="1" stroke="#e5e5e5" fill="none" />
  </g>
</svg>