<?xml version="1.0" encoding="utf-8"?>
<svg version="1.1" xmlns:xlink="http://www.w3.org/1999/xlink" width="40px" height="40px" xmlns="http://www.w3.org/2000/svg">
  <g transform="matrix(1 0 0 1 -636 -777 )">
    <path d="M 656 777  C 667.2 777  676 785.8  676 797  C 676 808.2  667.2 817  656 817  C 644.8 817  636 808.2  636 797  C 636 785.8  644.8 777  656 777  Z " fill-rule="nonzero" fill="#d7d7d7" stroke="none" />
    <path d="M 656 777.5  C 666.92 777.5  675.5 786.08  675.5 797  C 675.5 807.92  666.92 816.5  656 816.5  C 645.08 816.5  636.5 807.92  636.5 797  C 636.5 786.08  645.08 777.5  656 777.5  Z " stroke-width="1" stroke="#d7d7d7" fill="none" />
  </g>
</svg>