<?xml version="1.0" encoding="utf-8"?>
<svg version="1.1" xmlns:xlink="http://www.w3.org/1999/xlink" width="40px" height="40px" xmlns="http://www.w3.org/2000/svg">
  <g transform="matrix(1 0 0 1 -168 -675 )">
    <path d="M 188 675  C 199.2 675  208 683.8  208 695  C 208 706.2  199.2 715  188 715  C 176.8 715  168 706.2  168 695  C 168 683.8  176.8 675  188 675  Z " fill-rule="nonzero" fill="#d7d7d7" stroke="none" />
    <path d="M 188 675.5  C 198.92000000000002 675.5  207.5 684.08  207.5 695  C 207.5 705.92  198.92000000000002 714.5  188 714.5  C 177.07999999999998 714.5  168.5 705.92  168.5 695  C 168.5 684.08  177.07999999999998 675.5  188 675.5  Z " stroke-width="1" stroke="#d7d7d7" fill="none" />
  </g>
</svg>