<?xml version="1.0" encoding="utf-8"?>
<svg version="1.1" xmlns:xlink="http://www.w3.org/1999/xlink" width="45px" height="45px" xmlns="http://www.w3.org/2000/svg">
  <g transform="matrix(1 0 0 1 -1086 -7 )">
    <path d="M 1086.5055700278124 28.99999123439075  C 1086.7713761529228 17.080657752736045  1096.516846818258 7.5  1108.5 7.5  C 1120.6502644962773 7.5  1130.5 17.349735503722542  1130.5 29.5  C 1130.5 41.65026449627746  1120.6502644962773 51.5  1108.5 51.5  C 1096.516846818258 51.5  1086.7713761529228 41.91934224726397  1086.5055700278124 30.000008765609266  L 1086.505570027641 28.999991242085844  Z " fill-rule="nonzero" fill="#ffcc00" stroke="none" />
    <path d="M 1086.5055700278124 28.99999123439075  C 1086.7713761529228 17.080657752736045  1096.516846818258 7.5  1108.5 7.5  C 1120.6502644962773 7.5  1130.5 17.349735503722542  1130.5 29.5  C 1130.5 41.65026449627746  1120.6502644962773 51.5  1108.5 51.5  C 1096.516846818258 51.5  1086.7713761529228 41.91934224726397  1086.5055700278124 30.000008765609266  L 1086.505570027641 28.999991242085844  Z " stroke-width="1" stroke="#ffcc00" fill="none" />
  </g>
</svg>