<?xml version="1.0" encoding="utf-8"?>
<svg version="1.1" xmlns:xlink="http://www.w3.org/1999/xlink" width="40px" height="40px" xmlns="http://www.w3.org/2000/svg">
  <g transform="matrix(1 0 0 1 -938 -163 )">
    <path d="M 958 163  C 969.2 163  978 171.8  978 183  C 978 194.2  969.2 203  958 203  C 946.8 203  938 194.2  938 183  C 938 171.8  946.8 163  958 163  Z " fill-rule="nonzero" fill="#ffffff" stroke="none" />
    <path d="M 958 163.5  C 968.92 163.5  977.5 172.07999999999998  977.5 183  C 977.5 193.92000000000002  968.92 202.5  958 202.5  C 947.08 202.5  938.5 193.92000000000002  938.5 183  C 938.5 172.07999999999998  947.08 163.5  958 163.5  Z " stroke-width="1" stroke="#d7d7d7" fill="none" />
  </g>
</svg>