<?xml version="1.0" encoding="utf-8"?>
<svg version="1.1" xmlns:xlink="http://www.w3.org/1999/xlink" width="58px" height="58px" xmlns="http://www.w3.org/2000/svg">
  <g transform="matrix(1 0 0 1 -159 -668 )">
    <path d="M 188 668  C 204.24 668  217 680.76  217 697  C 217 713.24  204.24 726  188 726  C 171.76 726  159 713.24  159 697  C 159 680.76  171.76 668  188 668  Z " fill-rule="nonzero" fill="#f2f2f2" stroke="none" />
    <path d="M 188 668.5  C 203.96 668.5  216.5 681.04  216.5 697  C 216.5 712.96  203.96 725.5  188 725.5  C 172.04 725.5  159.5 712.96  159.5 697  C 159.5 681.04  172.04 668.5  188 668.5  Z " stroke-width="1" stroke="#d7d7d7" fill="none" />
  </g>
</svg>