<?xml version="1.0" encoding="utf-8"?>
<svg version="1.1" xmlns:xlink="http://www.w3.org/1999/xlink" width="28px" height="28px" xmlns="http://www.w3.org/2000/svg">
  <g transform="matrix(1 0 0 1 -431 -114 )">
    <path d="M 445 114  C 452.84 114  459 120.16  459 128  C 459 135.84  452.84 142  445 142  C 437.16 142  431 135.84  431 128  C 431 120.16  437.16 114  445 114  Z " fill-rule="nonzero" fill="#ffffff" stroke="none" />
    <path d="M 445 114.5  C 452.56 114.5  458.5 120.44  458.5 128  C 458.5 135.56  452.56 141.5  445 141.5  C 437.44 141.5  431.5 135.56  431.5 128  C 431.5 120.44  437.44 114.5  445 114.5  Z " stroke-width="1" stroke="#d7d7d7" fill="none" />
  </g>
</svg>