<?xml version="1.0" encoding="utf-8"?>
<svg version="1.1" xmlns:xlink="http://www.w3.org/1999/xlink" width="180px" height="30px" xmlns="http://www.w3.org/2000/svg">
  <g transform="matrix(1 0 0 1 -20 -568 )">
    <path d="M 21 571  A 2 2 0 0 1 23 569 L 197 569  A 2 2 0 0 1 199 571 L 199 595  A 2 2 0 0 1 197 597 L 23 597  A 2 2 0 0 1 21 595 L 21 571  Z " fill-rule="nonzero" fill="#000000" stroke="none" fill-opacity="0.2980392156862745" />
    <path d="M 20.5 571  A 2.5 2.5 0 0 1 23 568.5 L 197 568.5  A 2.5 2.5 0 0 1 199.5 571 L 199.5 595  A 2.5 2.5 0 0 1 197 597.5 L 23 597.5  A 2.5 2.5 0 0 1 20.5 595 L 20.5 571  Z " stroke-width="1" stroke="#000000" fill="none" stroke-opacity="0.2980392156862745" />
  </g>
</svg>