<?xml version="1.0" encoding="utf-8"?>
<svg version="1.1" xmlns:xlink="http://www.w3.org/1999/xlink" width="86px" height="31px" xmlns="http://www.w3.org/2000/svg">
  <g transform="matrix(1 0 0 1 -334 -6 )">
    <path d="M 335 21.500000000000004  A 14.5 14.5 0 0 1 349.5 7 L 404.5 7  A 14.5 14.5 0 0 1 419 21.5 A 14.5 14.5 0 0 1 404.5 36 L 349.5 36  A 14.5 14.5 0 0 1 335 21.500000000000004 Z " fill-rule="nonzero" fill="#333333" stroke="none" fill-opacity="0.4980392156862745" />
    <path d="M 334.5 21.500000000000004  A 15 15 0 0 1 349.5 6.5 L 404.5 6.5  A 15 15 0 0 1 419.5 21.5 A 15 15 0 0 1 404.5 36.5 L 349.5 36.5  A 15 15 0 0 1 334.5 21.500000000000004 Z " stroke-width="1" stroke="#666666" fill="none" stroke-opacity="0.6" />
  </g>
</svg>