<?xml version="1.0" encoding="utf-8"?>
<svg version="1.1" xmlns:xlink="http://www.w3.org/1999/xlink" width="20px" height="18px" xmlns="http://www.w3.org/2000/svg">
  <g transform="matrix(1 0 0 1 -1544 -565 )">
    <path d="M 1554 567.4717514421272  C 1552 565.5  1550 565.5  1549 565.5  C 1547.2 565.5  1544.5 567.1275862068966  1544.5 570.22  C 1544.5 577.2591475979142  1554 582.409743401266  1554 582.409743401266  C 1554 582.409743401266  1563.5 577.2591475979142  1563.5 570.22  C 1563.5 567.1275862068966  1560.8 565.5  1559 565.5  C 1558 565.5  1556 565.5  1554 567.4717514421272  Z " fill-rule="nonzero" fill="#f2f2f2" stroke="none" />
    <path d="M 1554 566.8  C 1552 565  1550 565  1549 565  C 1547 565  1544 566.8  1544 570.22  C 1544 577.6  1554 583  1554 583  C 1554 583  1564 577.6  1564 570.22  C 1564 566.8  1561 565  1559 565  C 1558 565  1556 565  1554 566.8  Z M 1554 568.1435028842544  C 1556 566  1558 566  1559 566  C 1560.6 566  1563 567.4551724137931  1563 570.22  C 1563 576.9182951958284  1554 581.8194868025321  1554 581.8194868025321  C 1554 581.8194868025321  1545 576.9182951958284  1545 570.22  C 1545 567.4551724137931  1547.4 566  1549 566  C 1550 566  1552 566  1554 568.1435028842544  Z " fill-rule="nonzero" fill="#d7d7d7" stroke="none" />
  </g>
</svg>