<?xml version="1.0" encoding="utf-8"?>
<svg version="1.1" xmlns:xlink="http://www.w3.org/1999/xlink" width="20px" height="18px" xmlns="http://www.w3.org/2000/svg">
  <g transform="matrix(1 0 0 1 -1670 -565 )">
    <path d="M 1680 567.4717514421272  C 1678 565.5  1676 565.5  1675 565.5  C 1673.2 565.5  1670.5 567.1275862068966  1670.5 570.22  C 1670.5 577.2591475979142  1680 582.409743401266  1680 582.409743401266  C 1680 582.409743401266  1689.5 577.2591475979142  1689.5 570.22  C 1689.5 567.1275862068966  1686.8 565.5  1685 565.5  C 1684 565.5  1682 565.5  1680 567.4717514421272  Z " fill-rule="nonzero" fill="#f2f2f2" stroke="none" />
    <path d="M 1680 566.8  C 1678 565  1676 565  1675 565  C 1673 565  1670 566.8  1670 570.22  C 1670 577.6  1680 583  1680 583  C 1680 583  1690 577.6  1690 570.22  C 1690 566.8  1687 565  1685 565  C 1684 565  1682 565  1680 566.8  Z M 1680 568.1435028842544  C 1682 566  1684 566  1685 566  C 1686.6 566  1689 567.4551724137931  1689 570.22  C 1689 576.9182951958284  1680 581.8194868025321  1680 581.8194868025321  C 1680 581.8194868025321  1671 576.9182951958284  1671 570.22  C 1671 567.4551724137931  1673.4 566  1675 566  C 1676 566  1678 566  1680 568.1435028842544  Z " fill-rule="nonzero" fill="#d7d7d7" stroke="none" />
  </g>
</svg>