<?xml version="1.0" encoding="utf-8"?>
<svg version="1.1" xmlns:xlink="http://www.w3.org/1999/xlink" width="20px" height="18px" xmlns="http://www.w3.org/2000/svg">
  <g transform="matrix(1 0 0 1 -1720 -565 )">
    <path d="M 1730 567.4717514421272  C 1728 565.5  1726 565.5  1725 565.5  C 1723.2 565.5  1720.5 567.1275862068966  1720.5 570.22  C 1720.5 577.2591475979142  1730 582.409743401266  1730 582.409743401266  C 1730 582.409743401266  1739.5 577.2591475979142  1739.5 570.22  C 1739.5 567.1275862068966  1736.8 565.5  1735 565.5  C 1734 565.5  1732 565.5  1730 567.4717514421272  Z " fill-rule="nonzero" fill="#f2f2f2" stroke="none" />
    <path d="M 1730 566.8  C 1728 565  1726 565  1725 565  C 1723 565  1720 566.8  1720 570.22  C 1720 577.6  1730 583  1730 583  C 1730 583  1740 577.6  1740 570.22  C 1740 566.8  1737 565  1735 565  C 1734 565  1732 565  1730 566.8  Z M 1730 568.1435028842544  C 1732 566  1734 566  1735 566  C 1736.6 566  1739 567.4551724137931  1739 570.22  C 1739 576.9182951958284  1730 581.8194868025321  1730 581.8194868025321  C 1730 581.8194868025321  1721 576.9182951958284  1721 570.22  C 1721 567.4551724137931  1723.4 566  1725 566  C 1726 566  1728 566  1730 568.1435028842544  Z " fill-rule="nonzero" fill="#d7d7d7" stroke="none" />
  </g>
</svg>