<?xml version="1.0" encoding="utf-8"?>
<svg version="1.1" xmlns:xlink="http://www.w3.org/1999/xlink" width="20px" height="18px" xmlns="http://www.w3.org/2000/svg">
  <g transform="matrix(1 0 0 1 -1544 -687 )">
    <path d="M 1554 689.4717514421272  C 1552 687.5  1550 687.5  1549 687.5  C 1547.2 687.5  1544.5 689.1275862068966  1544.5 692.22  C 1544.5 699.2591475979142  1554 704.409743401266  1554 704.409743401266  C 1554 704.409743401266  1563.5 699.2591475979142  1563.5 692.22  C 1563.5 689.1275862068966  1560.8 687.5  1559 687.5  C 1558 687.5  1556 687.5  1554 689.4717514421272  Z " fill-rule="nonzero" fill="#ffffff" stroke="none" />
    <path d="M 1554 688.8  C 1552 687  1550 687  1549 687  C 1547 687  1544 688.8  1544 692.22  C 1544 699.6  1554 705  1554 705  C 1554 705  1564 699.6  1564 692.22  C 1564 688.8  1561 687  1559 687  C 1558 687  1556 687  1554 688.8  Z M 1554 690.1435028842544  C 1556 688  1558 688  1559 688  C 1560.6 688  1563 689.4551724137931  1563 692.22  C 1563 698.9182951958284  1554 703.8194868025321  1554 703.8194868025321  C 1554 703.8194868025321  1545 698.9182951958284  1545 692.22  C 1545 689.4551724137931  1547.4 688  1549 688  C 1550 688  1552 688  1554 690.1435028842544  Z " fill-rule="nonzero" fill="#e4e4e4" stroke="none" />
  </g>
</svg>