<?xml version="1.0" encoding="utf-8"?>
<svg version="1.1" xmlns:xlink="http://www.w3.org/1999/xlink" width="20px" height="18px" xmlns="http://www.w3.org/2000/svg">
  <g transform="matrix(1 0 0 1 -1720 -687 )">
    <path d="M 1730 689.4717514421272  C 1728 687.5  1726 687.5  1725 687.5  C 1723.2 687.5  1720.5 689.1275862068966  1720.5 692.22  C 1720.5 699.2591475979142  1730 704.409743401266  1730 704.409743401266  C 1730 704.409743401266  1739.5 699.2591475979142  1739.5 692.22  C 1739.5 689.1275862068966  1736.8 687.5  1735 687.5  C 1734 687.5  1732 687.5  1730 689.4717514421272  Z " fill-rule="nonzero" fill="#ffffff" stroke="none" />
    <path d="M 1730 688.8  C 1728 687  1726 687  1725 687  C 1723 687  1720 688.8  1720 692.22  C 1720 699.6  1730 705  1730 705  C 1730 705  1740 699.6  1740 692.22  C 1740 688.8  1737 687  1735 687  C 1734 687  1732 687  1730 688.8  Z M 1730 690.1435028842544  C 1732 688  1734 688  1735 688  C 1736.6 688  1739 689.4551724137931  1739 692.22  C 1739 698.9182951958284  1730 703.8194868025321  1730 703.8194868025321  C 1730 703.8194868025321  1721 698.9182951958284  1721 692.22  C 1721 689.4551724137931  1723.4 688  1725 688  C 1726 688  1728 688  1730 690.1435028842544  Z " fill-rule="nonzero" fill="#e4e4e4" stroke="none" />
  </g>
</svg>