<?xml version="1.0" encoding="utf-8"?>
<svg version="1.1" xmlns:xlink="http://www.w3.org/1999/xlink" width="20px" height="18px" xmlns="http://www.w3.org/2000/svg">
  <g transform="matrix(1 0 0 1 -1670 -687 )">
    <path d="M 1680 689.4717514421272  C 1678 687.5  1676 687.5  1675 687.5  C 1673.2 687.5  1670.5 689.1275862068966  1670.5 692.22  C 1670.5 699.2591475979142  1680 704.409743401266  1680 704.409743401266  C 1680 704.409743401266  1689.5 699.2591475979142  1689.5 692.22  C 1689.5 689.1275862068966  1686.8 687.5  1685 687.5  C 1684 687.5  1682 687.5  1680 689.4717514421272  Z " fill-rule="nonzero" fill="#ffffff" stroke="none" />
    <path d="M 1680 688.8  C 1678 687  1676 687  1675 687  C 1673 687  1670 688.8  1670 692.22  C 1670 699.6  1680 705  1680 705  C 1680 705  1690 699.6  1690 692.22  C 1690 688.8  1687 687  1685 687  C 1684 687  1682 687  1680 688.8  Z M 1680 690.1435028842544  C 1682 688  1684 688  1685 688  C 1686.6 688  1689 689.4551724137931  1689 692.22  C 1689 698.9182951958284  1680 703.8194868025321  1680 703.8194868025321  C 1680 703.8194868025321  1671 698.9182951958284  1671 692.22  C 1671 689.4551724137931  1673.4 688  1675 688  C 1676 688  1678 688  1680 690.1435028842544  Z " fill-rule="nonzero" fill="#e4e4e4" stroke="none" />
  </g>
</svg>