<?xml version="1.0" encoding="utf-8"?>
<svg version="1.1" xmlns:xlink="http://www.w3.org/1999/xlink" width="58px" height="58px" xmlns="http://www.w3.org/2000/svg">
  <g transform="matrix(1 0 0 1 -612 -762 )">
    <path d="M 641 762  C 657.24 762  670 774.76  670 791  C 670 807.24  657.24 820  641 820  C 624.76 820  612 807.24  612 791  C 612 774.76  624.76 762  641 762  Z " fill-rule="nonzero" fill="#f2f2f2" stroke="none" />
    <path d="M 641 762.5  C 656.96 762.5  669.5 775.04  669.5 791  C 669.5 806.96  656.96 819.5  641 819.5  C 625.04 819.5  612.5 806.96  612.5 791  C 612.5 775.04  625.04 762.5  641 762.5  Z " stroke-width="1" stroke="#e5e5e5" fill="none" />
  </g>
</svg>