<?xml version="1.0" encoding="utf-8"?>
<svg version="1.1" xmlns:xlink="http://www.w3.org/1999/xlink" width="58px" height="58px" xmlns="http://www.w3.org/2000/svg">
  <g transform="matrix(1 0 0 1 -1074 -762 )">
    <path d="M 1103 762  C 1119.24 762  1132 774.76  1132 791  C 1132 807.24  1119.24 820  1103 820  C 1086.76 820  1074 807.24  1074 791  C 1074 774.76  1086.76 762  1103 762  Z " fill-rule="nonzero" fill="#f2f2f2" stroke="none" />
    <path d="M 1103 762.5  C 1118.96 762.5  1131.5 775.04  1131.5 791  C 1131.5 806.96  1118.96 819.5  1103 819.5  C 1087.04 819.5  1074.5 806.96  1074.5 791  C 1074.5 775.04  1087.04 762.5  1103 762.5  Z " stroke-width="1" stroke="#e5e5e5" fill="none" />
  </g>
</svg>