<?xml version="1.0" encoding="utf-8"?>
<svg version="1.1" xmlns:xlink="http://www.w3.org/1999/xlink" width="40px" height="40px" xmlns="http://www.w3.org/2000/svg">
  <g transform="matrix(1 0 0 1 -621 -771 )">
    <path d="M 641 771  C 652.2 771  661 779.8  661 791  C 661 802.2  652.2 811  641 811  C 629.8 811  621 802.2  621 791  C 621 779.8  629.8 771  641 771  Z " fill-rule="nonzero" fill="#d7d7d7" stroke="none" />
    <path d="M 641 771.5  C 651.92 771.5  660.5 780.08  660.5 791  C 660.5 801.92  651.92 810.5  641 810.5  C 630.08 810.5  621.5 801.92  621.5 791  C 621.5 780.08  630.08 771.5  641 771.5  Z " stroke-width="1" stroke="#d7d7d7" fill="none" />
  </g>
</svg>