<?xml version="1.0" encoding="utf-8"?>
<svg version="1.1" xmlns:xlink="http://www.w3.org/1999/xlink" width="40px" height="40px" xmlns="http://www.w3.org/2000/svg">
  <g transform="matrix(1 0 0 1 -1083 -771 )">
    <path d="M 1103 771  C 1114.2 771  1123 779.8  1123 791  C 1123 802.2  1114.2 811  1103 811  C 1091.8 811  1083 802.2  1083 791  C 1083 779.8  1091.8 771  1103 771  Z " fill-rule="nonzero" fill="#d7d7d7" stroke="none" />
    <path d="M 1103 771.5  C 1113.92 771.5  1122.5 780.08  1122.5 791  C 1122.5 801.92  1113.92 810.5  1103 810.5  C 1092.08 810.5  1083.5 801.92  1083.5 791  C 1083.5 780.08  1092.08 771.5  1103 771.5  Z " stroke-width="1" stroke="#d7d7d7" fill="none" />
  </g>
</svg>