<?xml version="1.0" encoding="utf-8"?>
<svg version="1.1" xmlns:xlink="http://www.w3.org/1999/xlink" width="10px" height="10px" xmlns="http://www.w3.org/2000/svg">
  <g transform="matrix(1 0 0 1 -195 -206 )">
    <path d="M 200 206  C 202.8 206  205 208.2  205 211  C 205 213.8  202.8 216  200 216  C 197.2 216  195 213.8  195 211  C 195 208.2  197.2 206  200 206  Z " fill-rule="nonzero" fill="#333333" stroke="none" />
    <path d="M 200 206.5  C 202.52 206.5  204.5 208.48  204.5 211  C 204.5 213.52  202.52 215.5  200 215.5  C 197.48 215.5  195.5 213.52  195.5 211  C 195.5 208.48  197.48 206.5  200 206.5  Z " stroke-width="1" stroke="#999999" fill="none" />
  </g>
</svg>