<?xml version="1.0" encoding="utf-8"?>
<svg version="1.1" xmlns:xlink="http://www.w3.org/1999/xlink" width="50px" height="20px" xmlns="http://www.w3.org/2000/svg">
  <g transform="matrix(1 0 0 1 -114 -302 )">
    <path d="M 121.95967477524977 302.5  C 121.95967477524977 302.5  120.28960489827463 302.834013975395  120.28960489827463 302.834013975395  C 120.28960489827463 302.834013975395  114.56086363289651 312  114.56086363289651 312  C 114.56086363289651 312  120.28960489827463 321.165986024605  120.28960489827463 321.165986024605  C 120.28960489827463 321.165986024605  121.95967477524977 321.5  121.95967477524977 321.5  C 121.95967477524977 321.5  163.5 321.5  163.5 321.5  C 163.5 321.5  163.5 302.5  163.5 302.5  C 163.5 302.5  121.95967477524977 302.5  121.95967477524977 302.5  Z " fill-rule="nonzero" fill="#f2f2f2" stroke="none" />
    <path d="M 121.95967477524977 302.5  C 121.95967477524977 302.5  120.28960489827463 302.834013975395  120.28960489827463 302.834013975395  C 120.28960489827463 302.834013975395  114.56086363289651 312  114.56086363289651 312  C 114.56086363289651 312  120.28960489827463 321.165986024605  120.28960489827463 321.165986024605  C 120.28960489827463 321.165986024605  121.95967477524977 321.5  121.95967477524977 321.5  C 121.95967477524977 321.5  163.5 321.5  163.5 321.5  C 163.5 321.5  163.5 302.5  163.5 302.5  C 163.5 302.5  121.95967477524977 302.5  121.95967477524977 302.5  Z " stroke-width="1" stroke="#e4e4e4" fill="none" />
  </g>
</svg>