<?xml version="1.0" encoding="utf-8"?>
<svg version="1.1" xmlns:xlink="http://www.w3.org/1999/xlink" width="40px" height="40px" xmlns="http://www.w3.org/2000/svg">
  <g transform="matrix(1 0 0 1 -168 -90 )">
    <path d="M 188 90  C 199.2 90  208 98.8  208 110  C 208 121.2  199.2 130  188 130  C 176.8 130  168 121.2  168 110  C 168 98.8  176.8 90  188 90  Z " fill-rule="nonzero" fill="#e4e4e4" stroke="none" />
    <path d="M 188 90.5  C 198.92000000000002 90.5  207.5 99.08  207.5 110  C 207.5 120.92  198.92000000000002 129.5  188 129.5  C 177.07999999999998 129.5  168.5 120.92  168.5 110  C 168.5 99.08  177.07999999999998 90.5  188 90.5  Z " stroke-width="1" stroke="#e4e4e4" fill="none" />
  </g>
</svg>