<?xml version="1.0" encoding="utf-8"?>
<svg version="1.1" xmlns:xlink="http://www.w3.org/1999/xlink" width="12px" height="15px" xmlns="http://www.w3.org/2000/svg">
  <g transform="matrix(1 0 0 1 -29 -576 )">
    <path d="M 8.12109375 8.12109375  C 8.70703125 7.53515625  9 6.828125  9 6  C 9 5.171875  8.70703125 4.46484375  8.12109375 3.87890625  C 7.53515625 3.29296875  6.828125 3  6 3  C 5.171875 3  4.46484375 3.29296875  3.87890625 3.87890625  C 3.29296875 4.46484375  3 5.171875  3 6  C 3 6.828125  3.29296875 7.53515625  3.87890625 8.12109375  C 4.46484375 8.70703125  5.171875 9  6 9  C 6.828125 9  7.53515625 8.70703125  8.12109375 8.12109375  Z M 10.2421875 1.7578125  C 11.4140625 2.9296875  12 4.34375  12 6  C 12 6.8515625  11.87109375 7.55078125  11.61328125 8.09765625  L 7.34765625 14.16796875  C 7.22265625 14.42578125  7.037109375 14.62890625  6.791015625 14.77734375  C 6.544921875 14.92578125  6.28125 15  6 15  C 5.71875 15  5.455078125 14.92578125  5.208984375 14.77734375  C 4.962890625 14.62890625  4.78125 14.42578125  4.6640625 14.16796875  L 0.38671875 8.09765625  C 0.12890625 7.55078125  0 6.8515625  0 6  C 0 4.34375  0.5859375 2.9296875  1.7578125 1.7578125  C 2.9296875 0.5859375  4.34375 0  6 0  C 7.65625 0  9.0703125 0.5859375  10.2421875 1.7578125  Z " fill-rule="nonzero" fill="#ffffff" stroke="none" transform="matrix(1 0 0 1 29 576 )" />
  </g>
</svg>