<?xml version="1.0" encoding="utf-8"?>
<svg version="1.1" xmlns:xlink="http://www.w3.org/1999/xlink" width="15px" height="15px" xmlns="http://www.w3.org/2000/svg">
  <g transform="matrix(1 0 0 1 -141 -133 )">
    <path d="M 13.202297044836957 10.154848845108694  C 15.50639011548913 7.850777004076085  15.50639011548913 4.101817255434781  13.202297044836957 1.7977241847826086  C 10.898161514945652 -0.506411345108696  7.149244225543479 -0.506411345108696  4.845129925271739 1.7977241847826086  C 2.6923191236413038 3.950534986413045  2.5515879755434776 7.3644276494565215  4.421747622282609 9.682829483695652  L 2.755859375000001 11.34876019021739  L 0.965034816576087 9.55793563179348  L 0.06963315217391304 10.453337296195652  L 1.8604364809782605 12.244119395380434  L 0.06963315217391304 14.034943953804348  L 0.965034816576087 14.930366847826088  L 2.7558593749999996 13.139542289402174  L 4.546683933423912 14.930366847826088  L 5.442064368206521 14.034943953804348  L 3.6512610394021743 12.244119395380434  L 5.317149286684781 10.578231148097824  C 7.6355723505434785 12.44841202445652  11.04944378396739 12.30770210597826  13.202297044836957 10.154848845108694  Z M 12.306895380434781 2.693147078804347  C 14.11722995923913 4.503460427989131  14.11722995923913 7.449070142663043  12.306895380434781 9.25944718070652  C 10.49653957201087 11.069802989130434  7.550908627717389 11.069802989130434  5.740552819293477 9.25944718070652  C 3.930218240489131 7.449091372282608  3.930218240489131 4.503460427989129  5.740552819293477 2.693147078804347  C 7.5509086277173925 0.8827912703804338  10.49653957201087 0.8827912703804338  12.306895380434781 2.693147078804347  Z " fill-rule="nonzero" fill="#ec808d" stroke="none" transform="matrix(1 0 0 1 141 133 )" />
  </g>
</svg>