<?xml version="1.0" encoding="utf-8"?>
<svg version="1.1" xmlns:xlink="http://www.w3.org/1999/xlink" width="22px" height="22px" xmlns="http://www.w3.org/2000/svg">
  <g transform="matrix(1 0 0 1 -24 -572 )">
    <path d="M 25 575  A 2 2 0 0 1 27 573 L 43 573  A 2 2 0 0 1 45 575 L 45 591  A 2 2 0 0 1 43 593 L 27 593  A 2 2 0 0 1 25 591 L 25 575  Z " fill-rule="nonzero" fill="#07b373" stroke="none" />
    <path d="M 24.5 575  A 2.5 2.5 0 0 1 27 572.5 L 43 572.5  A 2.5 2.5 0 0 1 45.5 575 L 45.5 591  A 2.5 2.5 0 0 1 43 593.5 L 27 593.5  A 2.5 2.5 0 0 1 24.5 591 L 24.5 575  Z " stroke-width="1" stroke="#ffffff" fill="none" stroke-opacity="0.2" />
  </g>
</svg>