<?xml version="1.0" encoding="utf-8"?>
<svg version="1.1" xmlns:xlink="http://www.w3.org/1999/xlink" width="10px" height="13px" xmlns="http://www.w3.org/2000/svg">
  <g transform="matrix(1 0 0 1 -30 -576 )">
    <path d="M 6.767578125 7.03828125  C 7.255859375 6.53046875  7.5 5.917708333333334  7.5 5.2  C 7.5 4.482291666666667  7.255859375 3.86953125  6.767578125 3.36171875  C 6.279296875 2.85390625  5.690104166666666 2.6  5 2.6  C 4.309895833333333 2.6  3.720703125 2.85390625  3.232421875 3.36171875  C 2.744140625 3.86953125  2.5 4.482291666666667  2.5 5.2  C 2.5 5.917708333333334  2.744140625 6.53046875  3.232421875 7.03828125  C 3.720703125 7.54609375  4.309895833333333 7.8  5 7.8  C 5.690104166666666 7.8  6.279296875 7.54609375  6.767578125 7.03828125  Z M 8.53515625 1.5234375  C 9.51171875 2.5390625  10 3.764583333333334  10 5.2  C 10 5.938020833333334  9.892578125 6.5440104166666675  9.677734375 7.01796875  L 6.123046875 12.27890625  C 6.018880208333334 12.50234375  5.8642578125 12.678385416666666  5.6591796875 12.80703125  C 5.4541015625 12.935677083333333  5.234375 13  5 13  C 4.765625 13  4.5458984375 12.935677083333333  4.3408203125 12.80703125  C 4.1357421875 12.678385416666666  3.984375 12.50234375  3.88671875 12.27890625  L 0.322265625 7.01796875  C 0.107421875 6.5440104166666675  0 5.938020833333334  0 5.2  C 0 3.764583333333334  0.48828125 2.5390625  1.46484375 1.5234375  C 2.44140625 0.5078125  3.619791666666667 0  5 0  C 6.380208333333334 0  7.55859375 0.5078125  8.53515625 1.5234375  Z " fill-rule="nonzero" fill="#ffffff" stroke="none" transform="matrix(1 0 0 1 30 576 )" />
  </g>
</svg>