<?xml version="1.0" encoding="utf-8"?>
<svg version="1.1" xmlns:xlink="http://www.w3.org/1999/xlink" width="12px" height="39px" preserveAspectRatio="xMidYMin meet" viewBox="303 64  10 39" xmlns="http://www.w3.org/2000/svg">
  <defs>
    <mask fill="white" id="clip3932">
      <path d="M 416.7399999999998 41  L 519.2600000000002 41  L 519.2600000000002 99  L 416.7399999999998 99  Z M 296 41  L 640 41  L 640 115  L 296 115  Z " fill-rule="evenodd" />
    </mask>
  </defs>
  <path d="M 308 100  L 308 75  A 5 5 0 0 1 313 70 L 623 70  A 5 5 0 0 1 628 75 L 628 100  " stroke-width="4" stroke="#ffdf25" fill="none" mask="url(#clip3932)" />
  <path d="M 311.5857864376269 93.78578643762691  L 308 97.3715728752538  L 304.4142135623731 93.78578643762691  L 301.5857864376269 96.6142135623731  L 306.5857864376269 101.6142135623731  L 308 103.0284271247462  L 309.4142135623731 101.6142135623731  L 314.4142135623731 96.6142135623731  L 311.5857864376269 93.78578643762691  Z M 631.5857864376269 93.78578643762691  L 628 97.3715728752538  L 624.4142135623731 93.78578643762691  L 621.5857864376269 96.6142135623731  L 626.5857864376269 101.6142135623731  L 628 103.0284271247462  L 629.4142135623731 101.6142135623731  L 634.4142135623731 96.6142135623731  L 631.5857864376269 93.78578643762691  Z " fill-rule="nonzero" fill="#ffdf25" stroke="none" mask="url(#clip3932)" />
</svg>