<?xml version="1.0" encoding="utf-8"?>
<svg version="1.1" xmlns:xlink="http://www.w3.org/1999/xlink" width="12px" height="18px" xmlns="http://www.w3.org/2000/svg">
  <g transform="matrix(1 0 0 1 -20 -70 )">
    <path d="M 8.12109375 8.12109375  C 8.70703125 7.535156249999999  9 6.828125  9 6.000000000000001  C 9 5.171874999999999  8.70703125 4.46484375  8.12109375 3.878906249999999  C 7.53515625 3.292968750000001  6.828125000000001 2.999999999999999  6 2.999999999999999  C 5.171875 2.999999999999999  4.46484375 3.292968750000001  3.87890625 3.878906249999999  C 3.29296875 4.46484375  3 5.171874999999999  3 6.000000000000001  C 3 6.828125  3.29296875 7.535156249999999  3.87890625 8.12109375  C 4.46484375 8.70703125  5.171875 9  6 9  C 6.828125000000001 9  7.53515625 8.70703125  8.12109375 8.12109375  Z M 10.2421875 1.7578125  C 11.4140625 2.929687499999999  12 4.343749999999997  12 6.000000000000001  C 12 6.851562499999999  11.87109375 7.55078125  11.61328125 8.09765625  L 7.34765625 17.16796875  C 7.22265625 17.42578125  7.037109375 17.62890625  6.791015625 17.77734375  C 6.544921875 17.92578125  6.28125 18  6 18  C 5.71875 18  5.455078125 17.92578125  5.208984375 17.77734375  C 4.962890625 17.62890625  4.78125 17.42578125  4.6640625 17.16796875  L 0.38671875 8.09765625  C 0.12890625 7.55078125  0 6.851562499999999  0 6.000000000000001  C 0 4.343749999999997  0.5859375 2.929687499999999  1.7578125 1.7578125  C 2.9296875000000004 0.5859375000000007  4.34375 0  6 0  C 7.65625 0  9.0703125 0.5859375000000007  10.2421875 1.7578125  Z " fill-rule="nonzero" fill="#555555" stroke="none" transform="matrix(1 0 0 1 20 70 )" />
  </g>
</svg>