<?xml version="1.0" encoding="utf-8"?>
<svg version="1.1" xmlns:xlink="http://www.w3.org/1999/xlink" width="40px" height="24px" xmlns="http://www.w3.org/2000/svg">
  <g transform="matrix(1 0 0 1 -325 -532 )">
    <path d="M 326 537  A 4 4 0 0 1 330 533 L 360 533  A 4 4 0 0 1 364 537 L 364 551  A 4 4 0 0 1 360 555 L 330 555  A 4 4 0 0 1 326 551 L 326 537  Z " fill-rule="nonzero" fill="#555555" stroke="none" fill-opacity="0.4980392156862745" />
    <path d="M 325.5 537  A 4.5 4.5 0 0 1 330 532.5 L 360 532.5  A 4.5 4.5 0 0 1 364.5 537 L 364.5 551  A 4.5 4.5 0 0 1 360 555.5 L 330 555.5  A 4.5 4.5 0 0 1 325.5 551 L 325.5 537  Z " stroke-width="1" stroke="#555555" fill="none" stroke-opacity="0.4980392156862745" />
  </g>
</svg>