<?xml version="1.0" encoding="utf-8"?>
<svg version="1.1" xmlns:xlink="http://www.w3.org/1999/xlink" width="22px" height="28px" xmlns="http://www.w3.org/2000/svg">
  <defs>
    <filter x="382px" y="7px" width="22px" height="28px" filterUnits="userSpaceOnUse" id="filter204">
      <feOffset dx="0" dy="1" in="SourceAlpha" result="shadowOffsetInner" />
      <feGaussianBlur stdDeviation="1.5" in="shadowOffsetInner" result="shadowGaussian" />
      <feComposite in2="shadowGaussian" operator="atop" in="SourceAlpha" result="shadowComposite" />
      <feColorMatrix type="matrix" values="0 0 0 0 0  0 0 0 0 0  0 0 0 0 0  0 0 0 0.2 0  " in="shadowComposite" />
    </filter>
    <g id="widget205">
      <path d="M 393 30.016593343107683  C 390 24.89482667268165  385.5 21.82176667042603  385.5 16.7  C 385.5 14.025714285714287  387 9.5  393 9.5  C 399 9.5  400.5 14.025714285714287  400.5 16.7  C 400.5 21.82176667042603  396 24.89482667268165  393 30.016593343107683  Z " fill-rule="nonzero" fill="#ffdf25" stroke="none" />
      <path d="M 393 31  C 389.8 25.5  385 22.2  385 16.7  C 385 13.84  386.6 9  393 9  C 399.4 9  401 13.84  401 16.7  C 401 22.2  396.2 25.5  393 31  Z M 393 29.033186686215366  C 395.8 24.289653345363305  400 21.443533340852063  400 16.7  C 400 14.211428571428572  398.6 10  393 10  C 387.4 10  386 14.211428571428572  386 16.7  C 386 21.443533340852063  390.2 24.289653345363305  393 29.033186686215366  Z " fill-rule="nonzero" fill="#ffffff" stroke="none" />
    </g>
  </defs>
  <g transform="matrix(1 0 0 1 -382 -7 )">
    <use xlink:href="#widget205" filter="url(#filter204)" />
    <use xlink:href="#widget205" />
  </g>
</svg>