<?xml version="1.0" encoding="utf-8"?>
<svg version="1.1" xmlns:xlink="http://www.w3.org/1999/xlink" width="36px" height="36px" xmlns="http://www.w3.org/2000/svg">
  <defs>
    <filter x="322px" y="17px" width="36px" height="36px" filterUnits="userSpaceOnUse" id="filter673">
      <feOffset dx="0" dy="5" in="SourceAlpha" result="shadowOffsetInner" />
      <feGaussianBlur stdDeviation="2.5" in="shadowOffsetInner" result="shadowGaussian" />
      <feComposite in2="shadowGaussian" operator="atop" in="SourceAlpha" result="shadowComposite" />
      <feColorMatrix type="matrix" values="0 0 0 0 0  0 0 0 0 0  0 0 0 0 0  0 0 0 0.2 0  " in="shadowComposite" />
    </filter>
    <g id="widget674">
      <path d="M 340 17  C 347.28 17  353 22.72  353 30  C 353 37.28  347.28 43  340 43  C 332.72 43  327 37.28  327 30  C 327 22.72  332.72 17  340 17  Z " fill-rule="nonzero" fill="#ffffff" stroke="none" />
      <path d="M 340 17.5  C 347 17.5  352.5 23  352.5 30  C 352.5 37  347 42.5  340 42.5  C 333 42.5  327.5 37  327.5 30  C 327.5 23  333 17.5  340 17.5  Z " stroke-width="1" stroke="#ffffff" fill="none" />
    </g>
  </defs>
  <g transform="matrix(1 0 0 1 -322 -17 )">
    <use xlink:href="#widget674" filter="url(#filter673)" />
    <use xlink:href="#widget674" />
  </g>
</svg>