<?xml version="1.0" encoding="utf-8"?>
<svg version="1.1" xmlns:xlink="http://www.w3.org/1999/xlink" width="13px" height="16px" xmlns="http://www.w3.org/2000/svg">
  <g transform="matrix(1 0 0 1 -20 -391 )">
    <path d="M 12.913671875 11.567708333333332  C 12.971223958333333 12.092013888888888  13 12.649305555555555  13 13.239583333333334  C 13 13.996527777777779  12.788411458333334 14.645833333333334  12.365234375 15.1875  C 11.942057291666668 15.729166666666666  11.432552083333334 16  10.836718750000001 16  L 2.1632812500000003 16  C 1.5674479166666666 16  1.0579427083333335 15.729166666666666  0.6347656250000001 15.1875  C 0.21158854166666674 14.645833333333334  0 13.996527777777779  0 13.239583333333334  C 0 12.649305555555555  0.028776041666666734 12.092013888888888  0.08632812500000007 11.567708333333332  C 0.1438802083333334 11.043402777777775  0.2505208333333334 10.515625  0.4062500000000001 9.984375  C 0.5619791666666668 9.453125  0.7600260416666668 8.99826388888889  1.0003906249999999 8.619791666666668  C 1.2407552083333335 8.241319444444443  1.5589843749999999 7.932291666666666  1.955078125 7.692708333333334  C 2.351171875 7.453125  2.806510416666667 7.333333333333334  3.32109375 7.333333333333334  C 4.2080729166666675 8.222222222222221  5.267708333333334 8.666666666666668  6.5 8.666666666666668  C 7.732291666666669 8.666666666666668  8.791927083333334 8.222222222222221  9.678906249999999 7.333333333333334  C 10.193489583333335 7.333333333333334  10.648828125 7.453125  11.044921875 7.692708333333334  C 11.441015625 7.932291666666666  11.759244791666667 8.241319444444443  11.999609375 8.619791666666668  C 12.239973958333335 8.99826388888889  12.438020833333333 9.453125  12.59375 9.984375  C 12.749479166666667 10.515625  12.856119791666668 11.043402777777775  12.913671875 11.567708333333332  Z M 9.257421875 1.171875  C 10.019140625 1.953125  10.4 2.895833333333334  10.4 4  C 10.4 5.104166666666666  10.019140625 6.046875  9.257421875 6.828125  C 8.495703125 7.609375  7.5765625 8  6.5 8  C 5.4234374999999995 8  4.5042968750000005 7.609375  3.742578125 6.828125  C 2.980859375 6.046875  2.6 5.104166666666666  2.6 4  C 2.6 2.895833333333334  2.980859375 1.953125  3.742578125 1.171875  C 4.5042968750000005 0.390625  5.4234374999999995 0  6.5 0  C 7.5765625 0  8.495703125 0.390625  9.257421875 1.171875  Z " fill-rule="nonzero" fill="#aaaaaa" stroke="none" transform="matrix(1 0 0 1 20 391 )" />
  </g>
</svg>