<?xml version="1.0" encoding="utf-8"?>
<svg version="1.1" xmlns:xlink="http://www.w3.org/1999/xlink" width="20px" height="18px" xmlns="http://www.w3.org/2000/svg">
  <g transform="matrix(1 0 0 1 -335 -510 )">
    <path d="M 345 512.4717514421272  C 343 510.5  341 510.5  340 510.5  C 338.2 510.5  335.5 512.1275862068966  335.5 515.22  C 335.5 522.2591475979142  345 527.409743401266  345 527.409743401266  C 345 527.409743401266  354.5 522.2591475979142  354.5 515.22  C 354.5 512.1275862068966  351.8 510.5  350 510.5  C 349 510.5  347 510.5  345 512.4717514421272  Z " fill-rule="nonzero" fill="#f2f2f2" stroke="none" />
    <path d="M 345 511.8  C 343 510  341 510  340 510  C 338 510  335 511.8  335 515.22  C 335 522.6  345 528  345 528  C 345 528  355 522.6  355 515.22  C 355 511.8  352 510  350 510  C 349 510  347 510  345 511.8  Z M 345 513.1435028842544  C 347 511  349 511  350 511  C 351.6 511  354 512.4551724137931  354 515.22  C 354 521.9182951958284  345 526.8194868025321  345 526.8194868025321  C 345 526.8194868025321  336 521.9182951958284  336 515.22  C 336 512.4551724137931  338.4 511  340 511  C 341 511  343 511  345 513.1435028842544  Z " fill-rule="nonzero" fill="#d7d7d7" stroke="none" />
  </g>
</svg>