<?xml version="1.0" encoding="utf-8"?>
<svg version="1.1" xmlns:xlink="http://www.w3.org/1999/xlink" width="79px" height="28px" xmlns="http://www.w3.org/2000/svg">
  <g transform="matrix(1 0 0 1 -336 -9 )">
    <path d="M 337 23.000000000000004  A 13 13 0 0 1 350 10 L 401 10  A 13 13 0 0 1 414 23 A 13 13 0 0 1 401 36 L 350 36  A 13 13 0 0 1 337 23.000000000000004 Z " fill-rule="nonzero" fill="#333333" stroke="none" fill-opacity="0.4980392156862745" />
    <path d="M 336.5 23.000000000000004  A 13.5 13.5 0 0 1 350 9.5 L 401 9.5  A 13.5 13.5 0 0 1 414.5 23 A 13.5 13.5 0 0 1 401 36.5 L 350 36.5  A 13.5 13.5 0 0 1 336.5 23.000000000000004 Z " stroke-width="1" stroke="#666666" fill="none" stroke-opacity="0.6" />
  </g>
</svg>