<?xml version="1.0" encoding="utf-8"?>
<svg version="1.1" xmlns:xlink="http://www.w3.org/1999/xlink" width="79px" height="28px" xmlns="http://www.w3.org/2000/svg">
  <g transform="matrix(1 0 0 1 -306 -8 )">
    <path d="M 307 22.000000000000004  A 13 13 0 0 1 320 9 L 371 9  A 13 13 0 0 1 384 22 A 13 13 0 0 1 371 35 L 320 35  A 13 13 0 0 1 307 22.000000000000004 Z " fill-rule="nonzero" fill="#333333" stroke="none" fill-opacity="0.4980392156862745" />
    <path d="M 306.5 22.000000000000004  A 13.5 13.5 0 0 1 320 8.5 L 371 8.5  A 13.5 13.5 0 0 1 384.5 22 A 13.5 13.5 0 0 1 371 35.5 L 320 35.5  A 13.5 13.5 0 0 1 306.5 22.000000000000004 Z " stroke-width="1" stroke="#666666" fill="none" stroke-opacity="0.6" />
  </g>
</svg>